<?xml version="1.0" encoding="utf-8"?>
<!-- Generator: Adobe Illustrator 27.5.0, SVG Export Plug-In . SVG Version: 6.00 Build 0)  -->
<svg version="1.1" id="Layer_1" xmlns="http://www.w3.org/2000/svg" xmlns:xlink="http://www.w3.org/1999/xlink" x="0px" y="0px"
	 viewBox="0 0 1024 1024" style="enable-background:new 0 0 1024 1024;" xml:space="preserve">
<path style="fill:#FFFFFF;" d="M0,0h1024v1024H0V0z"/>
<path style="fill:#ED145B;" d="M166.431,338.879c13.232-0.145,26.492,0.072,39.727,0.06l-0.061,34.528l-39.709,0.025
	C166.246,361.962,166.406,350.411,166.431,338.879z"/>
<path style="fill:#ED145B;" d="M823.73,302.638c5.407,0.009,9.015,2.555,13.002,5.84c3.714-2.899,7.48-5.276,12.317-5.578
	c4.613-0.289,9.416,1.51,12.719,4.742c3.03,2.965,4.66,7.075,4.648,11.299c-0.031,10.768-12.211,19.768-19.377,26.809
	l-10.293,10.343c-6.777-7.112-27.54-25.482-29.03-34.356c-0.739-4.401,0.627-8.79,3.221-12.354
	C814.226,304.863,818.483,303.483,823.73,302.638z"/>
<path style="fill:#7A0027;" d="M670.855,940.608c0.33-9.782,2.615-19.911,4.933-29.402c10.894-44.588,34.331-86.822,66.426-119.664
	c12.862,15.537,25.181,57.433,29.359,78.09c4.268,23.669,5.967,46.796,5.278,70.843
	C741.534,940.576,706.168,941.026,670.855,940.608z"/>
<path style="fill:#9D003A;" d="M270.856,124.025c1.257-0.382,1.409-0.237,2.621,0.397c8.901,4.648,17.481,10.911,26.132,16.116
	l35.732,21.741c4.661,2.837,9.561,5.398,14.135,8.35c0.835,0.539,1.604,1.164,2.182,1.974c-0.981,11.615-0.39,23.758-0.457,35.431
	c-0.094,16.491-0.68,33.217,0.362,49.676c-7.344,4.67-77.482,49.203-79.981,49.091c-6.444-2.783-12.768-7.57-18.73-11.323
	c-11.284-7.102-22.805-13.815-34.116-20.877c-8.368-5.223-17.153-11.738-26.194-15.658l-0.06-57.307
	c-0.014-9.308,0.809-19.391-0.38-28.586C192.958,171.97,262.969,128.355,270.856,124.025z"/>
<path style="fill:#7A0027;" d="M192.102,173.05c0.856-1.08,70.867-44.695,78.754-49.025c1.808,4.364,1.09,84.91,0.681,96.164
	c-4.546-1.041-18.947-11.237-23.845-14.214l-35.655-21.34C205.443,180.696,198.593,177.149,192.102,173.05z"/>
<path style="fill:#ED145B;" d="M271.927,220.239c9.302-3.707,18.235-9.916,26.856-15.043c17.804-10.589,35.445-21.397,52.875-32.593
	c-0.981,11.615-0.39,23.758-0.457,35.431c-0.094,16.491-0.68,33.217,0.362,49.676c-7.344,4.67-77.482,49.203-79.981,49.091
	c1.353-4.822,0.345-15.531,0.333-20.988l-0.089-42.158C271.812,235.875,271.526,228.003,271.927,220.239z"/>
<path style="fill:#9D003A;" d="M372.534,240.052c4.99,2.556,11.123,5.786,14.645,10.237c2.617,3.308,4.896,7.146,7.967,10.046
	c1.845,1.742,5.514,2.741,6.67,4.732c0.552,4.098-1.197,9.427,1.311,12.948c-9.57,9.689-18.937,20.052-26.045,31.728
	c-2.642,4.34-6.652,14.144-9.296,17.308c-6.401,15.788-11.733,31.136-12.852,48.323c0.038,5.535-0.89,28.684,0.743,32.249
	c1.088,0.243,0.544,0.279,1.628-0.154c1.007,13.165,0.656,26.695,0.771,39.897c0.053,6.143,0.939,13.492-0.06,19.5
	c-1.374,0.7-2.311,0.44-3.832,0.353l-2.396,0.592c-4.383,0.105-8.783,0.044-13.169,0.06c0.786,7.643,1.453,15.695,3.902,23.007
	c1.23,3.669,3.855,7.397,4.707,11.067c0.097,6.332,2.134,13.231,3.713,19.356c8.868,34.393,27.797,66.116,53.292,90.798
	c6.33,6.128,13.242,11.444,20.298,16.693c8.193,5.186,26.446,17.642,35.367,19.111l0.023,0.405
	c31.913,14.397,54.08,21.056,88.434,8.164c4.132-1.551,12.26-5.881,16.099-6.29c0.964,18.313,4.548,42.187,18.837,55.158
	c2.685,2.438,5.863,4.656,9.129,6.239c5.78,0.995,26.919,13.098,33.637,16.555c17.065,7.036,32.645,18.132,49.384,25.988
	c11.086,5.606,21.861,11.846,32.787,17.758c10.86,6.64,24.423,11.549,33.986,19.662c-32.095,32.842-55.532,75.076-66.426,119.664
	c-2.318,9.491-4.603,19.62-4.933,29.402c-41.308-0.816-82.767-0.192-124.09-0.147l-193.123,0.05l-105.494,0.219
	c-1.733-20.174-1.528-46.968,3.039-66.654c-28.219-26.115-57.182-51.478-84.127-78.943c-6.285-6.406-15.382-14.632-20.349-21.684
	c-20.06-18.745-47.698-56.264-60.998-80.369C60.654,647.665,56,595.3,70.445,545.704c15.343-52.682,52.12-98.556,99.77-125.518
	c7.795-4.411,15.78-8.753,24.169-11.928c10.019-3.793,20.235-5.865,30.529-8.671c15.47-4.216,30.7-10.025,44.728-17.797
	c33.903-18.785,64.166-46.218,77.831-83.261c4.194-11.37,5.834-22.973,9.216-34.49l0.256-0.854
	c1.389-7.52,3.491-15.016,5.792-22.301c0.024,1.106,0.047,2.207,0.122,3.311c0.526,0.488,1.06,0.952,1.608,1.416
	C367.465,245.294,370.201,241.888,372.534,240.052z"/>
<path style="fill:#7A0027;" d="M285.197,792.251c5.729,4.439,10.386,12.687,14.673,18.524
	c25.611,34.867,47.426,75.835,52.88,119.257c0.436,3.474,0.814,6.977,0.892,10.479l-105.494,0.219
	c-1.733-20.174-1.528-46.968,3.039-66.654c4.657-23.499,12.456-46.57,24.466-67.401c2.806-4.867,6.481-9.214,9.331-14.057
	L285.197,792.251z"/>
<path style="fill:#7A0027;" d="M424.531,628.792c8.193,5.186,26.446,17.642,35.367,19.111l0.023,0.405
	c31.913,14.397,54.08,21.056,88.434,8.164c4.132-1.551,12.26-5.881,16.099-6.29c0.964,18.313,4.548,42.187,18.837,55.158
	c2.685,2.438,5.863,4.656,9.129,6.239c5.78,0.995,26.919,13.098,33.637,16.555c-31.695,31.934-65.647,68.573-114.276,68.651
	c-42.967,0.068-69.476-23.198-97.886-51.672c-5.221-5.234-10.29-10.777-14.941-16.523c-12.181,7.849-25.996,13.677-39.039,19.97
	c-6.39,3.083-12.836,6.889-19.417,9.467l-0.195-129.454l54.563,0.378C404.592,629.016,414.872,629.727,424.531,628.792z"/>
<path style="fill:#F5999F;" d="M459.921,648.308c31.913,14.397,54.08,21.056,88.434,8.164c4.132-1.551,12.26-5.881,16.099-6.29
	c0.964,18.313,4.548,42.187,18.837,55.158c2.685,2.438,5.863,4.656,9.129,6.239c-15.104,21.646-37.732,39.979-64.186,44.769
	c-26.053,4.718-49.023-3.392-70.197-18.259c-10.04-7.051-20.028-14.897-28.809-23.467
	C451.872,697.17,456.041,675.138,459.921,648.308z"/>
<linearGradient id="SVGID_1_" gradientUnits="userSpaceOnUse" x1="490.5605" y1="650.3087" x2="101.4895" y2="303.7432" gradientTransform="matrix(1 0 0 -1 0 1026)">
	<stop  offset="0" style="stop-color:#D53E69"/>
	<stop  offset="1" style="stop-color:#F6A1B4"/>
</linearGradient>
<path style="fill:url(#SVGID_1_);" d="M372.534,240.052c4.99,2.556,11.123,5.786,14.645,10.237
	c2.617,3.308,4.896,7.146,7.967,10.046c1.845,1.742,5.514,2.741,6.67,4.732c0.552,4.098-1.197,9.427,1.311,12.948
	c-9.57,9.689-18.937,20.052-26.045,31.728c-2.642,4.34-6.652,14.144-9.296,17.308c-6.401,15.788-11.733,31.136-12.852,48.323
	c0.038,5.535-0.89,28.684,0.743,32.249c1.088,0.243,0.544,0.279,1.628-0.154c1.007,13.165,0.656,26.695,0.771,39.897
	c0.053,6.143,0.939,13.492-0.06,19.5c-1.374,0.7-2.311,0.44-3.832,0.353l-2.396,0.592c-4.383,0.105-8.783,0.044-13.169,0.06
	c0.786,7.643,1.453,15.695,3.902,23.007c1.23,3.669,3.855,7.397,4.707,11.067c0.097,6.332,2.134,13.231,3.713,19.356
	c8.868,34.393,27.797,66.116,53.292,90.798c6.33,6.128,13.242,11.444,20.298,16.693c-9.659,0.935-19.939,0.224-29.665,0.159
	l-54.563-0.378l0.195,129.454c-12.904,5.841-26.716,12.095-38.511,19.934c-3.124,2.076-12.931,11.462-15.276,11.832
	c1.866-6.5,0.573-44.093,0.582-53.722l-0.28-179.879c-15.864-0.391-31.825-0.026-47.698-0.035l-92.335-0.029
	c-0.316,72.425,0.928,144.908-0.269,217.321c-20.06-18.745-47.698-56.264-60.998-80.369C60.654,647.665,56,595.3,70.445,545.704
	c15.343-52.682,52.12-98.556,99.77-125.518c7.795-4.411,15.78-8.753,24.169-11.928c10.019-3.793,20.235-5.865,30.529-8.671
	c15.47-4.216,30.7-10.025,44.728-17.797c33.903-18.785,64.166-46.218,77.831-83.261c4.194-11.37,5.834-22.973,9.216-34.49
	l0.256-0.854c1.389-7.52,3.491-15.016,5.792-22.301c0.024,1.106,0.047,2.207,0.122,3.311c0.526,0.488,1.06,0.952,1.608,1.416
	C367.465,245.294,370.201,241.888,372.534,240.052z"/>
<path style="fill:#F26E7D;" d="M372.534,240.052c4.99,2.556,11.123,5.786,14.645,10.237c2.617,3.308,4.896,7.146,7.967,10.046
	c1.845,1.742,5.514,2.741,6.67,4.732c0.552,4.098-1.197,9.427,1.311,12.948c-9.57,9.689-18.937,20.052-26.045,31.728
	c-2.642,4.34-6.652,14.144-9.296,17.308l-0.361-0.399c0.623-2.771,2.487-5.449,3.809-7.956c0.985-1.867,1.674-3.852,2.721-5.693
	c7.004-12.327,16.709-23.287,26.218-33.7c-1.722-4.74-6.521-12.299-10.034-15.851c-0.843,0.705-1.366,0.937-2.437,1.177
	c-6.089-2.152-2.968-6.076-5.3-10.138c-1.95-3.397-8.482-5.272-12.015-6.242c-4.177,3.516-3.806,1.745-8.182,2.128
	c-2.807,0.245-2.756,9.854-4.785,12.278c-0.152,0.182-0.318,0.353-0.476,0.53c1.389-7.52,3.491-15.016,5.792-22.301
	c0.024,1.106,0.047,2.207,0.122,3.311c0.526,0.488,1.06,0.952,1.608,1.416C367.465,245.294,370.201,241.888,372.534,240.052z"/>
<path style="fill:#FFFFFF;" d="M182.987,460.916l39.511-0.037l0.025,38.112c-13.173-0.183-26.357-0.039-39.531,0.006
	L182.987,460.916z"/>
<path style="fill:#7A0027;" d="M354.513,375.632l0.421-0.258c0.038,5.535-0.89,28.684,0.743,32.249
	c1.088,0.243,0.544,0.279,1.628-0.154c1.007,13.165,0.656,26.695,0.771,39.897c0.053,6.143,0.939,13.492-0.06,19.5
	c-1.374,0.7-2.311,0.44-3.832,0.353l-2.396,0.592c-4.383,0.105-8.783,0.044-13.169,0.06c-4.22-0.052-9.408,0.416-12.786-2.619
	c-2.421-2.176-2.759-7.168-2.874-10.292c-0.53-14.374-0.029-28.961-0.026-43.354c0.002-8.404-0.891-17.999,0.265-26.278
	c0.34-2.435,1.573-4.726,3.282-6.48C331.759,373.43,347.144,375.537,354.513,375.632z"/>
<linearGradient id="SVGID_00000098217525239756190570000015495906450110535043_" gradientUnits="userSpaceOnUse" x1="848.3732" y1="696.8704" x2="547.6522" y2="488.2116" gradientTransform="matrix(1 0 0 -1 0 1026)">
	<stop  offset="0" style="stop-color:#C9073F"/>
	<stop  offset="1" style="stop-color:#D45779"/>
</linearGradient>
<path style="fill:url(#SVGID_00000098217525239756190570000015495906450110535043_);" d="M362.736,240.884
	c2.452-10.443,6.7-20.694,11.075-30.463c17.653-39.419,44.772-72.721,81.684-95.567c49.247-30.48,111.544-38.063,167.532-24.753
	c56.97,13.543,96.688,47.062,126.906,96.276c16.866,27.468,30.781,58.792,34.102,91.14c1.288,12.545,1.242,25.211,0.738,37.799
	c-0.753,18.811-5.302,46.036,3.004,63.26c11.109,23.033,29.144,24.232,50.054,32.78c11.183,4.572,22.179,10.369,32.273,17.001
	c71.256,46.821,106.454,135.402,86.524,218.314c-9.156,38.09-30.656,71.174-56.739,99.952c-6.495,7.325-12.49,15.085-19.069,22.327
	c-21.797,23.996-45.304,46.863-69.875,68.007c-7.291,6.275-14.575,12.763-22.263,18.544c-5.566,4.867-11.674,9.147-17.109,14.131
	c-4.178-20.657-16.497-62.553-29.359-78.09c-9.563-8.113-23.126-13.022-33.986-19.662c-10.926-5.912-21.701-12.152-32.787-17.758
	c-16.739-7.856-32.319-18.952-49.384-25.988c-6.718-3.457-27.857-15.56-33.637-16.555c-3.266-1.583-6.444-3.801-9.129-6.239
	c-14.289-12.971-17.873-36.845-18.837-55.158c-3.839,0.409-11.967,4.739-16.099,6.29c-34.354,12.892-56.521,6.233-88.434-8.164
	l-0.023-0.405c-8.921-1.469-27.174-13.925-35.367-19.111c-7.056-5.249-13.968-10.565-20.298-16.693
	c-25.495-24.682-44.424-56.405-53.292-90.798c-1.579-6.125-3.616-13.024-3.713-19.356c-0.852-3.67-3.477-7.398-4.707-11.067
	c-2.449-7.312-3.116-15.364-3.902-23.007c4.386-0.016,8.786,0.045,13.169-0.06l2.396-0.592c1.521,0.087,2.458,0.347,3.832-0.353
	c0.999-6.008,0.113-13.357,0.06-19.5c-0.115-13.202,0.236-26.732-0.771-39.897c-1.084,0.433-0.54,0.397-1.628,0.154
	c-1.633-3.565-0.705-26.714-0.743-32.249c1.119-17.187,6.451-32.535,12.852-48.323c2.644-3.164,6.654-12.968,9.296-17.308
	c7.108-11.676,16.475-22.039,26.045-31.728c-2.508-3.521-0.759-8.85-1.311-12.948c-1.156-1.991-4.825-2.99-6.67-4.732
	c-3.071-2.9-5.35-6.738-7.967-10.046c-3.522-4.451-9.655-7.681-14.645-10.237c-2.333,1.836-5.069,5.242-8.068,5.559
	c-0.548-0.464-1.082-0.928-1.608-1.416C362.783,243.091,362.76,241.99,362.736,240.884z"/>
<path style="fill:#F26E7D;" d="M675.728,669.213c0.969,7.182,2.652,14.199,3.513,21.458c1.722,14.523,1.177,45.069,13.493,54.37
	c2.432,1.837,6.449,3.28,9.524,2.854c1.274-0.177,2.258-1.033,2.937-2.077c3.968-6.096,0.765-29.796,2.86-31.579
	c0.652,9.194,0.221,18.667,0.209,27.897c-0.012,9.87,0.348,19.89-0.036,29.744c-10.926-5.912-21.701-12.152-32.787-17.758
	L675.728,669.213z"/>
<path style="fill:#FFFFFF;" d="M608.945,182.221c11.668-0.205,23.445-0.395,35.105,0.088L644.018,219l-35.172,0.038
	C608.691,206.778,608.758,194.481,608.945,182.221z"/>
<path style="fill:#7A0027;" d="M667.54,377.063c6.462-0.126,26.364-2.323,30.717,1.993c1.554,1.54,2.773,3.501,3.123,5.687
	c1.358,8.502,0.559,18.338,0.587,26.967c0.044,13.783,0.448,27.684,0.033,41.455c-0.105,3.485-0.583,8.904-3.364,11.357
	c-5.446,4.806-14.747,3.526-21.491,3.477l-10.854,0.004c1.47-17.333-1.008-35.023,0.778-52.34
	C668.856,410.657,667.581,384.612,667.54,377.063z"/>
<path style="fill:#FFFFFF;" d="M734.2,257.713c4.151-3.574,9.124-6.274,14.705-6.494c5.698-0.224,11.297,2.403,15.271,6.398
	c4.186,4.209,6.376,9.92,6.259,15.842c-0.271,13.714-15.431,24.979-24.637,33.986c-3.997,3.855-7.881,7.832-11.801,11.765
	c-8.435-7.839-26.855-24.154-32.688-32.64c-2.163-3.146-3.736-6.68-4.198-10.493c-0.689-5.682,0.823-12.284,4.442-16.792
	c4.11-5.12,10.091-7.452,16.443-8.087C724.681,251.302,729.052,253.806,734.2,257.713z"/>
<path style="fill:#FFFFFF;" d="M799.817,534.364c4.563-4.258,8.865-7.394,15.432-7.413c5.862-0.017,11.521,2.602,15.589,6.769
	c4.33,4.435,6.669,10.558,6.458,16.75c-0.421,12.389-15.287,23.428-23.569,31.418l-13.237,12.756
	c-9.11-8.453-26.032-23.002-32.933-32.239c-2.016-2.699-3.627-5.715-4.373-9.019c-1.291-5.716,0.103-11.53,3.291-16.381
	c3.631-5.526,8.817-8.533,15.15-9.905C789.42,526.53,794.048,529.602,799.817,534.364z"/>
<path style="fill:#ED145B;" d="M675.742,499.363c0.461,3.649-0.137,7.79-0.94,11.372c2.296,6.517,0.806,68.157,0.761,80.556
	l0.165,77.922l-0.287,84.909c-16.739-7.856-32.319-18.952-49.384-25.988c-6.718-3.457-27.857-15.56-33.637-16.555
	c-3.266-1.583-6.444-3.801-9.129-6.239c-14.289-12.971-17.873-36.845-18.837-55.158l0.134-0.399
	c-0.851-10.965-0.493-22.155-0.464-33.155c7.588-5.46,15.275-10.968,22.207-17.254c21.044-19.08,39.349-45.551,47.862-72.718
	l1.436-0.247c1.002,0.659,2.014,1.301,3.119,1.778c4.517,1.948,9.299,1.483,13.724-0.5
	C663.945,522.546,671.529,510.725,675.742,499.363z"/>
<path d="M675.742,499.363c0.461,3.649-0.137,7.79-0.94,11.372c-2.112,9.364-4.089,18.742-7.319,27.802
	c-14.393,40.371-43.796,75.648-79.869,98.476c-7.414,4.692-15.02,9.16-23.026,12.77c-0.851-10.965-0.493-22.155-0.464-33.155
	c7.588-5.46,15.275-10.968,22.207-17.254c21.044-19.08,39.349-45.551,47.862-72.718l1.436-0.247
	c1.002,0.659,2.014,1.301,3.119,1.778c4.517,1.948,9.299,1.483,13.724-0.5C663.945,522.546,671.529,510.725,675.742,499.363z"/>
<path style="fill:#ED145B;" d="M708.054,637.947l133.376-0.031l-0.074,109.297c13.552-0.369,27.107-0.73,40.663-0.867
	c5.678-0.057,12.306-0.698,17.87,0.277c-6.495,7.325-12.49,15.085-19.069,22.327c-21.797,23.996-45.304,46.863-69.875,68.007
	c-7.291,6.275-14.575,12.763-22.263,18.544c-5.566,4.867-11.674,9.147-17.109,14.131c-4.178-20.657-16.497-62.553-29.359-78.09
	c-9.563-8.113-23.126-13.022-33.986-19.662c0.384-9.854,0.024-19.874,0.036-29.744c0.012-9.23,0.443-18.703-0.209-27.897
	C708.841,688.892,708.074,663.318,708.054,637.947z"/>
<path style="fill:#7A0027;" d="M841.356,747.213c13.552-0.369,27.107-0.73,40.663-0.867c5.678-0.057,12.306-0.698,17.87,0.277
	c-6.495,7.325-12.49,15.085-19.069,22.327c-21.797,23.996-45.304,46.863-69.875,68.007c-7.291,6.275-14.575,12.763-22.263,18.544
	c-1.631-4.981-0.649-27.664-0.649-34.05l0.047-74.028C805.761,747.488,823.702,748.121,841.356,747.213z"/>
<path d="M403.127,278.015c36.07-30.925,76.145-44.847,123.678-41.25c39.767,3.009,79.072,21.872,105,52.387
	c21.419,25.208,34.543,54.473,35.735,87.911c0.041,7.549,1.316,33.594-0.471,38.6c-0.044-5.142-0.821-10.41-2.428-15.3
	c-9.935-30.241-37.676-25.427-63.052-25.376l-47.632,0.126c-3.273,0.038-13.388,1.13-15.981-0.176
	c-5.72,1.548-43.027,0.34-51.789,0.352c-21.88-1.25-44.127-0.525-66.041-0.529c-10.169-0.001-28.796-1.137-38.087,0.745
	c-4.689,0.95-9.289,3.852-12.8,7.027c-7.148,6.463-10.826,15.496-11.954,24.937c-1.084,0.433-0.54,0.397-1.628,0.154
	c-1.633-3.565-0.705-26.714-0.743-32.249c1.119-17.187,6.451-32.535,12.852-48.323c2.644-3.164,6.654-12.968,9.296-17.308
	C384.19,298.067,393.557,287.704,403.127,278.015z"/>
<path style="fill:#F5999F;" d="M512.073,331.873c6.194,16.468,14.451,29.797,25.903,43.064c-5.72,1.548-43.027,0.34-51.789,0.352
	c3.224-4.474,6.833-8.677,10.066-13.155C503.081,352.678,507.979,342.745,512.073,331.873z"/>
<path style="fill:#9D003A;" d="M537.976,374.937c2.593,1.306,12.708,0.214,15.981,0.176l47.632-0.126
	c25.376-0.051,53.117-4.865,63.052,25.376c1.607,4.89,2.384,10.158,2.428,15.3c-1.786,17.317,0.692,35.007-0.778,52.34l10.854-0.004
	c0.133,10.355,0.975,21.218-1.403,31.364c-4.213,11.362-11.797,23.183-23.27,28.324c-4.425,1.983-9.207,2.448-13.724,0.5
	c-1.105-0.477-2.117-1.119-3.119-1.778l-1.436,0.247c-8.513,27.167-26.818,53.638-47.862,72.718
	c-6.932,6.286-14.619,11.794-22.207,17.254c-0.029,11-0.387,22.19,0.464,33.155l-0.134,0.399c-3.839,0.409-11.967,4.739-16.099,6.29
	c-34.354,12.892-56.521,6.233-88.434-8.164l-0.023-0.405c-8.921-1.469-27.174-13.925-35.367-19.111
	c-7.056-5.249-13.968-10.565-20.298-16.693c-25.495-24.682-44.424-56.405-53.292-90.798c-1.579-6.125-3.616-13.024-3.713-19.356
	c-0.852-3.67-3.477-7.398-4.707-11.067c-2.449-7.312-3.116-15.364-3.902-23.007c4.386-0.016,8.786,0.045,13.169-0.06l2.396-0.592
	c1.521,0.087,2.458,0.347,3.832-0.353c0.999-6.008,0.113-13.357,0.06-19.5c-0.115-13.202,0.236-26.732-0.771-39.897
	c1.128-9.441,4.806-18.474,11.954-24.937c3.511-3.175,8.111-6.077,12.8-7.027c9.291-1.882,27.918-0.746,38.087-0.745
	c21.914,0.004,44.161-0.721,66.041,0.529C494.949,375.277,532.256,376.485,537.976,374.937z"/>
<path style="fill:#F5999F;" d="M666.291,468.003l10.854-0.004c0.133,10.355,0.975,21.218-1.403,31.364
	c-4.213,11.362-11.797,23.183-23.27,28.324c-4.425,1.983-9.207,2.448-13.724,0.5c-1.105-0.477-2.117-1.119-3.119-1.778
	c6.536-2.295,12.495-4.948,17.734-9.596c15.811-14.026,11.699-29.603,12.884-48.18L666.291,468.003z"/>
<path style="fill:#FFFFFF;" d="M383.978,398.612l12.445-0.04c0.462,32.442,0.367,65.086-0.018,97.533l-0.035,7.009
	c-1.562-0.114-3.106-0.309-4.633-0.665c-3.646-0.848-5.463-2.812-7.438-5.846c-1.35-7.488-0.291-21.232-0.29-29.377L383.978,398.612
	z"/>
<path style="fill:#FFFFFF;" d="M396.423,398.572c3.672-0.017,7.376-0.14,11.044-0.029l19.388-0.001l-0.207,104.664l-0.246,0.136
	c-6.308,0.034-12.62,0.136-18.924-0.14c-3.671-0.345-7.423-0.147-11.108-0.088l0.035-7.009
	C396.79,463.658,396.885,431.014,396.423,398.572z"/>
<path style="fill:#F26E7D;" d="M396.423,398.572c3.672-0.017,7.376-0.14,11.044-0.029c-0.279,20.83-0.335,41.664-0.179,62.496
	c0.091,12.255,0.692,24.831,0.134,37.063l0.056,5.1c-3.671-0.345-7.423-0.147-11.108-0.088l0.035-7.009
	C396.79,463.658,396.885,431.014,396.423,398.572z"/>
<path style="fill:#ED145B;" d="M396.405,496.105c2.578-0.878,7.426-3.395,9.954-2.041c0.706,0.378,0.729,0.852,0.874,1.62
	c0.146,0.772,0.144,1.631,0.189,2.418l0.056,5.1c-3.671-0.345-7.423-0.147-11.108-0.088L396.405,496.105z"/>
<path style="fill:#ED145B;" d="M642.358,407.623c1.135,5.869,0.633,12.547,0.616,18.518l-0.113,28.143
	c-0.044,10.839,0.818,23.771-0.281,34.358c-0.315,3.033-1.002,6.639-2.833,9.159c-2.09,2.876-5.414,4.345-8.849,4.743
	c-10.607,1.229-22.145,0.437-32.863,0.449c-15.291,0.017-30.79,0.557-46.046-0.151c-0.162-0.099-0.324-0.195-0.485-0.296
	c-12.495-7.824-8.73-24.948-30.377-31.555c-5.776-1.763-11.875-2.073-17.788-0.799c-8.892,1.915-15.57,7.33-20.309,14.929
	c-3.787,6.073-6.272,15.507-14.089,17.269c-5.099,1.149-10.951,0.666-16.155,0.683c-8.795,0.029-17.592-0.038-26.384,0.269
	l0.246-0.136c1.263-3.958,0.466-9.885,0.412-14.07c17.535-3.862,34.671-9.583,51.754-15.05
	c46.178-14.776,91.252-32.624,135.203-53.112C623.473,416.566,633.057,412.348,642.358,407.623z"/>
<path style="fill:#F26E7D;" d="M426.855,398.542l145.544,0.14l38.424,0.043c7.043,0.007,14.483-0.447,21.464,0.403
	c2.33,0.284,4.316,1.159,6.007,2.802c1.717,1.669,2.9,3.621,4.064,5.693c-9.301,4.725-18.885,8.943-28.341,13.351
	c-43.951,20.488-89.025,38.336-135.203,53.112c-17.083,5.467-34.219,11.188-51.754,15.05c0.054,4.185,0.851,10.112-0.412,14.07
	L426.855,398.542z"/>
<path style="fill:#F5999F;" d="M351.788,467.811l6.694-0.017c-0.067,18.619-2.915,33.979,11.327,48.462
	c8.823,8.972,18.332,11.248,30.562,11.262l43.387-0.015c10.08,0.042,22.97,1.391,32.763-0.988c6.32-1.536,11.247-4.386,15.83-8.958
	c2.345-2.34,4.42-4.936,6.191-7.736c2.661-4.21,6.958-15.255,12.823-15.403c2.173-0.055,4.205,1.85,5.483,3.401
	c2.341,2.842,3.989,6.582,5.787,9.794c6.353,11.348,14.13,17.668,27.27,19.404c11.536,1.525,28.833,0.511,40.801,0.507
	c11.521-0.004,32.635,1.13,43.487-0.868c-8.513,27.167-26.818,53.638-47.862,72.718c-6.932,6.286-14.619,11.794-22.207,17.254
	c-0.029,11-0.387,22.19,0.464,33.155l-0.134,0.399c-3.839,0.409-11.967,4.739-16.099,6.29c-34.354,12.892-56.521,6.233-88.434-8.164
	l-0.023-0.405c-8.921-1.469-27.174-13.925-35.367-19.111c-7.056-5.249-13.968-10.565-20.298-16.693
	c-25.495-24.682-44.424-56.405-53.292-90.798c-1.579-6.125-3.616-13.024-3.713-19.356c-0.852-3.67-3.477-7.398-4.707-11.067
	c-2.449-7.312-3.116-15.364-3.902-23.007C343.005,467.855,347.405,467.916,351.788,467.811z"/>
<path style="fill:#F26E7D;" d="M460.812,616.824c20.866,12.689,43.179,21.209,67.89,15.251c12.007-2.894,25.11-8.584,35.422-15.447
	c-0.029,11-0.387,22.19,0.464,33.155l-0.134,0.399c-3.839,0.409-11.967,4.739-16.099,6.29c-34.354,12.892-56.521,6.233-88.434-8.164
	l-0.023-0.405C461.569,637.949,461.003,626.891,460.812,616.824z"/>
<path d="M347.228,501.945c6.221,10.581,14.583,24.68,27.475,27.733c4.549,1.077,8.29,0.408,12.62-0.957
	c15.733,36.303,39.67,66.947,73.489,88.103c0.191,10.067,0.757,21.125-0.914,31.079c-8.921-1.469-27.174-13.925-35.367-19.111
	c-7.056-5.249-13.968-10.565-20.298-16.693c-25.495-24.682-44.424-56.405-53.292-90.798
	C349.362,515.176,347.325,508.277,347.228,501.945z"/>
</svg>
