<?xml version="1.0" encoding="utf-8"?>
<!-- Generator: Adobe Illustrator 27.5.0, SVG Export Plug-In . SVG Version: 6.00 Build 0)  -->
<svg version="1.1" id="Layer_1" xmlns="http://www.w3.org/2000/svg" xmlns:xlink="http://www.w3.org/1999/xlink" x="0px" y="0px"
	 viewBox="0 0 1364 960" style="enable-background:new 0 0 1364 960;" xml:space="preserve">
<g>
	<circle style="fill:#D6F8FF;" cx="966.583" cy="315.469" r="216.969"/>
	
		<ellipse transform="matrix(0.7071 -0.7071 0.7071 0.7071 -303.0143 432.5811)" style="fill:#FFF7D7;" cx="370.664" cy="582.061" rx="216.969" ry="216.969"/>
	<g>
		<path style="fill:#FCCA01;" d="M882.526,847.788H547.889v-23.667c0-6.367,5.161-11.529,11.528-11.529h311.58
			c6.367,0,11.528,5.161,11.528,11.529V847.788z"/>
		<polygon style="fill:#272A38;" points="771.484,812.588 658.934,812.588 666.494,730.932 669.202,701.643 671.217,679.952 
			759.201,679.952 761.216,701.643 763.924,730.932 		"/>
		<g>
			<rect x="330.115" y="229.925" style="fill:#272A38;" width="770.184" height="422.995"/>
			<rect x="338.458" y="237.916" style="fill:#FFFFFF;" width="753.498" height="401.229"/>
			<g>
				<path style="fill:#EDD8E2;" d="M689.076,385.369c0.374,14.438,12.372,25.839,26.811,25.464
					c14.429-0.374,25.829-12.381,25.455-26.819c-0.374-14.43-12.381-25.829-26.81-25.455
					C700.093,358.933,688.702,370.94,689.076,385.369z"/>
				<path style="fill:#EDD8E2;" d="M695.304,277.808l-6.777,23.234c-0.001,0-0.002,0.001-0.004,0.001
					c-6.206,1.971-12.131,4.631-17.645,7.864l-22.019-10.386c-3.727-1.758-8.161-0.927-10.999,2.062l-10.86,11.438
					c-2.859,3.012-3.444,7.526-1.448,11.167l11.65,21.244l0,0.015c-2.945,5.678-5.278,11.697-6.926,18.001c0,0,0,0,0,0
					l-22.918,8.228c-3.878,1.393-6.427,5.116-6.32,9.235l0.409,15.767c0.108,4.151,2.886,7.757,6.873,8.92l23.262,6.784
					c0.001,0.002,0.001,0.004,0.002,0.007c1.953,6.21,4.595,12.101,7.831,17.618c0.002,0.004,0.005,0.008,0.007,0.012
					l-10.388,22.023c-1.758,3.727-0.927,8.162,2.062,10.999l11.438,10.86c3.011,2.859,7.526,3.444,11.167,1.448l21.216-11.635
					c5.693,2.943,11.728,5.274,18.047,6.92l8.224,22.909c1.393,3.879,5.116,6.426,9.235,6.319l15.767-0.409
					c4.151-0.108,7.757-2.886,8.92-6.872l6.776-23.231c0.002-0.001,0.004-0.001,0.006-0.002c6.208-1.971,12.132-4.631,17.648-7.865
					l22.014,10.383c3.727,1.758,8.162,0.927,10.999-2.062l10.86-11.438c2.859-3.011,3.445-7.526,1.448-11.167l-11.647-21.238
					c2.945-5.677,5.278-11.696,6.906-17.999l0-0.017l22.935-8.234c3.878-1.392,6.426-5.116,6.319-9.235l-0.409-15.767
					c-0.108-4.151-2.886-7.757-6.872-8.92l-23.24-6.778c-0.001-0.004-0.002-0.007-0.003-0.011c-1.972-6.21-4.614-12.12-7.849-17.618
					c-0.003-0.005-0.006-0.01-0.01-0.015l10.388-22.023c1.758-3.727,0.927-8.162-2.061-10.999l-11.438-10.86
					c-3.012-2.859-7.526-3.445-11.167-1.448l-21.218,11.636c-5.693-2.943-11.727-5.273-18.045-6.919l-8.225-22.911
					c-1.392-3.879-5.116-6.427-9.236-6.32l-15.767,0.409C700.073,271.043,696.467,273.821,695.304,277.808z M777.965,383.059
					c0.899,34.657-26.472,63.485-61.129,64.383c-34.657,0.899-63.485-26.471-64.384-61.129
					c-0.899-34.657,26.473-63.466,61.13-64.365C748.239,321.05,777.066,348.402,777.965,383.059z"/>
			</g>
			<path style="fill:#FCCA01;" d="M815.804,546.081H618.236c-5.134,0-9.295,4.161-9.295,9.295v32.985
				c0,5.134,4.162,9.295,9.295,9.295h197.568c5.133,0,9.295-4.161,9.295-9.295v-32.985
				C825.099,550.242,820.938,546.081,815.804,546.081z"/>
			<g>
				<path d="M671.448,576.557h-8.435v-14.426c0-0.489,0.143-0.869,0.428-1.141c0.285-0.271,0.658-0.489,1.121-0.652
					c0.869-0.271,1.901-0.475,3.097-0.611c1.195-0.136,2.308-0.204,3.341-0.204c3.586,0,6.269,0.761,8.048,2.282
					c1.779,1.522,2.669,3.586,2.669,6.194c0,1.739-0.394,3.247-1.181,4.523c-0.789,1.277-1.943,2.269-3.464,2.975
					C675.55,576.204,673.675,576.557,671.448,576.557z M663.013,574.234h5.175v10.514c-0.218,0.081-0.55,0.156-0.998,0.224
					c-0.448,0.067-0.917,0.102-1.406,0.102c-0.978,0-1.685-0.183-2.119-0.55c-0.435-0.367-0.652-0.984-0.652-1.854V574.234z
					 M668.147,572.442h3.016c1.657,0,2.961-0.374,3.912-1.121c0.951-0.747,1.426-1.84,1.426-3.281c0-1.467-0.455-2.553-1.365-3.26
					c-0.911-0.706-2.207-1.06-3.891-1.06c-0.598,0-1.155,0.021-1.671,0.061c-0.516,0.041-0.992,0.102-1.426,0.183V572.442z"/>
				<path d="M693.616,574.438h-5.175v-14.345c0.244-0.054,0.591-0.122,1.039-0.204c0.448-0.081,0.903-0.122,1.365-0.122
					c0.978,0,1.684,0.17,2.119,0.51c0.434,0.34,0.652,0.971,0.652,1.895V574.438z M688.441,568.651h5.175v15.893l-2.404,0.326
					c-0.842,0-1.515-0.251-2.017-0.754c-0.503-0.502-0.753-1.161-0.753-1.976V568.651z M691.212,584.871v-4.238h12.959
					c0.163,0.217,0.306,0.503,0.428,0.856c0.123,0.353,0.184,0.747,0.184,1.182c0,0.734-0.17,1.284-0.509,1.651
					c-0.34,0.367-0.795,0.55-1.365,0.55H691.212z"/>
				<path d="M721,564.291h-0.204c-0.353,0.978-0.74,2.093-1.161,3.342c-0.422,1.25-0.863,2.547-1.325,3.892
					c-0.462,1.345-0.897,2.643-1.304,3.892l-0.57,2.526c-0.163,0.516-0.333,1.087-0.509,1.712c-0.177,0.625-0.367,1.257-0.57,1.895
					c-0.204,0.639-0.394,1.243-0.571,1.813c-0.177,0.57-0.333,1.074-0.469,1.508c-0.272,0.081-0.564,0.156-0.876,0.224
					c-0.312,0.068-0.686,0.102-1.121,0.102c-0.87,0-1.556-0.17-2.058-0.509c-0.503-0.34-0.754-0.849-0.754-1.528
					c0-0.299,0.047-0.611,0.143-0.938c0.095-0.326,0.197-0.693,0.306-1.1c0.271-0.896,0.638-2.017,1.1-3.362
					c0.462-1.345,0.964-2.805,1.508-4.381c0.543-1.575,1.107-3.164,1.691-4.768c0.583-1.603,1.134-3.104,1.65-4.503
					c0.516-1.399,0.964-2.574,1.344-3.525c0.326-0.19,0.828-0.367,1.508-0.53c0.679-0.163,1.372-0.244,2.078-0.244
					c0.923,0,1.773,0.136,2.547,0.407c0.775,0.272,1.256,0.707,1.447,1.304c0.571,1.494,1.182,3.206,1.834,5.135
					c0.652,1.929,1.317,3.939,1.997,6.031c0.679,2.092,1.331,4.13,1.956,6.113c0.624,1.983,1.181,3.776,1.671,5.379
					c-0.272,0.299-0.646,0.544-1.121,0.733c-0.476,0.19-1.026,0.285-1.65,0.285c-0.897,0-1.543-0.17-1.936-0.509
					c-0.394-0.34-0.7-0.862-0.917-1.569l-1.671-5.338l-0.53-2.608c-0.435-1.385-0.863-2.75-1.284-4.096
					c-0.422-1.344-0.822-2.601-1.202-3.769C721.598,566.139,721.272,565.133,721,564.291z M714.154,578.921l1.916-4.035h10.188
					l0.774,4.035H714.154z"/>
				<path d="M747.571,576.517h-4.564c-0.734-1.06-1.515-2.234-2.343-3.525c-0.829-1.29-1.651-2.615-2.466-3.973
					c-0.815-1.358-1.583-2.683-2.303-3.973c-0.72-1.29-1.324-2.466-1.813-3.525c0.245-0.38,0.591-0.747,1.039-1.1
					c0.448-0.353,1.012-0.53,1.691-0.53c0.76,0,1.378,0.177,1.854,0.53c0.475,0.353,0.93,0.964,1.365,1.834
					c0.38,0.679,0.795,1.426,1.243,2.241c0.448,0.815,0.903,1.65,1.366,2.506c0.461,0.856,0.91,1.685,1.344,2.486
					c0.434,0.801,0.828,1.515,1.182,2.139h0.203c0.734-1.385,1.406-2.669,2.017-3.851c0.611-1.182,1.202-2.37,1.773-3.566
					c0.571-1.195,1.154-2.459,1.752-3.79c0.326-0.163,0.693-0.292,1.1-0.388c0.407-0.095,0.801-0.143,1.182-0.143
					c0.706,0,1.29,0.191,1.753,0.571c0.461,0.381,0.693,0.924,0.693,1.63c0,0.299-0.157,0.809-0.469,1.528
					c-0.313,0.72-0.794,1.664-1.447,2.832c-0.652,1.168-1.487,2.588-2.506,4.259C750.199,572.38,748.983,574.316,747.571,576.517z
					 M742.762,574.52h5.053v10.229c-0.218,0.081-0.55,0.156-0.998,0.224c-0.448,0.067-0.89,0.102-1.324,0.102
					c-1.005,0-1.712-0.177-2.119-0.53c-0.408-0.353-0.611-0.964-0.611-1.834V574.52z"/>
				<path d="M758.044,582.344c0-0.869,0.271-1.603,0.815-2.201c0.543-0.597,1.29-0.896,2.241-0.896c0.951,0,1.698,0.299,2.241,0.896
					c0.543,0.598,0.815,1.332,0.815,2.201c0,0.87-0.272,1.603-0.815,2.2c-0.544,0.597-1.291,0.897-2.241,0.897
					c-0.952,0-1.698-0.299-2.241-0.897C758.314,583.947,758.044,583.214,758.044,582.344z"/>
				<path d="M768.19,582.344c0-0.869,0.271-1.603,0.815-2.201c0.543-0.597,1.29-0.896,2.241-0.896c0.951,0,1.698,0.299,2.241,0.896
					c0.543,0.598,0.815,1.332,0.815,2.201c0,0.87-0.272,1.603-0.815,2.2c-0.544,0.597-1.291,0.897-2.241,0.897
					c-0.952,0-1.698-0.299-2.241-0.897C768.46,583.947,768.19,583.214,768.19,582.344z"/>
				<path d="M778.335,582.344c0-0.869,0.271-1.603,0.815-2.201c0.543-0.597,1.29-0.896,2.241-0.896c0.951,0,1.698,0.299,2.241,0.896
					c0.543,0.598,0.815,1.332,0.815,2.201c0,0.87-0.272,1.603-0.815,2.2c-0.544,0.597-1.291,0.897-2.241,0.897
					c-0.952,0-1.698-0.299-2.241-0.897C778.606,583.947,778.335,583.214,778.335,582.344z"/>
			</g>
			<rect x="451.748" y="459.364" style="fill:#EDD8E2;" width="102.495" height="5.176"/>
			<rect x="451.748" y="292.132" style="fill:#EDD8E2;" width="102.495" height="5.176"/>
			<rect x="451.748" y="485.233" style="fill:#EDD8E2;" width="102.495" height="5.176"/>
			<rect x="883.534" y="556.251" style="fill:#EDD8E2;" width="102.495" height="5.176"/>
			<rect x="883.534" y="578.55" style="fill:#EDD8E2;" width="102.495" height="5.176"/>
			<path style="fill:#EDD8E2;" d="M461.413,511.102h83.164c5.066,0,9.173,4.107,9.173,9.173v63.909c0,5.066-4.107,9.173-9.173,9.173
				h-83.164c-5.066,0-9.173-4.107-9.173-9.173v-63.909C452.241,515.208,456.347,511.102,461.413,511.102z"/>
			
				<ellipse transform="matrix(0.2268 -0.9739 0.9739 0.2268 -148.9257 916.8654)" style="fill:#FFFFFF;" cx="502.995" cy="552.229" rx="30.288" ry="30.288"/>
			
				<ellipse transform="matrix(0.2284 -0.9736 0.9736 0.2284 -149.5169 915.8064)" style="fill:#EDD8E2;" cx="502.995" cy="552.229" rx="13.927" ry="13.927"/>
		</g>
		<rect x="330.115" y="649.404" style="fill:#FCCA01;" width="770.184" height="52.233"/>
		<circle style="fill:#FFFFFF;" cx="718.22" cy="675.521" r="11.049"/>
		<circle style="fill:#FFFFFF;" cx="659.875" cy="675.521" r="11.049"/>
		<circle style="fill:#FFFFFF;" cx="771.484" cy="675.521" r="11.049"/>
	</g>
	<g>
		<g>
			<polygon style="fill:#FF9178;" points="296.23,785.688 266.252,785.688 266.917,815.51 296.896,815.51 			"/>
		</g>
		<g>
			<path style="fill:#35394D;" d="M307.973,843.766c7.084-7.333,2.489-37.716-23.883-39.013
				c-26.476-0.372-35.091,32.103-25.893,39.763C259.478,845.352,300.373,846.048,307.973,843.766z"/>
			<g>
				<path style="fill:#FFFFFF;" d="M294.078,819.811c-0.207,0-0.417-0.044-0.609-0.138c-9.763-4.761-18.496-0.801-18.863-0.631
					c-0.59,0.276-1.327,0.096-1.652-0.395c-0.325-0.493-0.116-1.114,0.468-1.389c0.415-0.194,10.272-4.709,21.268,0.647
					c0.58,0.284,0.779,0.908,0.441,1.397C294.905,819.629,294.497,819.811,294.078,819.811z"/>
			</g>
			<g>
				<path style="fill:#FFFFFF;" d="M294.079,812.341c-0.207,0-0.417-0.044-0.609-0.138c-9.802-4.779-18.773-0.673-18.862-0.633
					c-0.586,0.273-1.325,0.1-1.654-0.393c-0.328-0.493-0.117-1.116,0.469-1.391c0.415-0.192,10.28-4.703,21.267,0.649
					c0.58,0.284,0.779,0.908,0.442,1.398C294.906,812.16,294.498,812.341,294.079,812.341z"/>
			</g>
			<path style="fill:#FCCA01;" d="M307.092,849.591h-48.59c-2.644,0-4.787-2.143-4.787-4.787l0,0c0-2.644,2.143-4.787,4.787-4.787
				h48.59c2.644,0,4.787,2.143,4.787,4.787l0,0C311.879,847.448,309.736,849.591,307.092,849.591z"/>
		</g>
		<g>
			<path style="fill:#FF9178;" d="M372.857,784.132l-30.833,4.891l5.357,29.344c11.664,1.364,22.372,0.661,30.833-4.891
				L372.857,784.132z"/>
		</g>
		<g>
			<path style="fill:#35394D;" d="M376.434,804.277c1.651-0.047,25.855-0.355,37.056,17.769c3.999,6.47,4.946,13.034,5.11,17.371
				c-6.53-0.003-79.704-0.034-79.709-0.034h0l5.851-33.643C344.741,805.74,364.244,818.417,376.434,804.277z"/>
			<path style="fill:#FCCA01;" d="M340.421,848.801h77.059c2.413,0,4.368-1.956,4.368-4.368v-0.647c0-2.413-1.956-4.368-4.368-4.368
				h-77.059c-2.413,0-4.368,1.956-4.368,4.368v0.647C336.052,846.845,338.008,848.801,340.421,848.801z"/>
			<g>
				<path style="fill:#FFFFFF;" d="M396.632,824.438c-0.128,0-0.259-0.021-0.387-0.066c-0.604-0.214-0.921-0.877-0.707-1.481
					c3.655-10.332,8.251-11.438,8.763-11.53c0.635-0.112,1.234,0.306,1.348,0.937c0.112,0.622-0.295,1.218-0.911,1.342
					c-0.123,0.032-3.852,1.093-7.012,10.024C397.558,824.141,397.11,824.438,396.632,824.438z"/>
			</g>
			<g>
				<path style="fill:#FFFFFF;" d="M387.29,819.672c-0.128,0-0.259-0.021-0.387-0.067c-0.604-0.214-0.921-0.877-0.707-1.481
					c3.656-10.332,8.251-11.437,8.763-11.529c0.635-0.109,1.234,0.306,1.348,0.937c0.112,0.622-0.295,1.218-0.911,1.342
					c-0.125,0.032-3.853,1.094-7.012,10.024C388.215,819.375,387.768,819.672,387.29,819.672z"/>
			</g>
		</g>
		<path style="fill:#FF618E;" d="M285.423,596.716c0,0-31.395,196.651-27.603,198.045c3.792,1.395,54.33,4.899,53.138,0.715
			c-1.192-4.184,11.412-198.688,11.412-198.688L285.423,596.716z"/>
		<path style="fill:#FF618E;" d="M345.93,597.133c0,0,2.43,2.295,4.015,8.129c1.585,5.834,38.397,184.582,36.812,187.29
			c-1.585,2.709-45.948,5.703-50.705,4.036c-4.756-1.667-20.166-182.159-20.166-182.159l4.162-20.627L345.93,597.133z"/>
		<polygon style="fill:#DB2762;" points="317.69,633.646 325.534,658.459 322.37,686.067 		"/>
		<g>
			<path style="fill:#FF9178;" d="M323.755,498.579c-2.755,10.089-6.547,17.656-9.745,17.386c-3.551-0.299-6.831-10.294-6.7-17.386
				c0.028-1.5,0.269-6.191,0.552-11.69c0.072-1.403,0.133-2.558,0.175-3.323l15.225,0.402l0.129,3.536
				C323.511,491.195,323.633,494.887,323.755,498.579z"/>
			<path style="fill:#E04138;" d="M323.39,487.503c-1.517,4.32-4.364,8.3-7.888,8.204c-3.586-0.096-6.328-4.378-7.64-8.818
				l0.175-3.323l15.225,0.402L323.39,487.503z"/>
			<path style="fill:#FF9178;" d="M328.148,476.343c-0.74,6.513-5.758,15.542-12.597,15.387c-6.69-0.151-11.275-9.001-11.815-15.387
				c-0.153-1.808-0.649-7.669,3.654-11.191c3.355-2.746,7.749-2.535,9.336-2.458c1.655,0.079,5.564,0.267,8.453,2.945
				C328.966,469.147,328.359,474.483,328.148,476.343z"/>
			<path style="fill:#FF9178;" d="M330.826,477.695c0,1.923-1.659,3.481-3.704,3.481c-2.046,0-3.704-1.559-3.704-3.481
				c0-1.923,1.659-3.481,3.704-3.481C329.168,474.213,330.826,475.772,330.826,477.695z"/>
			<path style="fill:#FF9178;" d="M308.535,477.695c0,1.923-1.659,3.481-3.704,3.481c-2.046,0-3.704-1.559-3.704-3.481
				c0-1.923,1.658-3.481,3.704-3.481C306.876,474.213,308.535,475.772,308.535,477.695z"/>
			<path style="fill:#272A38;" d="M330.851,466.218c-0.028,0.738-0.13,1.283-0.175,1.512c-0.788,1.909-1.573,3.82-2.361,5.73
				c-0.61,3.199-0.932,3.853-1.115,3.84c-0.205-0.018-0.299-0.886-0.455-2.43c-0.141-1.377-0.2-2.511-0.23-3.288
				c-0.405-0.998-0.81-2-1.215-3.001c-1.398,0.331-3.029,0.623-4.866,0.787c-2.35,0.209-4.433,0.151-6.159,0
				c-0.43-0.524-0.86-1.048-1.293-1.572c-0.05,0.501-0.1,0.999-0.152,1.499c-0.699,0.068-1.551,0.094-2.508,0
				c-0.779-0.076-1.484-0.216-2.103-0.383c-0.449-0.12-0.852-0.258-1.209-0.394c-0.008-0.003-0.017-0.005-0.025-0.008
				c-0.003-0.003-0.008-0.003-0.011-0.005c-0.12-0.047-0.236-0.091-0.347-0.138c0,0-0.011,0.016-0.031,0.047
				c-0.166,0.282-1.057,1.796-1.293,2.667c-0.2,0.74-0.056,0.858-0.105,2.432c-0.008,0.282-0.111,3.538-0.502,3.569
				c-0.167,0.016-0.472-0.56-1.06-3.559c-0.497-2.534-0.991-5.068-1.487-7.603c0-0.164,0.003-0.365,0.014-0.597
				c0.075-1.345,0.466-3.718,2.306-5.746c2.888-3.186,8.164-4.205,13.152-2.43c4.4-1.184,8.958,0.13,11.404,3.217
				C330.657,462.427,330.906,464.719,330.851,466.218z"/>
			<path style="fill:#272A38;" d="M307.009,468.518v0.003c-0.008-0.003-0.017-0.005-0.025-0.008
				C306.993,468.512,307.001,468.515,307.009,468.518z"/>
			<path style="fill:#FFFFFF;" d="M312.313,484.59c0,0,4.566,1.321,6.852-0.761C319.165,483.829,316.439,492.964,312.313,484.59z"/>
			<path style="fill:#272A38;" d="M318.787,472.525c1.341-0.502,4.66,0.015,5.155,2.358c-0.824-0.772-2.731-1.584-4.572-0.93
				C318.588,474.231,318.491,472.635,318.787,472.525z"/>
			<path style="fill:#272A38;" d="M312.424,472.372c-1.273-0.656-4.629-0.532-5.396,1.737c0.908-0.67,2.898-1.253,4.649-0.387
				C312.421,474.089,312.705,472.516,312.424,472.372z"/>
			<g>
				<path style="fill:#272A38;" d="M308.985,476.579c0.039-0.769,0.693-1.36,1.462-1.322c0.769,0.039,1.36,0.693,1.322,1.462
					c-0.039,0.769-0.693,1.36-1.462,1.322C309.538,478.003,308.947,477.348,308.985,476.579z"/>
				<path style="fill:#272A38;" d="M310.402,475.256c-1.06,0.001-1.258,0.914-2.343,0.814
					C308.348,476.405,309.86,476.823,310.402,475.256z"/>
				<path style="fill:#FFFFFF;" d="M309.584,476.353c0.009-0.181,0.163-0.32,0.344-0.31c0.181,0.009,0.32,0.163,0.311,0.343
					c-0.009,0.181-0.163,0.32-0.344,0.311C309.714,476.688,309.575,476.534,309.584,476.353z"/>
			</g>
			<g>
				<path style="fill:#272A38;" d="M321.932,477.288c0.037-0.769-0.556-1.422-1.325-1.459c-0.769-0.037-1.422,0.556-1.459,1.325
					c-0.037,0.769,0.556,1.422,1.325,1.459C321.242,478.65,321.895,478.056,321.932,477.288z"/>
				<path style="fill:#272A38;" d="M320.652,475.831c1.055,0.105,1.163,1.033,2.252,1.04
					C322.583,477.176,321.038,477.444,320.652,475.831z"/>
				<path style="fill:#FFFFFF;" d="M321.359,477.003c0.009-0.181-0.131-0.334-0.311-0.343c-0.181-0.009-0.334,0.131-0.343,0.311
					c-0.009,0.181,0.131,0.334,0.311,0.343C321.196,477.323,321.35,477.184,321.359,477.003z"/>
			</g>
			<path style="fill:#E04138;" d="M314.398,478.798c0.114-0.167,0.329-0.242,0.512-0.134c0.165,0.097,0.25,0.345,0.134,0.512
				c-0.396,0.576-0.974,1.373-0.645,2.108c0.313,0.701,1.252,0.78,1.911,0.84c0.202,0.018,0.374,0.159,0.374,0.374
				c0,0.188-0.172,0.393-0.374,0.374c-0.939-0.085-2.094-0.256-2.558-1.211C313.262,480.651,313.826,479.632,314.398,478.798z"/>
		</g>
		<path style="fill:#0E153C;" d="M345.438,587.486c0,0,1.138,0.367,0.968,4.444c-0.17,4.077-0.475,5.492-0.475,5.492l-60.507-0.453
			c0,0-1.235-5.547,0.204-9.483H345.438z"/>
		<path style="fill:#4DBCF0;" d="M353.121,515.339c-3.817-11.627-29.366-16.76-29.366-16.76c-1.259,2.648-2.685,5.429-4.302,8.305
			c-1.639,2.917-3.296,5.616-4.926,8.097c-1.475-2.469-3.002-5.359-4.416-8.663c-1.179-2.755-2.091-5.36-2.801-7.738
			c-7.782,1.3-25.962,5.233-29.367,16.76c-0.66,2.235-0.51,3.881,0.281,9.157c4.842,32.277,8.597,33.896,7.511,45.185
			c-0.761,7.91-3.433,15.732-0.108,17.805c0.773,0.482,1.452,0.392,3.393,0.276c5.225-0.311,10.471,0.153,15.703,0
			c2.375-0.069,6.039-0.171,10.625-0.276c6.796,0.029,13.619,0.038,20.469,0.028c3.213-0.005,6.42-0.014,9.621-0.028
			c0.525-0.467,1.272-1.206,1.987-2.237c3.635-5.25,1.768-11.816,1.439-16.307C346.527,537.078,357.731,529.382,353.121,515.339z"/>
		<path style="fill:#FF9178;" d="M348.125,569.088c-2.159-2.526-17.929,3.767-17.929,3.767l11.774,3.812
			C341.971,576.667,350.284,571.614,348.125,569.088z"/>
		<circle style="fill:#FFFFFF;" cx="314.916" cy="518.853" r="1.019"/>
		<circle style="fill:#FFFFFF;" cx="314.916" cy="534.745" r="1.019"/>
		<circle style="fill:#FFFFFF;" cx="315.546" cy="550.353" r="1.019"/>
		<circle style="fill:#FFFFFF;" cx="315.206" cy="566.433" r="1.019"/>
		<circle style="fill:#FFFFFF;" cx="314.187" cy="581.042" r="1.019"/>
		<path style="fill:#4DBCF0;" d="M347.046,507.906c4.471,3.531,9.181,7.615,13.956,12.321c8.258,8.14,14.772,16.23,19.861,23.485
			c-7.426,8.328-14.852,16.656-22.277,24.983c-5.259-6.291-10.518-12.583-15.777-18.874
			C344.222,535.85,345.634,521.878,347.046,507.906z"/>
		<g>
			<path style="fill:#FCCA01;" d="M346.882,596.711h69.698c1.269,0,2.297-1.029,2.297-2.297v-51.434
				c0-1.269-1.029-2.297-2.297-2.297h-69.698c-1.269,0-2.297,1.029-2.297,2.297v51.434
				C344.584,595.682,345.613,596.711,346.882,596.711z"/>
			<rect x="347.984" y="543.612" style="fill:#35394D;" width="67.494" height="48.843"/>
			<polygon style="fill:#FFFFFF;" points="380.863,554.112 384.866,562.224 393.818,563.525 387.341,569.839 388.87,578.754 
				380.863,574.545 372.856,578.754 374.386,569.839 367.908,563.525 376.86,562.224 			"/>
		</g>
		<path style="fill:#FF9178;" d="M275.694,595.847c3.004-5.282,5.953-55.007,13.032-78.014
			c-8.768-1.929-19.527,17.639-28.295,15.711c-8.615,21.764-15.547,25.156-19.486,57.443
			C238.32,612.494,265.899,613.067,275.694,595.847z"/>
		<path style="fill:#FF9178;" d="M255.03,576.795c13.566-3.467,47.909-3.436,62.412-4.079c0.142,8.976,1.227,16.634,1.368,25.61
			c-18.026,4.202-39.626,11.382-65.072,9.684C238.56,606.998,233.975,582.177,255.03,576.795z"/>
		<path style="fill:#4DBCF0;" d="M294.3,501.823c0,0-24.865,3.554-30.98,17.03c-6.115,13.476-14.742,39.344-14.742,39.344
			c9.247,11.068,24.416,13.359,40.613,14.126C289.19,572.323,310.985,501.898,294.3,501.823z"/>
		<g>
			<g>
				<g>
					<path style="fill:#FF9178;" d="M345.536,603.701c-0.719-0.079-1.415-0.397-1.961-0.953l-10.272-9.727
						c-1.259-1.281-1.24-3.34,0.041-4.599c1.281-1.259,3.34-1.241,4.599,0.041l10.272,9.727c1.259,1.281,1.24,3.34-0.041,4.599
						C347.449,603.502,346.474,603.805,345.536,603.701z"/>
				</g>
				<g>
					<path style="fill:#FF9178;" d="M339.603,574.891c-3.384-1.914-19.432-3.276-22.161-2.174l-7.491,23.291
						c13.544,6.446,18.644,0.18,28.374,1.28C343.748,597.902,339.603,574.891,339.603,574.891z"/>
				</g>
				<g>
					<path style="fill:#FF9178;" d="M350.892,598.929c-0.639-0.071-1.264-0.331-1.784-0.787l-12.326-9.418
						c-1.351-1.184-1.486-3.239-0.302-4.589c1.184-1.351,3.239-1.486,4.589-0.302l12.326,9.418c1.351,1.184,1.486,3.239,0.302,4.589
						C352.969,598.671,351.912,599.042,350.892,598.929z"/>
				</g>
				<g>
					<path style="fill:#FF9178;" d="M356.239,595.828c-0.629-0.069-1.243-0.322-1.759-0.766l-14.123-10.665
						c-1.362-1.171-1.518-3.224-0.347-4.586c1.17-1.362,3.224-1.518,4.586-0.347l14.123,10.665c1.362,1.171,1.518,3.224,0.347,4.586
						C358.338,595.561,357.27,595.942,356.239,595.828z"/>
				</g>
				<g>
					<path style="fill:#FF9178;" d="M358.45,589.88c-0.664,0.002-1.208-0.136-6.824-3.412c-9.515-5.551-12.467-5.333-12.859-5.269
						c-3.384,2.342-7.101-2.966-3.711-5.34c3.388-2.467,8.949-0.492,19.038,4.523c4.387,2.18,6.092,3.086,6.323,3.253
						C363.243,585.293,361.463,589.918,358.45,589.88z"/>
				</g>
				<g>
					<path style="fill:#E04138;" d="M344.342,594.919c-0.051-0.021-0.095-0.058-0.126-0.108l-5.045-3.759
						c-0.079-0.127-0.039-0.294,0.089-0.373c0.127-0.078,0.294-0.038,0.373,0.089l5.045,3.759c0.078,0.127,0.039,0.294-0.089,0.373
						C344.512,594.947,344.42,594.951,344.342,594.919z"/>
				</g>
				<g>
					<path style="fill:#E04138;" d="M354.694,595.397c-0.057-0.006-0.112-0.031-0.157-0.073c-5.036-4.802-6.909-5.359-12.645-9.26
						c-0.124-0.084-0.156-0.253-0.072-0.376c0.084-0.124,0.253-0.157,0.377-0.072c5.768,3.923,7.663,4.499,12.714,9.316
						c0.108,0.103,0.112,0.275,0.009,0.383C354.859,595.378,354.775,595.406,354.694,595.397z"/>
				</g>
				<g>
					<path style="fill:#E04138;" d="M358.636,590.166c-0.053-0.006-0.106-0.028-0.149-0.066c-0.173-0.153-12.73-9.843-16.641-10.065
						c-0.148-0.011-0.263-0.138-0.254-0.287c0.009-0.149,0.138-0.263,0.288-0.254c4.108,0.275,16.253,9.571,16.965,10.199
						c0.112,0.099,0.123,0.27,0.024,0.383C358.809,590.144,358.721,590.175,358.636,590.166z"/>
				</g>
			</g>
		</g>
		<g>
			<path style="fill:#FF9178;" d="M410.858,563.973c0,0,11.702-2.077,15.27,1.258c3.875,3.621,2.925,27.262,0.293,29.368
				c-6.055,4.844-12.085,2.483-14.011,2.481c-4.611,0.12-5.898-6.722-1.645-8.323c-4.533,0.172-5.973-6.471-1.879-8.23
				c-4.829-0.394-5.057-7.81-0.3-8.536C404.895,569.939,406.563,563.799,410.858,563.973z"/>
			<g>
				<path style="fill:#E04138;" d="M423.731,572.852c-0.003,0-0.006,0-0.009,0l-15.052-0.462c-0.199-0.006-0.356-0.173-0.35-0.372
					c0.006-0.199,0.172-0.343,0.372-0.35l15.052,0.462c0.199,0.006,0.356,0.173,0.35,0.372
					C424.088,572.698,423.926,572.853,423.731,572.852z"/>
			</g>
			<g>
				<path style="fill:#E04138;" d="M423.685,580.968l-14.797-0.084c-0.199-0.001-0.36-0.164-0.359-0.363
					c0.001-0.2,0.164-0.36,0.363-0.359l14.797,0.084c0.199,0.001,0.36,0.164,0.359,0.363
					C424.046,580.809,423.884,580.969,423.685,580.968z"/>
			</g>
			<g>
				<path style="fill:#E04138;" d="M423.638,589.203l-12.923-0.073c-0.199-0.001-0.36-0.164-0.359-0.363
					c0.001-0.2,0.164-0.36,0.363-0.359l12.923,0.073c0.199,0.001,0.36,0.164,0.359,0.363
					C424,589.044,423.837,589.204,423.638,589.203z"/>
			</g>
		</g>
		<path style="fill:#2092C7;" d="M286.183,536.104l-8.656,35.272l8.038,0.746C284.313,565.141,285.07,550.698,286.183,536.104z"/>
		<g>
			<path style="fill:#FCCA01;" d="M334.577,476.318c-0.286,4.147-2.314,7.384-4.53,7.232c-2.216-0.153-3.781-3.638-3.496-7.784
				c0.286-4.146,2.314-7.384,4.53-7.232C333.298,468.687,334.863,472.172,334.577,476.318z"/>
			
				<ellipse transform="matrix(0.9976 -0.0687 0.0687 0.9976 -31.9324 21.8542)" style="fill:#FCCA01;" cx="301.815" cy="475.256" rx="4.022" ry="7.526"/>
			<g>
				<path style="fill:#FCCA01;" d="M331.354,469.885h-1.58c0-7.608-6.19-13.798-13.798-13.798c-7.608,0-13.798,6.19-13.798,13.798
					h-1.58c0-8.48,6.898-15.378,15.378-15.378C324.456,454.507,331.354,461.405,331.354,469.885z"/>
			</g>
		</g>
	</g>
	<g>
		<ellipse style="fill:#FCCA01;" cx="1027.982" cy="91.939" rx="3.273" ry="6.03"/>
		<g>
			<path style="fill:#FF9178;" d="M922.453,294.72l28.089,11.483l-12.083,27.777c-11.393-1.175-21.385-4.181-28.089-11.483
				L922.453,294.72z"/>
		</g>
		<g>
			<path style="fill:#35394D;" d="M913.549,314.951c-1.677-0.047-26.256-0.361-37.631,18.044c-4.061,6.571-5.022,13.236-5.189,17.64
				c6.631-0.003,80.94-0.034,80.945-0.034l0,0l-5.942-34.165C945.734,316.437,925.928,329.31,913.549,314.951z"/>
			<path style="fill:#FCCA01;" d="M950.121,360.165h-78.254c-2.45,0-4.436-1.986-4.436-4.436v-0.657c0-2.45,1.986-4.436,4.436-4.436
				h78.254c2.45,0,4.436,1.986,4.436,4.436v0.657C954.557,358.179,952.571,360.165,950.121,360.165z"/>
			<g>
				<path style="fill:#FFFFFF;" d="M893.038,335.425c0.13,0,0.263-0.022,0.393-0.068c0.614-0.217,0.935-0.891,0.718-1.504
					c-3.712-10.492-8.379-11.615-8.899-11.709c-0.644-0.113-1.253,0.311-1.369,0.951c-0.114,0.632,0.299,1.237,0.925,1.363
					c0.125,0.033,3.912,1.11,7.12,10.18C892.098,335.123,892.552,335.425,893.038,335.425z"/>
			</g>
			<g>
				<path style="fill:#FFFFFF;" d="M902.525,330.584c0.13,0,0.263-0.021,0.393-0.068c0.614-0.217,0.935-0.891,0.718-1.504
					c-3.712-10.492-8.379-11.614-8.899-11.708c-0.644-0.111-1.253,0.311-1.368,0.951c-0.114,0.632,0.299,1.237,0.925,1.363
					c0.127,0.033,3.912,1.111,7.121,10.179C901.585,330.283,902.039,330.584,902.525,330.584z"/>
			</g>
		</g>
		<path style="fill:#F2A200;" d="M978.37,255.756l51.57-20.537c31.197-12.424,13.969-55.682-17.227-43.259l-51.57,20.537
			C934.084,223.273,951.312,266.532,978.37,255.756z"/>
		<path style="fill:#F2A200;" d="M955.228,315.433l30.483-63.515c18.44-38.423-23.539-58.569-41.979-20.147l-30.483,63.515
			L955.228,315.433z"/>
		<g>
			<polygon style="fill:#FF9178;" points="994.302,315.127 1022.57,303.827 1033.183,332.198 1004.915,343.498 			"/>
		</g>
		<g>
			<path style="fill:#35394D;" d="M999.228,325.909c-1.669,0.164-26.092,2.956-35.052,22.649
				c-3.199,7.031-3.312,13.764-2.921,18.154c6.578-0.84,80.288-10.249,80.294-10.25h0l-10.206-33.142
				C1031.343,323.321,1013.32,338.591,999.228,325.909z"/>
			<path style="fill:#FCCA01;" d="M1041.214,366.146l-77.628,9.876c-2.43,0.309-4.651-1.41-4.961-3.841l-0.083-0.652
				c-0.309-2.43,1.41-4.651,3.841-4.96l77.628-9.876c2.43-0.309,4.651,1.41,4.961,3.841l0.083,0.652
				C1045.364,363.616,1043.644,365.837,1041.214,366.146z"/>
			<g>
				<path style="fill:#FFFFFF;" d="M981.464,348.807c0.129-0.017,0.258-0.055,0.381-0.117c0.581-0.293,0.815-1.001,0.523-1.582
					c-5.007-9.94-9.778-10.465-10.305-10.492c-0.654-0.031-1.204,0.466-1.238,1.116c-0.033,0.641,0.453,1.189,1.09,1.236
					c0.128,0.017,4.02,0.607,8.348,9.2C980.494,348.627,980.983,348.868,981.464,348.807z"/>
			</g>
			<g>
				<path style="fill:#FFFFFF;" d="M990.265,342.808c0.129-0.016,0.258-0.055,0.381-0.117c0.581-0.293,0.815-1.001,0.523-1.582
					c-5.007-9.94-9.778-10.464-10.305-10.491c-0.653-0.029-1.203,0.466-1.238,1.116c-0.033,0.641,0.453,1.189,1.09,1.236
					c0.13,0.017,4.021,0.608,8.348,9.199C989.295,342.628,989.783,342.869,990.265,342.808z"/>
			</g>
		</g>
		<path style="fill:#FCCA01;" d="M1010.647,253.27l49.16-19.578c29.739-11.843,12.512-55.102-17.227-43.259l-49.161,19.578
			C967.626,220.283,984.853,263.542,1010.647,253.27z"/>
		<path style="fill:#FCCA01;" d="M1030.475,310.781l-11.944-69.431c-7.225-42.002-53.114-34.108-45.889,7.894l11.943,69.431
			L1030.475,310.781z"/>
		<path style="fill:#272A38;" d="M1028.784,87.439c0,0-6.367-3.483-2.93-11.51c2.495-5.827,11.42-7.344,16.763-1.714
			c18.105-5.08,16.683,57.296,14.697,61.472c-6.428,13.518-31.313,3.072-28.684-2.972
			C1023.633,119.85,1028.784,87.439,1028.784,87.439z"/>
		<path style="fill:#FF9178;" d="M1044.362,115.325c-3.64-0.25-7.28-0.5-10.919-0.751c0.14-3.38,0.28-6.76,0.42-10.139l0.215-3.695
			l11.012-3.181l-0.173,4.769C1044.732,106.66,1044.547,110.992,1044.362,115.325z"/>
		<path style="fill:#E04138;" d="M1040.352,104.678c-1.927,2.113-4.92,3.658-6.489-0.243l0.215-3.695l10.17-2.031
			C1044.248,98.709,1041.944,102.932,1040.352,104.678z"/>
		<path style="fill:#FF9178;" d="M1047.495,94.053c-1.722,4.947-8.182,10.533-12.161,9.87c-2.21-0.368-5.427-4.677-5.777-5.605
			c-0.16-0.426-0.809-2.091-0.927-4.313c-0.396-7.418-0.753-14.111,3.822-17.217c3.756-2.549,9.896-2.043,13.293,1.122
			C1051.329,83.113,1048.005,92.622,1047.495,94.053z"/>
		<path style="fill:#FF9178;" d="M1047.314,90.529c0,0,1.887-1.607,2.615-0.316c0.728,1.292-0.208,6.528-3.897,6.371
			C1046.032,96.584,1046.913,90.565,1047.314,90.529z"/>
		<path style="fill:#FF618E;" d="M1007.581,154.504c0.021,11.342,0.898,21.703,2.901,30.793c7.308,3.053,14.209,4.441,20.943,4.586
			c12.219,0.27,23.872-3.543,36.347-8.807l1.824-33.487l1.727-31.836c0,0-0.007-0.007-0.014-0.007l0.014-0.339
			c-1.789-2.722-9.954-4.676-16.447-5.837c-4.538-1.023-8.807-1.416-12.841-1.416c-5.996,0-11.473,0.877-16.55,1.865
			c-0.345,0.007-10.735,3.02-12.799,5.872C1003.878,128.064,1007.56,141.649,1007.581,154.504z"/>
		<polygon style="fill:#FFFFFF;" points="1044.662,108.146 1033.727,108.648 1030,190.429 1046.86,190.429 		"/>
		<path style="fill:#FF618E;" d="M1004.142,120.532c-7.281,7.604-21.967,43.988-21.967,43.988l28.599,8.455l14.71-62.956
			C1020.669,111.181,1010.771,113.609,1004.142,120.532z"/>
		<path style="fill:#E02D67;" d="M1033.787,194.046c12.219,0.269,21.51-7.706,33.984-12.969l1.824-33.487l-17.697,0.704
			c0,0,11.891,10.389,8.06,19.188C1050.531,189.135,1033.787,194.046,1033.787,194.046z"/>
		<path style="fill:#FF9178;" d="M1033.727,108.648c0,0,0.968,5.943,4.761,5.86c3.595-0.08,5.956-2.715,6.174-6.362
			C1039.746,107.047,1036.984,106.446,1033.727,108.648z"/>
		<g>
			<path style="fill:#DB995D;" d="M1020.237,198.225h46.596c0.939,0,1.7,0.761,1.7,1.7l-0.071,1.922c0,0.939-0.761,1.7-1.7,1.7
				h-46.596L1020.237,198.225z"/>
			<path style="fill:#35394D;" d="M954.517,151.1h71.215c0.847,0,1.57,0.613,1.707,1.449l8.146,48.986
				c0.173,1.054-0.639,2.011-1.707,2.011h-68.23c-2.569,0-4.761-1.86-5.178-4.395l-7.661-46.04
				C952.637,152.058,953.45,151.1,954.517,151.1z"/>
		</g>
		<g>
			<path style="fill:#FF9178;" d="M1028.293,193.992c0,0,4.496-2.997,11.318-4.681c2.593-0.64,9.151-1.24,14.47,1.713
				c0,0,5.198,14.442,5.198,14.442c0.58,1.593-3.034,7.189-4.76,8.269c-5.517,3.453-13.832,5.299-15.349,5.859
				c-3.594,1.439-6.603-3.57-3.722-6.071c-3.517,1.458-6.588-3.351-3.879-5.929c-3.916,1.099-6.258-4.672-2.726-6.63
				C1025.34,200.426,1024.862,195.108,1028.293,193.992z"/>
			<g>
				<path style="fill:#E04138;" d="M1041.015,197.225c-0.002,0.001-0.005,0.002-0.007,0.003l-11.981,4.027
					c-0.159,0.053-0.331-0.032-0.384-0.191c-0.053-0.158,0.035-0.32,0.191-0.384l11.981-4.027c0.159-0.053,0.33,0.032,0.384,0.191
					C1041.251,197,1041.169,197.169,1041.015,197.225z"/>
			</g>
			<g>
				<path style="fill:#E04138;" d="M1043.345,203.626l-11.67,4.25c-0.157,0.057-0.331-0.024-0.388-0.181
					c-0.057-0.157,0.024-0.331,0.181-0.388l11.67-4.25c0.157-0.057,0.331,0.024,0.388,0.181
					C1043.584,203.395,1043.503,203.569,1043.345,203.626z"/>
			</g>
			<g>
				<path style="fill:#E04138;" d="M1045.711,210.121l-10.192,3.712c-0.157,0.057-0.331-0.024-0.388-0.181
					c-0.057-0.157,0.024-0.331,0.181-0.388l10.192-3.712c0.157-0.057,0.331,0.024,0.388,0.181
					C1045.949,209.89,1045.868,210.064,1045.711,210.121z"/>
			</g>
		</g>
		<path style="fill:#FF9178;" d="M1068.854,163.534c0.013,0.06,0.029,0.119,0.041,0.18l20.644-22.973
			c5.445,8.776,12.636,19.086,10.141,29.936c-4.764,21.93-27.147,34.768-46.251,40.887l-8.859-21.832
			C1057.634,183.69,1070.802,172.311,1068.854,163.534z"/>
		<g>
			<path style="fill:#272A38;" d="M1038.66,87.786c1.093-0.472,3.87-0.178,4.377,1.748c-0.715-0.607-2.333-1.204-3.834-0.585
				C1038.564,89.211,1038.419,87.89,1038.66,87.786z"/>
			<path style="fill:#272A38;" d="M1033.345,87.572c-1.092-0.475-3.87-0.187-4.381,1.738c0.717-0.605,2.335-1.199,3.836-0.576
				C1033.437,88.997,1033.585,87.676,1033.345,87.572z"/>
			<g>
				<path style="fill:#272A38;" d="M1029.82,91.016c0.001-0.64,0.52-1.158,1.16-1.157c0.64,0.001,1.158,0.52,1.157,1.16
					c-0.001,0.64-0.52,1.158-1.16,1.157C1030.337,92.175,1029.819,91.656,1029.82,91.016z"/>
				<path style="fill:#272A38;" d="M1030.943,89.859c-0.88,0.044-1.008,0.811-1.913,0.772
					C1029.284,90.897,1030.556,91.183,1030.943,89.859z"/>
				<path style="fill:#FFFFFF;" d="M1030.308,90.804c0-0.15,0.122-0.272,0.273-0.272c0.15,0,0.272,0.122,0.272,0.273
					c0,0.15-0.122,0.272-0.273,0.272C1030.43,91.076,1030.308,90.954,1030.308,90.804z"/>
			</g>
			<g>
				<path style="fill:#272A38;" d="M1041.553,91.368c-0.001-0.64-0.52-1.158-1.16-1.157c-0.64,0.001-1.158,0.52-1.157,1.16
					c0.001,0.64,0.52,1.158,1.16,1.157C1041.036,92.527,1041.554,92.008,1041.553,91.368z"/>
				<path style="fill:#272A38;" d="M1040.431,90.211c0.88,0.044,1.008,0.811,1.913,0.772
					C1042.089,91.249,1040.817,91.534,1040.431,90.211z"/>
				<path style="fill:#FFFFFF;" d="M1041.065,91.155c0-0.15-0.122-0.272-0.273-0.272s-0.272,0.122-0.272,0.273
					c0,0.15,0.122,0.272,0.273,0.272C1040.944,91.428,1041.066,91.306,1041.065,91.155z"/>
			</g>
			<path style="fill:#E04138;" d="M1033.515,94.158c0.362-1.331,1.724-2.324,1.476-3.82c-0.062-0.375,0.527-0.412,0.589-0.04
				c0.213,1.282-0.624,2.317-1.214,3.363c-0.246,0.436-0.537,1.087-0.107,1.508c0.42,0.411,1.092,0.326,1.622,0.273
				c0.379-0.037,0.418,0.552,0.04,0.589c-0.643,0.063-1.326,0.097-1.883-0.287C1033.513,95.382,1033.351,94.759,1033.515,94.158z"/>
			<path style="fill:#E04138;" d="M1034.051,98.18c0.738,0.213,1.542,0.279,2.297,0.111c0.578-0.129,1.14-0.398,1.406-0.955
				c0.087-0.182,0.347-0.23,0.511-0.134c0.186,0.109,0.221,0.328,0.134,0.511c-0.334,0.702-1.064,1.11-1.794,1.285
				c-0.899,0.215-1.867,0.158-2.751-0.098C1033.391,98.768,1033.587,98.047,1034.051,98.18z"/>
		</g>
		<path style="fill:#FF618E;" d="M1052.016,147.589l18.456-33.08c0,0,29.405,20.975,30.182,51.32
			c0.778,30.345-27.393,39.638-27.393,39.638l-16.531-24.171c0,0,9.17-11.113,10.017-17.529
			C1068.351,151.613,1052.016,147.589,1052.016,147.589z"/>
		<path style="fill:#272A38;" d="M1030.074,77.336c-2.101,1.733-2.549,10.139-1.66,11.76c0,0,0.576-1.853,1.21-2.068
			c0.877-0.298,1.386-1.199,1.684-1.899l0.486,1.196l3.079,0.256l0.718-2.091c0,0,0.035,1.993,0.265,2.071
			c0.229,0.078,6.523,0.315,6.568,0.029c0.045-0.286,0.4-1.583,0.4-1.583l1.011,2.144c3.532,0.373,4.279,4.789,4.279,4.789
			c0.817-0.585,3.405-11.295-3.448-15.318C1040.368,74.099,1034.12,73.998,1030.074,77.336z"/>
		<g>
			<path style="fill:#FCCA01;" d="M1052.578,92.113c0,3.33-1.465,6.03-3.273,6.03s-3.273-2.7-3.273-6.03
				c0-3.33,1.465-6.03,3.273-6.03S1052.578,88.783,1052.578,92.113z"/>
			<path style="fill:#FCCA01;" d="M1043.384,74.038l-0.767,0.176c0,0,8.355,7.085,6.183,14.347h2.164
				C1050.964,88.561,1051.521,78.526,1043.384,74.038z"/>
		</g>
	</g>
	<g>
		<g>
			
				<ellipse transform="matrix(0.9856 -0.1688 0.1688 0.9856 -91.2209 164.0458)" style="fill:#FF618E;" cx="919.074" cy="618.455" rx="22.676" ry="15.293"/>
			<path style="fill:#4DBCF0;" d="M889.707,632.591c4.915-4.855,3.992-12.783,7.636-16.142c7.594,2.786,31.896-0.719,42.302-5.307
				c3.876-0.023,9.468,10.845,12.744,13.032L889.707,632.591z"/>
		</g>
		<g>
			
				<ellipse transform="matrix(0.2107 -0.9775 0.9775 0.2107 271.8015 1573.5391)" style="fill:#FF618E;" cx="1110.326" cy="618.455" rx="15.293" ry="22.676"/>
			<path style="fill:#4DBCF0;" d="M1138.335,635.609c-4.704-5.06-2.715-14.72-6.213-18.231c-7.706,2.46-31.836-2.078-42.037-7.106
				c-3.872-0.188-9.922,10.431-13.288,12.477L1138.335,635.609z"/>
		</g>
		<path style="fill:#4DBCF0;" d="M1194.64,839.201c-27.34,40.99-77.894-37.179-101.777-51.262
			c-28.184-16.616-46.116,28.066-80.251,28.066c-34.155,0-52.067-44.682-80.251-28.066c-23.883,14.082-74.438,92.251-101.777,51.262
			c0,0-41.5-48.826,25.749-159.383c0.02-0.039,0.02-0.059,0.02-0.059c4.203-6.894,8.819-14.043,13.905-21.428c0,0,0,0,0.02-0.02
			c4.596-6.697,9.585-13.611,14.986-20.701c13.65-17.99,46.96-32.132,90.307,0c12.59,9.329,25.494,11.195,37.042,11.195
			c11.529,0,24.452-1.866,37.042-11.195c43.347-32.132,76.657-17.99,90.307,0c10.626,14.023,19.7,27.222,27.379,39.674
			c0.02,0.039,0.039,0.059,0.079,0.079v0.02c0,0.02,0.02,0.02,0.02,0.02c0,0.02,0,0.02,0,0.02c2.691,4.36,5.224,8.622,7.581,12.786
			C1233.528,793.439,1194.64,839.201,1194.64,839.201z"/>
		<g>
			
				<ellipse transform="matrix(0.2298 -0.9732 0.9732 0.2298 165.7411 1622.5024)" style="fill:#FFFFFF;" cx="1107.93" cy="706.54" rx="35.041" ry="35.041"/>
			<ellipse style="fill:#272A38;" cx="1107.93" cy="686.086" rx="10.017" ry="12.188"/>
			<ellipse style="fill:#272A38;" cx="1107.93" cy="727.108" rx="10.017" ry="12.188"/>
			<ellipse style="fill:#FF618E;" cx="1129.069" cy="706.197" rx="12.188" ry="10.017"/>
			<ellipse style="fill:#FF618E;" cx="1087.477" cy="706.197" rx="12.188" ry="10.017"/>
		</g>
		<g>
			
				<ellipse transform="matrix(0.7071 -0.7071 0.7071 0.7071 -229.3906 859.2816)" style="fill:#FFFFFF;" cx="922.549" cy="706.54" rx="35.041" ry="35.041"/>
			<path style="fill:#272A38;" d="M946.601,698.312h-15.977v-15.977c0-1.42-1.151-2.57-2.57-2.57h-11.01
				c-1.419,0-2.57,1.15-2.57,2.57v15.977h-15.977c-1.419,0-2.57,1.151-2.57,2.57v11.01c0,1.42,1.151,2.57,2.57,2.57h15.977v15.977
				c0,1.419,1.151,2.57,2.57,2.57h11.01c1.419,0,2.57-1.151,2.57-2.57v-15.977h15.977c1.419,0,2.57-1.15,2.57-2.57v-11.01
				C949.171,699.463,948.021,698.312,946.601,698.312z"/>
		</g>
		<path style="fill:#FCCA01;" d="M1036.13,675.289h-41.117c-3.343,0-6.052,2.71-6.052,6.052s2.71,6.052,6.052,6.052h41.117
			c3.343,0,6.052-2.71,6.052-6.052S1039.473,675.289,1036.13,675.289z"/>
		<path style="fill:#FF618E;" d="M1036.13,703.687h-41.117c-3.343,0-6.052,2.709-6.052,6.052c0,3.343,2.71,6.052,6.052,6.052h41.117
			c3.343,0,6.052-2.71,6.052-6.052C1042.182,706.396,1039.473,703.687,1036.13,703.687z"/>
		<g>
			
				<ellipse transform="matrix(0.2298 -0.9732 0.9732 0.2298 36.8491 1576.2091)" style="fill:#FFFFFF;" cx="1014.237" cy="764.824" rx="19.401" ry="19.401"/>
			<circle style="fill:#FCCA01;" cx="1014.237" cy="764.824" r="15.494"/>
		</g>
		<g>
			<path style="fill:#272A38;" d="M1049.148,764.824c0-3.546,2.874-6.42,6.42-6.42s6.42,2.874,6.42,6.42
				c0,3.546-2.874,6.42-6.42,6.42S1049.148,768.37,1049.148,764.824z"/>
		</g>
		<g>
			<path style="fill:#272A38;" d="M967.242,764.824c0-3.546,2.874-6.42,6.42-6.42c3.546,0,6.42,2.874,6.42,6.42
				c0,3.546-2.874,6.42-6.42,6.42C970.116,771.244,967.242,768.37,967.242,764.824z"/>
		</g>
	</g>
	<g>
		<path style="fill:#272A38;" d="M1207.305,853.965H199.595c-1.657,0-3-1.343-3-3c0-1.657,1.343-3,3-3h1007.71c1.657,0,3,1.343,3,3
			C1210.305,852.622,1208.962,853.965,1207.305,853.965z"/>
	</g>
	<g>
		<path style="fill:#FCCA01;" d="M387.879,130.162c-18.632-27.503-55.84-42.379-89.356-25.771
			c-32.837,16.271-43.996,53.513-34.201,84.545c9.473,30.014,37.064,52.019,70.145,56.107c7.149,0.884,13.383,5.289,16.731,11.668
			l5.25,10.004c13.074-6.861,26.149-13.722,39.223-20.583c-1.587-3.025-3.174-6.049-4.762-9.074
			c-3.424-6.525-3.341-14.305,0.123-20.809C405.872,188.387,404.785,155.117,387.879,130.162z"/>
		<g>
			<path style="fill:#272A38;" d="M367.652,263.015c-0.168,0-0.307-0.049-0.435-0.286l-2.207-3.885
				c-10.676-18.807-25.296-44.564-38.828-59.449c-0.094-0.103-0.227-0.162-0.366-0.162c-0.009,0-0.018,0-0.026,0.001
				c-0.149,0.008-0.285,0.082-0.373,0.203c-2.187,3.001-5.544,4.723-9.209,4.723c-3.729,0-7.153-1.797-8.723-4.578
				c-1.513-2.679-1.205-6.048,0.867-9.486c1.575-2.115,4.061-3.301,6.973-3.301c5.085,0,11.08,3.741,11.55,9.109
				c0.016,0.183,0.132,0.342,0.302,0.412c1.555,0.65,2.975,0.979,4.221,0.979c4.371,0,5.955-3.834,7.228-6.914
				c0.311-0.753,0.605-1.466,0.915-2.055c0.15-0.059,0.31-0.09,0.47-0.09c0.299,0,0.59,0.106,0.82,0.298
				c1.218,1.085,2.741,1.664,4.394,1.664c3.43-0.001,7.142-2.608,7.158-6.82c0.001-0.126-0.047-0.247-0.134-0.34
				c-2.848-3.039-3.48-7.316-1.693-11.441c1.649-3.805,4.863-6.263,8.19-6.263c2.124,0,4.151,0.969,6.025,2.882
				c2.16,2.135,3.132,4.957,2.671,7.747c-0.485,2.935-2.423,5.424-5.318,6.83c-1.762,0.924-3.784,1.441-5.86,1.503
				c-0.148,0.005-0.286,0.075-0.377,0.192c-0.091,0.117-0.124,0.269-0.09,0.413c2.703,11.628,9.654,25.91,16.377,39.722
				c5.255,10.796,10.223,21.002,12.934,29.408c-0.401,0.225-0.85,0.441-1.193,0.441c0,0,0,0,0,0c-0.18,0-0.326-0.053-0.451-0.311
				l-1.633-3.272c-8.873-17.775-22.283-44.636-27.549-62.338c-0.055-0.187-0.216-0.324-0.409-0.349
				c-0.022-0.003-0.043-0.004-0.064-0.004c-0.17,0-0.33,0.088-0.421,0.236c-1.633,2.664-4.72,4.319-8.056,4.319
				c-1.34,0-2.664-0.283-3.83-0.818c-0.066-0.03-0.135-0.045-0.206-0.045c-0.079,0-0.157,0.019-0.229,0.056
				c-0.136,0.07-0.231,0.2-0.258,0.351c-0.593,3.32-5.13,7.532-9.382,7.532c-0.159,0-0.318-0.006-0.477-0.018
				c-0.013-0.001-0.025-0.001-0.037-0.001c-0.182,0-0.351,0.1-0.436,0.263c-0.092,0.174-0.072,0.385,0.05,0.539
				c11.201,14.067,31.407,43.212,38.3,61.961C368.449,262.787,367.995,263.015,367.652,263.015z M315.507,189.334
				c-2.103,0-3.869,0.798-5.105,2.307c-0.022,0.027-0.042,0.056-0.057,0.087c-1.775,3.454-1.214,5.71-0.43,6.993
				c1.074,1.759,3.273,2.81,5.881,2.81c2.758,0,6.443-1.24,8.513-4.721c0.052-0.087,0.076-0.188,0.068-0.289
				C324.072,192.408,319.442,189.334,315.507,189.334z M359.164,168.12c-2.548,0-5.181,1.828-6.404,4.445
				c-1.35,2.891-0.786,6.149,1.549,8.94c0.079,0.095,0.191,0.156,0.314,0.173c0.399,0.053,0.815,0.08,1.237,0.08
				c4.064,0,8.733-2.527,9.191-6.61c0.004-0.041,0.004-0.081-0.001-0.122C364.457,170.701,362.257,168.12,359.164,168.12z"/>
		</g>
		<path style="fill:#FF618E;" d="M356.452,266.711l39.191-20.565c2.61,4.675,19.838,36.397,2.853,48.165
			c-1.576,1.091-3.039,1.73-3.957,2.076C375.194,303.686,358.823,271.509,356.452,266.711z"/>
		<path style="fill:#E63C6D;" d="M402.133,260.01L364.4,279.811c-1.638,0.86-3.672,0.26-4.506-1.329
			c-0.834-1.589-0.172-3.604,1.466-4.463l37.733-19.801c1.638-0.86,3.672-0.26,4.506,1.329
			C404.433,257.136,403.771,259.151,402.133,260.01z"/>
		<path style="fill:#E63C6D;" d="M405.396,270.051l-34.323,18.011c-1.49,0.782-3.402,0.118-4.236-1.471
			c-0.834-1.589-0.294-3.539,1.197-4.322l34.323-18.011c1.49-0.782,3.402-0.118,4.236,1.471
			C407.426,267.318,406.886,269.269,405.396,270.051z"/>
		<path style="fill:#E63C6D;" d="M397.752,250.557l-38.642,20.278c-1.678,0.88-3.744,0.297-4.578-1.291
			c-0.834-1.589-0.139-3.621,1.538-4.501l38.642-20.278c1.677-0.88,3.744-0.297,4.578,1.291
			C400.124,247.645,399.43,249.676,397.752,250.557z"/>
		
			<ellipse transform="matrix(0.2117 -0.9773 0.9773 0.2117 137.9066 433.4383)" style="fill:#FFDC69;" cx="337.638" cy="131.232" rx="24.073" ry="39.84"/>
		<path style="fill:#FCCA01;" d="M370.954,93.382c3.799-6.489,7.598-12.979,11.397-19.468c1.302-2.223,4.749-0.187,3.444,2.043
			c-3.799,6.489-7.598,12.978-11.397,19.468C373.098,97.648,369.649,95.612,370.954,93.382z"/>
		<path style="fill:#FCCA01;" d="M339.535,83.129c1.693-11.107,3.387-22.214,5.08-33.321c0.148-0.973,1.386-1.5,2.248-1.257
			c1.043,0.294,1.407,1.272,1.258,2.248c-1.693,11.107-3.386,22.214-5.08,33.321c-0.148,0.973-1.386,1.5-2.248,1.258
			C339.749,85.084,339.386,84.105,339.535,83.129z"/>
		<path style="fill:#FCCA01;" d="M298.662,68.14c3.266,6.068,6.533,12.136,9.799,18.204c1.222,2.27-2.247,4.271-3.47,1.998
			c-3.267-6.068-6.533-12.136-9.8-18.204C293.97,67.868,297.44,65.868,298.662,68.14z"/>
	</g>
	<g>
		<g>
			<path style="fill:#272A38;" d="M1174.056,399.047v117.138c0,3.129-2.636,5.658-5.883,5.658H875.211
				c-3.251,0-5.888-2.529-5.888-5.658V399.047c0-3.121,2.636-5.658,5.888-5.658h292.962c0.739,0,1.442,0.132,2.097,0.375
				C1172.485,394.572,1174.056,396.633,1174.056,399.047z"/>
		</g>
		<g>
			<path style="fill:#FF618E;" d="M1174.056,412.896v117.138c0,3.129-2.636,5.658-5.883,5.658H875.211
				c-3.251,0-5.888-2.529-5.888-5.658V412.896c0-3.121,2.636-5.658,5.888-5.658h292.962c0.739,0,1.442,0.132,2.097,0.375
				C1172.485,408.421,1174.056,410.482,1174.056,412.896z"/>
		</g>
		<g>
			<path style="fill:#FFFFFF;" d="M935.532,425.627H884.57c-1.103,0-1.997-0.894-1.997-1.997l0,0c0-1.103,0.894-1.997,1.997-1.997
				h50.962c1.103,0,1.997,0.894,1.997,1.997l0,0C937.529,424.733,936.635,425.627,935.532,425.627z"/>
			<path style="fill:#FFFFFF;" d="M1055.096,425.627h-16.568c-0.96,0-1.738-0.778-1.738-1.738l0,0c0-0.96,0.778-1.738,1.738-1.738
				h16.568c0.96,0,1.738,0.778,1.738,1.738l0,0C1056.834,424.849,1056.056,425.627,1055.096,425.627z"/>
			<path style="fill:#FFFFFF;" d="M1126.92,513.948h-50.962c-1.103,0-1.997-0.894-1.997-1.997l0,0c0-1.103,0.894-1.997,1.997-1.997
				h50.962c1.103,0,1.997,0.894,1.997,1.997l0,0C1128.917,513.054,1128.023,513.948,1126.92,513.948z"/>
			<path style="fill:#FFFFFF;" d="M1158.518,513.948h-16.568c-0.96,0-1.738-0.778-1.738-1.738l0,0c0-0.96,0.778-1.738,1.738-1.738
				h16.568c0.96,0,1.738,0.778,1.738,1.738l0,0C1160.256,513.17,1159.478,513.948,1158.518,513.948z"/>
			<path style="fill:#FFFFFF;" d="M1054.837,446.263H884.57c-1.103,0-1.997-0.894-1.997-1.997l0,0c0-1.103,0.894-1.997,1.997-1.997
				h170.267c1.103,0,1.997,0.894,1.997,1.997l0,0C1056.834,445.369,1055.94,446.263,1054.837,446.263z"/>
			<path style="fill:#FFFFFF;" d="M935.532,485.317H884.57c-1.103,0-1.997-0.894-1.997-1.997v0c0-1.103,0.894-1.997,1.997-1.997
				h50.962c1.103,0,1.997,0.894,1.997,1.997l0,0C937.529,484.423,936.635,485.317,935.532,485.317z"/>
			<path style="fill:#FFFFFF;" d="M1025.547,485.317h-78.958c-1.103,0-1.997-0.894-1.997-1.997l0,0c0-1.103,0.894-1.997,1.997-1.997
				h78.958c1.103,0,1.997,0.894,1.997,1.997l0,0C1027.544,484.423,1026.65,485.317,1025.547,485.317z"/>
			<path style="fill:#FFFFFF;" d="M999.206,513.948h-50.962c-1.103,0-1.997-0.894-1.997-1.997v0c0-1.103,0.894-1.997,1.997-1.997
				h50.962c1.103,0,1.997,0.894,1.997,1.997l0,0C1001.203,513.054,1000.309,513.948,999.206,513.948z"/>
			<path style="fill:#FFFFFF;" d="M1055.836,513.948h-45.572c-1.103,0-1.997-0.894-1.997-1.997l0,0c0-1.103,0.894-1.997,1.997-1.997
				h45.572c1.103,0,1.997,0.894,1.997,1.997l0,0C1057.833,513.054,1056.938,513.948,1055.836,513.948z"/>
			<path style="fill:#FFFFFF;" d="M969.297,464.681H884.57c-1.103,0-1.997-0.894-1.997-1.997l0,0c0-1.103,0.894-1.997,1.997-1.997
				h84.727c1.103,0,1.997,0.894,1.997,1.997l0,0C971.294,463.786,970.4,464.681,969.297,464.681z"/>
			<path style="fill:#FFFFFF;" d="M1054.837,464.681H989.6c-1.103,0-1.997-0.894-1.997-1.997l0,0c0-1.103,0.894-1.997,1.997-1.997
				h65.237c1.103,0,1.997,0.894,1.997,1.997l0,0C1056.834,463.786,1055.94,464.681,1054.837,464.681z"/>
			<path style="fill:#FFFFFF;" d="M1055.096,485.317h-16.568c-0.96,0-1.738-0.778-1.738-1.738l0,0c0-0.96,0.778-1.738,1.738-1.738
				h16.568c0.96,0,1.738,0.778,1.738,1.738l0,0C1056.834,484.539,1056.056,485.317,1055.096,485.317z"/>
		</g>
		<rect x="882.573" y="503.059" style="fill:#FFFFFF;" width="17.785" height="17.785"/>
		<rect x="918.041" y="503.059" style="fill:#FCCA01;" width="17.785" height="17.785"/>
		<rect x="953.508" y="421.633" style="fill:#FF618E;" width="13.075" height="13.075"/>
		<rect x="979.583" y="421.633" style="fill:#FFFFFF;" width="13.075" height="13.075"/>
		<rect x="1005.658" y="421.633" style="fill:#4DBCF0;" width="13.075" height="13.075"/>
		<g>
			<path style="fill:#4DBCF0;" d="M1144.944,481.34c-6.313,10.491-17.84,17.511-31.017,17.511c-9.622,0-18.373-3.743-24.848-9.852
				l24.848-26.129L1144.944,481.34z"/>
			<path style="fill:#FFFFFF;" d="M1156.433,457.615h-36.138v-35.982C1140.253,421.633,1156.433,437.742,1156.433,457.615z"/>
			<path style="fill:#4DBCF0;" d="M1150.065,462.951c-0.015,6.723-1.88,13.011-5.121,18.389l-31.017-18.471h35.843L1150.065,462.951
				z"/>
			<path style="fill:#4DBCF0;" d="M1113.927,426.887v35.982l-24.848,26.129c-6.954-6.557-11.293-15.84-11.293-26.129
				C1077.785,442.996,1093.965,426.887,1113.927,426.887z"/>
		</g>
	</g>
	<g>
		<path style="fill:#272A38;" d="M463.606,201.412c-1.379,2.405-3.296,4.196-5.75,5.372c-2.456,1.177-5.347,1.765-8.676,1.765
			c-1.11,0-2.422-0.059-3.935-0.176c-1.513-0.118-2.909-0.396-4.187-0.832c-1.648-0.572-2.472-1.564-2.472-2.976v-24.767
			c0-0.638,0.177-1.126,0.53-1.463c0.353-0.335,0.815-0.605,1.387-0.807c1.244-0.37,2.598-0.622,4.06-0.757
			c1.463-0.134,2.833-0.202,4.111-0.202c3.396,0,6.364,0.58,8.903,1.741c2.539,1.16,4.522,2.9,5.952,5.22
			c1.429,2.32,2.144,5.264,2.144,8.827C465.674,195.99,464.984,199.008,463.606,201.412z M457.78,186.381
			c-0.891-1.564-2.102-2.724-3.632-3.48c-1.531-0.757-3.271-1.135-5.221-1.135c-0.74,0-1.438,0.025-2.093,0.076
			c-0.656,0.05-1.286,0.126-1.892,0.227v20.934c0.606,0.135,1.278,0.227,2.018,0.277c0.74,0.051,1.48,0.076,2.22,0.076
			c3.127,0,5.565-0.916,7.314-2.749c1.748-1.833,2.623-4.548,2.623-8.146C459.117,189.971,458.671,187.944,457.78,186.381z"/>
		<path style="fill:#272A38;" d="M480.605,197.503l-6.255-0.05v-16.798c0-1.042,0.31-1.866,0.933-2.472
			c0.622-0.605,1.454-0.908,2.497-0.908c0.571,0,1.126,0.051,1.664,0.151c0.538,0.101,0.925,0.186,1.161,0.253V197.503z
			 M474.35,187.616h6.255v19.925c-0.236,0.068-0.623,0.151-1.161,0.253c-0.538,0.101-1.093,0.151-1.664,0.151
			c-1.043,0-1.875-0.311-2.497-0.933c-0.623-0.622-0.933-1.438-0.933-2.446V187.616z M477.78,182.421v-5.145h16.696
			c0.168,0.236,0.319,0.572,0.454,1.009c0.134,0.437,0.202,0.908,0.202,1.412c0,0.875-0.194,1.547-0.58,2.017
			c-0.387,0.471-0.951,0.706-1.69,0.706H477.78z M477.78,194.779v-5.044h15.183c0.168,0.236,0.328,0.572,0.48,1.009
			c0.151,0.437,0.227,0.908,0.227,1.412c0,0.875-0.201,1.53-0.605,1.967c-0.404,0.437-0.959,0.656-1.665,0.656H477.78z
			 M477.78,207.945v-5.095h16.948c0.134,0.236,0.278,0.572,0.429,1.009c0.151,0.437,0.227,0.925,0.227,1.462
			c0,0.875-0.202,1.531-0.606,1.967c-0.404,0.438-0.958,0.656-1.664,0.656H477.78z"/>
		<path style="fill:#272A38;" d="M519.646,207.188c-0.302,0.27-0.815,0.513-1.538,0.732c-0.723,0.218-1.522,0.328-2.396,0.328
			c-1.009,0-1.884-0.143-2.623-0.429c-0.74-0.285-1.245-0.714-1.513-1.286c-0.504-0.975-1.102-2.286-1.791-3.935
			c-0.69-1.647-1.43-3.506-2.22-5.574c-0.79-2.068-1.572-4.195-2.345-6.381c-0.774-2.185-1.488-4.329-2.144-6.431
			c-0.656-2.101-1.22-3.993-1.69-5.675c0.336-0.37,0.823-0.714,1.463-1.034c0.638-0.319,1.328-0.479,2.068-0.479
			c0.941,0,1.681,0.21,2.22,0.63c0.537,0.421,0.941,1.118,1.211,2.093c1.211,3.868,2.404,7.6,3.581,11.198
			c1.177,3.599,2.421,7.264,3.733,10.997h0.252c0.807-2.32,1.639-4.825,2.497-7.516c0.858-2.69,1.698-5.464,2.522-8.323
			c0.824-2.858,1.572-5.65,2.245-8.373c0.403-0.202,0.849-0.37,1.336-0.504c0.487-0.134,1.017-0.202,1.589-0.202
			c0.908,0,1.672,0.219,2.295,0.656c0.622,0.438,0.933,1.11,0.933,2.018c0,0.605-0.177,1.606-0.53,3.001
			c-0.353,1.396-0.832,3.018-1.438,4.867c-0.606,1.85-1.261,3.767-1.967,5.751c-0.706,1.984-1.43,3.909-2.169,5.776
			c-0.74,1.866-1.421,3.514-2.043,4.943C520.562,205.465,520.05,206.516,519.646,207.188z"/>
		<path style="fill:#272A38;" d="M543.455,197.503l-6.255-0.05v-16.798c0-1.042,0.311-1.866,0.933-2.472
			c0.622-0.605,1.454-0.908,2.497-0.908c0.571,0,1.126,0.051,1.664,0.151c0.538,0.101,0.925,0.186,1.16,0.253V197.503z
			 M537.2,187.616h6.255v19.925c-0.236,0.068-0.623,0.151-1.16,0.253c-0.538,0.101-1.093,0.151-1.664,0.151
			c-1.043,0-1.875-0.311-2.497-0.933c-0.623-0.622-0.933-1.438-0.933-2.446V187.616z M540.63,182.421v-5.145h16.696
			c0.168,0.236,0.319,0.572,0.454,1.009c0.134,0.437,0.202,0.908,0.202,1.412c0,0.875-0.194,1.547-0.58,2.017
			c-0.387,0.471-0.951,0.706-1.69,0.706H540.63z M540.63,194.779v-5.044h15.183c0.168,0.236,0.328,0.572,0.48,1.009
			c0.151,0.437,0.227,0.908,0.227,1.412c0,0.875-0.201,1.53-0.605,1.967c-0.404,0.437-0.959,0.656-1.665,0.656H540.63z
			 M540.63,207.945v-5.095h16.948c0.134,0.236,0.278,0.572,0.429,1.009c0.151,0.437,0.227,0.925,0.227,1.462
			c0,0.875-0.202,1.531-0.605,1.967c-0.404,0.438-0.958,0.656-1.664,0.656H540.63z"/>
		<path style="fill:#272A38;" d="M573.315,195.031h-6.406v-17.756c0.302-0.067,0.731-0.151,1.286-0.252
			c0.555-0.101,1.117-0.151,1.69-0.151c1.211,0,2.085,0.21,2.623,0.63c0.537,0.421,0.807,1.203,0.807,2.346V195.031z
			 M566.909,187.869h6.406v19.672l-2.976,0.404c-1.043,0-1.875-0.311-2.497-0.933c-0.623-0.622-0.933-1.438-0.933-2.446V187.869z
			 M570.339,207.945v-5.246h16.041c0.201,0.27,0.378,0.623,0.53,1.059c0.151,0.438,0.227,0.925,0.227,1.463
			c0,0.908-0.21,1.589-0.63,2.043c-0.421,0.454-0.984,0.681-1.69,0.681H570.339z"/>
		<path style="fill:#272A38;" d="M622.395,192.56c0,3.498-0.664,6.44-1.992,8.828c-1.329,2.388-3.145,4.195-5.448,5.422
			c-2.304,1.227-4.918,1.841-7.844,1.841c-2.893,0-5.49-0.614-7.793-1.841c-2.304-1.227-4.12-3.035-5.448-5.422
			c-1.329-2.388-1.992-5.33-1.992-8.828c0-3.497,0.681-6.439,2.043-8.827c1.362-2.387,3.195-4.195,5.498-5.422
			c2.303-1.227,4.867-1.841,7.692-1.841c2.892,0,5.489,0.614,7.794,1.841c2.303,1.228,4.127,3.035,5.473,5.422
			C621.722,186.121,622.395,189.063,622.395,192.56z M615.888,192.56c0-3.531-0.799-6.221-2.396-8.07
			c-1.598-1.849-3.725-2.775-6.381-2.775c-2.59,0-4.683,0.925-6.28,2.775c-1.598,1.849-2.396,4.54-2.396,8.07
			c0,3.565,0.79,6.272,2.371,8.122c1.58,1.849,3.699,2.774,6.356,2.774c2.656,0,4.775-0.925,6.356-2.774
			C615.097,198.832,615.888,196.124,615.888,192.56z"/>
		<path style="fill:#272A38;" d="M641.563,197.655h-10.441v-17.857c0-0.605,0.177-1.076,0.53-1.412
			c0.353-0.336,0.815-0.605,1.387-0.807c1.076-0.336,2.354-0.588,3.834-0.757c1.479-0.168,2.857-0.253,4.136-0.253
			c4.439,0,7.76,0.942,9.962,2.825c2.203,1.884,3.304,4.439,3.304,7.667c0,2.152-0.488,4.019-1.463,5.599
			c-0.976,1.581-2.405,2.808-4.288,3.682C646.64,197.218,644.32,197.655,641.563,197.655z M631.121,194.779h6.406v13.014
			c-0.27,0.101-0.681,0.193-1.236,0.277c-0.555,0.083-1.135,0.126-1.74,0.126c-1.211,0-2.086-0.227-2.623-0.681
			c-0.539-0.454-0.807-1.219-0.807-2.295V194.779z M637.477,192.56h3.733c2.051,0,3.665-0.462,4.843-1.387
			c1.177-0.925,1.765-2.278,1.765-4.061c0-1.816-0.564-3.161-1.69-4.035c-1.127-0.874-2.733-1.312-4.817-1.312
			c-0.74,0-1.43,0.025-2.068,0.076c-0.639,0.05-1.228,0.126-1.765,0.227V192.56z"/>
		<path style="fill:#272A38;" d="M681.563,200.126c-0.337,0.27-0.774,0.496-1.312,0.681c-0.538,0.185-1.144,0.277-1.816,0.277
			c-0.875,0-1.606-0.117-2.194-0.353c-0.589-0.235-0.984-0.638-1.186-1.21c-1.379-3.362-2.565-6.296-3.556-8.802
			c-0.992-2.505-1.774-4.615-2.345-6.331h-0.202c-0.101,2.254-0.202,4.338-0.303,6.255c-0.101,1.917-0.185,3.775-0.252,5.574
			c-0.068,1.799-0.144,3.632-0.227,5.498c-0.084,1.866-0.194,3.893-0.328,6.078c-0.336,0.101-0.757,0.201-1.261,0.302
			c-0.504,0.101-1.027,0.151-1.564,0.151c-1.077,0-1.892-0.194-2.446-0.58c-0.555-0.386-0.833-1.017-0.833-1.891
			c0-0.638,0.042-1.69,0.127-3.153c0.083-1.463,0.184-3.186,0.302-5.17c0.117-1.984,0.243-4.077,0.378-6.28
			c0.134-2.202,0.285-4.388,0.454-6.557c0.168-2.169,0.319-4.162,0.454-5.977c0.269-0.336,0.748-0.681,1.438-1.035
			c0.688-0.353,1.605-0.53,2.749-0.53c1.244,0,2.253,0.22,3.027,0.656c0.773,0.437,1.345,1.11,1.715,2.017
			c0.638,1.412,1.303,2.994,1.993,4.742c0.689,1.749,1.362,3.506,2.018,5.271c0.656,1.765,1.269,3.405,1.841,4.918h0.253
			c1.143-3.194,2.295-6.288,3.455-9.281c1.16-2.993,2.16-5.515,3.001-7.567c0.403-0.235,0.916-0.42,1.538-0.555
			c0.622-0.134,1.269-0.202,1.942-0.202c1.177,0,2.135,0.186,2.875,0.555c0.739,0.371,1.193,0.925,1.362,1.665
			c0.134,0.605,0.278,1.598,0.429,2.976c0.151,1.38,0.311,2.985,0.479,4.817c0.168,1.833,0.336,3.75,0.504,5.75
			c0.168,2.001,0.319,3.952,0.454,5.851c0.134,1.9,0.26,3.615,0.378,5.145c0.117,1.531,0.193,2.749,0.227,3.657
			c-0.437,0.27-0.891,0.462-1.362,0.58c-0.471,0.117-1.059,0.176-1.765,0.176c-0.875,0-1.623-0.168-2.245-0.504
			c-0.623-0.336-0.967-0.992-1.034-1.967c-0.169-2.858-0.32-5.624-0.454-8.298c-0.134-2.674-0.244-5.12-0.328-7.34
			c-0.084-2.22-0.16-4.086-0.227-5.599h-0.252c-0.538,1.581-1.294,3.607-2.27,6.078C684.219,193.089,683.008,196.26,681.563,200.126
			z"/>
		<path style="fill:#272A38;" d="M710.819,197.503l-6.255-0.05v-16.798c0-1.042,0.311-1.866,0.933-2.472
			c0.622-0.605,1.454-0.908,2.497-0.908c0.571,0,1.126,0.051,1.664,0.151c0.538,0.101,0.925,0.186,1.161,0.253V197.503z
			 M704.564,187.616h6.255v19.925c-0.236,0.068-0.623,0.151-1.161,0.253c-0.538,0.101-1.093,0.151-1.664,0.151
			c-1.043,0-1.875-0.311-2.497-0.933c-0.623-0.622-0.933-1.438-0.933-2.446V187.616z M707.994,182.421v-5.145h16.696
			c0.168,0.236,0.319,0.572,0.454,1.009c0.134,0.437,0.202,0.908,0.202,1.412c0,0.875-0.194,1.547-0.58,2.017
			c-0.387,0.471-0.951,0.706-1.69,0.706H707.994z M707.994,194.779v-5.044h15.183c0.168,0.236,0.328,0.572,0.48,1.009
			c0.151,0.437,0.227,0.908,0.227,1.412c0,0.875-0.201,1.53-0.605,1.967c-0.404,0.437-0.959,0.656-1.665,0.656H707.994z
			 M707.994,207.945v-5.095h16.948c0.134,0.236,0.278,0.572,0.429,1.009c0.151,0.437,0.227,0.925,0.227,1.462
			c0,0.875-0.202,1.531-0.605,1.967c-0.404,0.438-0.958,0.656-1.664,0.656H707.994z"/>
		<path style="fill:#272A38;" d="M760.252,198.916v8.172c-0.404,0.336-0.942,0.614-1.614,0.832c-0.673,0.218-1.446,0.328-2.32,0.328
			c-1.043,0-1.976-0.168-2.799-0.504c-0.825-0.336-1.522-1.076-2.093-2.22l-7.415-13.266c-0.403-0.807-0.832-1.647-1.286-2.522
			c-0.454-0.874-0.883-1.731-1.286-2.572c-0.404-0.84-0.774-1.614-1.11-2.32l-6.053,1.412v-7.92c0.37-0.471,0.916-0.824,1.639-1.059
			c0.723-0.235,1.504-0.353,2.346-0.353c1.009,0,1.933,0.169,2.774,0.504c0.84,0.337,1.546,1.06,2.118,2.169l7.415,13.266
			c0.437,0.807,0.883,1.648,1.337,2.522c0.454,0.875,0.874,1.733,1.261,2.573c0.386,0.841,0.732,1.614,1.034,2.32L760.252,198.916z
			 M734.274,184.085l5.7-0.151c0.134,1.278,0.244,2.623,0.328,4.035c0.083,1.412,0.134,2.808,0.151,4.187
			c0.017,1.379,0.025,2.707,0.025,3.985v11.702c-0.236,0.067-0.63,0.143-1.185,0.227c-0.555,0.083-1.102,0.126-1.64,0.126
			c-1.211,0-2.077-0.21-2.598-0.63c-0.522-0.42-0.782-1.168-0.782-2.245V184.085z M760.252,200.984l-5.751,0.151
			c-0.269-2.589-0.421-5.12-0.454-7.591c-0.034-2.472-0.051-4.868-0.051-7.188v-9.08c0.302-0.067,0.714-0.151,1.236-0.252
			c0.521-0.101,1.085-0.151,1.69-0.151c1.177,0,2.025,0.219,2.547,0.656c0.521,0.438,0.782,1.178,0.782,2.219V200.984z"/>
		<path style="fill:#272A38;" d="M782.496,177.276l0.101,5.196h-14.174c-0.169-0.268-0.32-0.622-0.454-1.059
			c-0.135-0.436-0.202-0.925-0.202-1.463c0-0.908,0.202-1.58,0.605-2.017c0.404-0.437,0.959-0.656,1.665-0.656H782.496z
			 M776.998,181.11h6.356v26.684c-0.27,0.101-0.681,0.193-1.236,0.277c-0.555,0.083-1.118,0.126-1.69,0.126
			c-1.244,0-2.127-0.227-2.648-0.681c-0.521-0.454-0.781-1.219-0.781-2.295V181.11z M778.006,182.471l-0.151-5.196h14.174
			c0.168,0.236,0.319,0.58,0.454,1.035c0.134,0.454,0.202,0.933,0.202,1.437c0,0.875-0.202,1.547-0.605,2.018
			c-0.404,0.471-0.959,0.706-1.665,0.706H778.006z"/>
	</g>
	<g>
		<path style="fill:#FF618E;" d="M487.251,131.452v19.851c0,1.782-0.334,3.134-1.002,4.056c-0.668,0.923-1.765,1.799-3.292,2.624
			c-1.718,0.955-4.199,1.799-7.444,2.529c-3.245,0.731-6.49,1.098-9.735,1.098c-6.108,0-11.595-1.066-16.463-3.197
			c-4.867-2.131-8.718-5.439-11.548-9.925c-2.832-4.486-4.247-10.259-4.247-17.322c0-6.743,1.432-12.39,4.295-16.94
			c2.863-4.548,6.728-7.984,11.595-10.307c4.867-2.321,10.259-3.483,16.176-3.483c3.944,0,7.364,0.414,10.259,1.241
			c2.895,0.828,5.121,1.973,6.681,3.436c1.558,1.464,2.338,3.149,2.338,5.058c0,1.401-0.367,2.657-1.098,3.77
			c-0.732,1.114-1.607,1.956-2.624,2.529c-1.591-1.017-3.595-1.972-6.012-2.864c-2.419-0.89-5.25-1.336-8.494-1.336
			c-3.5,0-6.633,0.749-9.4,2.243c-2.768,1.496-4.915,3.66-6.442,6.49c-1.527,2.832-2.291,6.189-2.291,10.068
			c0,4.199,0.747,7.7,2.243,10.498c1.494,2.8,3.563,4.883,6.204,6.251c2.639,1.369,5.646,2.052,9.019,2.052
			c1.589,0,3.037-0.158,4.342-0.477c1.304-0.318,2.305-0.635,3.007-0.954v-11.166h-11.166c-0.382-0.635-0.732-1.447-1.05-2.434
			c-0.319-0.986-0.477-2.052-0.477-3.197c0-1.971,0.461-3.419,1.384-4.342c0.921-0.922,2.148-1.384,3.675-1.384h16.033
			c1.718,0,3.069,0.477,4.056,1.431C486.757,128.302,487.251,129.671,487.251,131.452z"/>
		<path style="fill:#FF618E;" d="M527.333,114.178h-0.573c-0.637,2.037-1.384,4.295-2.242,6.776
			c-0.859,2.481-1.735,5.075-2.624,7.778c-0.892,2.705-1.751,5.392-2.577,8.064l-1.718,8.589c-0.382,1.209-0.748,2.481-1.098,3.818
			c-0.35,1.336-0.715,2.641-1.097,3.913c-0.382,1.273-0.732,2.481-1.05,3.626c-0.319,1.145-0.637,2.228-0.954,3.245
			c-0.701,0.191-1.496,0.397-2.386,0.621c-0.892,0.222-1.941,0.334-3.149,0.334c-2.672,0-4.71-0.477-6.108-1.432
			c-1.4-0.954-2.1-2.353-2.1-4.199c0-0.764,0.11-1.558,0.334-2.386c0.222-0.826,0.492-1.78,0.812-2.863
			c0.572-2.1,1.384-4.739,2.433-7.921c1.049-3.181,2.195-6.633,3.436-10.355c1.241-3.722,2.513-7.396,3.818-11.023
			c1.303-3.627,2.512-6.967,3.627-10.021c1.112-3.054,2.019-5.44,2.72-7.157c0.89-0.573,2.305-1.098,4.247-1.575
			c1.94-0.478,3.865-0.716,5.774-0.716c2.735,0,5.185,0.398,7.349,1.193c2.162,0.797,3.531,2.052,4.104,3.77
			c1.208,3.373,2.529,7.27,3.961,11.691c1.431,4.423,2.878,9.052,4.342,13.886c1.463,4.836,2.878,9.529,4.247,14.077
			c1.367,4.55,2.56,8.637,3.579,12.264c-0.701,0.764-1.718,1.417-3.054,1.956c-1.336,0.54-2.927,0.811-4.772,0.811
			c-2.609,0-4.454-0.477-5.535-1.432c-1.082-0.954-1.909-2.385-2.481-4.295l-3.054-10.689l-1.622-8.112
			c-0.764-2.863-1.56-5.631-2.386-8.303c-0.828-2.672-1.591-5.202-2.29-7.588C528.541,118.138,527.905,116.024,527.333,114.178z
			 M511.204,147.104l5.631-11.262h22.332l1.909,11.262H511.204z"/>
		<path style="fill:#FF618E;" d="M605.208,145.577c-0.701,0.573-1.639,1.049-2.815,1.432c-1.178,0.382-2.529,0.572-4.056,0.572
			c-1.973,0-3.627-0.254-4.963-0.763c-1.336-0.509-2.195-1.368-2.577-2.576c-2.164-6.044-3.993-11.071-5.487-15.079
			c-1.496-4.008-2.657-7.475-3.484-10.403h-0.477c-0.19,4.008-0.35,7.668-0.477,10.975c-0.129,3.309-0.224,6.537-0.286,9.687
			c-0.064,3.15-0.16,6.347-0.286,9.592c-0.128,3.245-0.319,6.809-0.573,10.689c-0.701,0.191-1.639,0.413-2.816,0.668
			c-1.178,0.253-2.338,0.382-3.483,0.382c-2.418,0-4.311-0.414-5.678-1.241c-1.369-0.826-2.052-2.257-2.052-4.295
			c0-1.398,0.079-3.483,0.238-6.251c0.158-2.768,0.349-5.948,0.573-9.544c0.222-3.594,0.445-7.396,0.668-11.405
			c0.222-4.008,0.477-7.969,0.764-11.882c0.286-3.913,0.556-7.523,0.811-10.832c0.509-0.763,1.527-1.542,3.054-2.338
			c1.527-0.795,3.627-1.193,6.299-1.193c2.863,0,5.168,0.462,6.919,1.384c1.749,0.923,3.006,2.433,3.77,4.533
			c0.954,2.29,1.971,4.948,3.054,7.969c1.081,3.022,2.147,6.076,3.197,9.162c1.05,3.086,2.019,5.869,2.911,8.35h0.477
			c1.781-5.598,3.611-11.071,5.488-16.415c1.876-5.345,3.483-9.798,4.819-13.361c0.89-0.509,2.019-0.907,3.388-1.193
			c1.368-0.286,2.816-0.429,4.343-0.429c2.735,0,4.946,0.398,6.633,1.193c1.685,0.797,2.687,1.989,3.007,3.579
			c0.254,1.209,0.525,3.118,0.811,5.726c0.286,2.609,0.587,5.616,0.906,9.019c0.318,3.404,0.635,6.967,0.954,10.689
			c0.318,3.722,0.62,7.349,0.907,10.88c0.286,3.531,0.525,6.697,0.716,9.496c0.19,2.8,0.318,5.027,0.382,6.681
			c-0.954,0.573-1.956,1.002-3.006,1.288c-1.05,0.286-2.371,0.429-3.961,0.429c-2.037,0-3.77-0.382-5.201-1.145
			c-1.432-0.764-2.212-2.227-2.339-4.39c-0.319-4.963-0.572-9.687-0.763-14.172c-0.191-4.486-0.334-8.59-0.43-12.312
			c-0.095-3.722-0.207-6.919-0.334-9.592h-0.477c-0.828,2.736-1.989,6.189-3.484,10.355
			C609.296,133.663,607.435,139.024,605.208,145.577z"/>
		<path style="fill:#FF618E;" d="M660.561,142.618h-14.125v-32.735c0-2.417,0.7-4.31,2.1-5.679c1.399-1.367,3.276-2.052,5.631-2.052
			c1.336,0,2.592,0.095,3.77,0.286c1.177,0.19,2.052,0.35,2.625,0.477V142.618z M646.437,119.522h14.125v39.892
			c-0.573,0.128-1.448,0.286-2.625,0.477c-1.178,0.19-2.433,0.286-3.77,0.286c-2.354,0-4.232-0.7-5.631-2.1
			c-1.4-1.399-2.1-3.276-2.1-5.631V119.522z M654.167,113.605v-11.452h31.494c0.445,0.573,0.812,1.336,1.097,2.29
			c0.286,0.955,0.43,2.004,0.43,3.15c0,2.037-0.446,3.548-1.336,4.533c-0.892,0.987-2.133,1.479-3.722,1.479H654.167z
			 M654.167,136.223v-11.452h28.822c0.382,0.637,0.73,1.432,1.05,2.386c0.318,0.954,0.477,2.004,0.477,3.149
			c0,2.037-0.462,3.531-1.384,4.486c-0.923,0.954-2.148,1.431-3.675,1.431H654.167z M654.167,160.178V148.63h31.972
			c0.382,0.573,0.731,1.369,1.049,2.386c0.318,1.018,0.477,2.1,0.477,3.245c0,2.037-0.462,3.531-1.384,4.486
			c-0.923,0.954-2.148,1.432-3.674,1.432H654.167z"/>
	</g>
	<g>
		<g>
			<path style="fill:#FF618E;" d="M534.291,664.302h-73.71c-7.51,0-13.599,6.088-13.599,13.599v60.366
				c0,7.51,6.088,13.598,13.599,13.598h73.71c7.51,0,13.599-6.088,13.599-13.598v-60.366
				C547.889,670.391,541.801,664.302,534.291,664.302z"/>
		</g>
		<g>
			<g>
				<path style="fill:#FFFFFF;" d="M489.237,725.845c-2.555,1.24-5.531-0.603-5.559-3.443l-0.141-14.101l-0.141-14.101
					c-0.028-2.84,2.91-4.742,5.489-3.554l15.921,7.335l14.039,6.468c2.968,1.367,3.01,5.57,0.07,6.997l-13.906,6.747
					L489.237,725.845z"/>
			</g>
			<g>
				<g>
					<path style="fill:#FFFFFF;" d="M497.307,742.044c-19.185,0-34.793-15.608-34.793-34.793c0-19.185,15.608-34.793,34.793-34.793
						c19.185,0,34.793,15.608,34.793,34.793C532.1,726.436,516.492,742.044,497.307,742.044z M497.307,674.932
						c-17.821,0-32.319,14.498-32.319,32.319c0,17.821,14.498,32.319,32.319,32.319c17.821,0,32.319-14.498,32.319-32.319
						C529.625,689.43,515.127,674.932,497.307,674.932z"/>
				</g>
			</g>
		</g>
	</g>
	<g>
		<g>
			<path style="fill:#35394D;" d="M216.418,413.513v-92.401c0-2.468,2.08-4.463,4.641-4.463h231.095
				c2.565,0,4.644,1.995,4.644,4.463v92.401c0,2.462-2.08,4.463-4.644,4.463H221.059c-0.583,0-1.138-0.104-1.654-0.296
				C217.657,417.043,216.418,415.417,216.418,413.513z"/>
		</g>
		<g>
			<path style="fill:#4DBCF0;" d="M216.418,423.817v-92.401c0-2.468,2.08-4.463,4.641-4.463h231.095
				c2.565,0,4.644,1.995,4.644,4.463v92.401c0,2.462-2.08,4.463-4.644,4.463H221.059c-0.583,0-1.138-0.104-1.654-0.296
				C217.657,427.347,216.418,425.721,216.418,423.817z"/>
		</g>
		<g>
			<path style="fill:#FFFFFF;" d="M402.797,410.906h38.508c0.833,0,1.509,0.676,1.509,1.509l0,0c0,0.833-0.676,1.509-1.509,1.509
				h-38.508c-0.833,0-1.509-0.676-1.509-1.509l0,0C401.288,411.581,401.964,410.906,402.797,410.906z"/>
			<path style="fill:#FFFFFF;" d="M334.781,410.906h59.661c0.833,0,1.509,0.676,1.509,1.509l0,0c0,0.833-0.676,1.509-1.509,1.509
				h-59.661c-0.833,0-1.509-0.676-1.509-1.509l0,0C333.272,411.581,333.947,410.906,334.781,410.906z"/>
			<path style="fill:#FFFFFF;" d="M312.453,410.906h12.519c0.725,0,1.313,0.588,1.313,1.313l0,0c0,0.725-0.588,1.313-1.313,1.313
				h-12.519c-0.725,0-1.313-0.588-1.313-1.313l0,0C311.14,411.494,311.728,410.906,312.453,410.906z"/>
			<path style="fill:#FFFFFF;" d="M258.182,338.959h38.508c0.833,0,1.509,0.676,1.509,1.509l0,0c0,0.833-0.676,1.509-1.509,1.509
				h-38.508c-0.833,0-1.509-0.676-1.509-1.509l0,0C256.673,339.634,257.348,338.959,258.182,338.959z"/>
			<path style="fill:#FFFFFF;" d="M234.306,338.959h12.519c0.725,0,1.313,0.588,1.313,1.313l0,0c0,0.725-0.588,1.313-1.313,1.313
				h-12.519c-0.725,0-1.313-0.588-1.313-1.313l0,0C232.993,339.547,233.58,338.959,234.306,338.959z"/>
			<path style="fill:#FFFFFF;" d="M312.649,395.313h128.656c0.833,0,1.509,0.676,1.509,1.509l0,0c0,0.833-0.676,1.509-1.509,1.509
				H312.649c-0.833,0-1.509-0.676-1.509-1.509l0,0C311.14,395.988,311.815,395.313,312.649,395.313z"/>
			<path style="fill:#FFFFFF;" d="M402.797,365.803h38.508c0.833,0,1.509,0.676,1.509,1.509v0c0,0.833-0.676,1.509-1.509,1.509
				h-38.508c-0.833,0-1.509-0.676-1.509-1.509l0,0C401.288,366.479,401.964,365.803,402.797,365.803z"/>
			<path style="fill:#FFFFFF;" d="M334.781,365.803h59.661c0.833,0,1.509,0.676,1.509,1.509l0,0c0,0.833-0.676,1.509-1.509,1.509
				h-59.661c-0.833,0-1.509-0.676-1.509-1.509l0,0C333.272,366.479,333.947,365.803,334.781,365.803z"/>
			<path style="fill:#FFFFFF;" d="M377.284,381.396h64.021c0.833,0,1.509,0.676,1.509,1.509l0,0c0,0.833-0.676,1.509-1.509,1.509
				h-64.021c-0.833,0-1.509-0.676-1.509-1.509l0,0C375.775,382.072,376.451,381.396,377.284,381.396z"/>
			<path style="fill:#FFFFFF;" d="M312.649,381.396h49.294c0.833,0,1.509,0.676,1.509,1.509l0,0c0,0.833-0.676,1.509-1.509,1.509
				h-49.294c-0.833,0-1.509-0.676-1.509-1.509l0,0C311.14,382.072,311.815,381.396,312.649,381.396z"/>
			<path style="fill:#FFFFFF;" d="M312.453,365.803h12.519c0.725,0,1.313,0.588,1.313,1.313l0,0c0,0.725-0.588,1.313-1.313,1.313
				h-12.519c-0.725,0-1.313-0.588-1.313-1.313l0,0C311.14,366.391,311.728,365.803,312.453,365.803z"/>
		</g>
		<g>
			<path style="fill:#FF5E99;" d="M265.593,396.034c6.35,0,11.497-5.143,11.497-11.493c0-6.346-5.147-11.493-11.497-11.493
				c-6.346,0-11.493,5.147-11.493,11.493C254.101,390.891,259.248,396.034,265.593,396.034z M265.593,381.57
				c1.644,0,2.972,1.332,2.972,2.972c0,1.64-1.328,2.972-2.972,2.972c-1.64,0-2.972-1.332-2.972-2.972
				C262.622,382.901,263.953,381.57,265.593,381.57z"/>
			<g>
				<path style="fill:#FFFFFF;" d="M232.535,389.815l7.098,2.271c0,0,0,0.001,0,0.001c0.557,1.926,1.329,3.771,2.28,5.494
					l-3.372,6.695c-0.571,1.133-0.35,2.505,0.547,3.402l3.434,3.434c0.904,0.904,2.289,1.12,3.426,0.535l6.632-3.417h0.005
					c1.724,0.952,3.558,1.718,5.486,2.276c0,0,0,0,0,0l2.35,7.12c0.398,1.205,1.523,2.019,2.792,2.019h4.857
					c1.279,0,2.411-0.826,2.801-2.044l2.274-7.106c0.001,0,0.001,0,0.002-0.001c1.927-0.551,3.762-1.318,5.486-2.27
					c0.001-0.001,0.003-0.001,0.004-0.002l6.696,3.373c1.133,0.571,2.505,0.35,3.402-0.547l3.434-3.434
					c0.904-0.904,1.12-2.289,0.535-3.426l-3.412-6.624c0.951-1.729,1.717-3.568,2.274-5.5l7.117-2.349
					c1.205-0.398,2.019-1.523,2.019-2.792v-4.857c0-1.279-0.826-2.411-2.044-2.8l-7.097-2.271c0-0.001,0-0.001-0.001-0.002
					c-0.557-1.926-1.329-3.771-2.28-5.495l3.372-6.694c0.571-1.133,0.35-2.505-0.547-3.402l-3.434-3.434
					c-0.904-0.904-2.289-1.12-3.426-0.535l-6.63,3.416c-1.724-0.952-3.558-1.718-5.485-2.27h-0.005l-2.351-7.126
					c-0.398-1.205-1.523-2.019-2.792-2.019h-4.857c-1.279,0-2.411,0.826-2.801,2.044l-2.272,7.099c-0.001,0-0.002,0.001-0.003,0.001
					c-1.927,0.557-3.767,1.324-5.486,2.275c-0.001,0.001-0.003,0.002-0.005,0.003l-6.696-3.373c-1.133-0.571-2.505-0.35-3.402,0.547
					l-3.434,3.434c-0.904,0.904-1.12,2.289-0.535,3.426l3.412,6.624c-0.951,1.729-1.717,3.568-2.274,5.499l-7.118,2.349
					c-1.205,0.398-2.019,1.523-2.019,2.792v4.857C230.491,388.294,231.317,389.426,232.535,389.815z M265.592,365.211
					c10.675,0,19.33,8.655,19.33,19.33s-8.655,19.33-19.33,19.33s-19.324-8.655-19.324-19.33S254.917,365.211,265.592,365.211z"/>
			</g>
		</g>
		
			<rect x="429.375" y="338.959" transform="matrix(-1 -1.224647e-16 1.224647e-16 -1 872.189 691.3559)" style="fill:#FF5E99;" width="13.439" height="13.439"/>
		<rect x="402.575" y="338.959" style="fill:#FCCA01;" width="13.439" height="13.439"/>
		<rect x="375.775" y="338.959" style="fill:#4DBCF0;" width="13.439" height="13.439"/>
		<rect x="348.975" y="338.959" style="fill:#FFFFFF;" width="13.439" height="13.439"/>
		<rect x="322.175" y="338.959" style="fill:#FCCA01;" width="13.439" height="13.439"/>
	</g>
	<g>
		<g>
			<path style="fill:#4DBCF0;" d="M867.764,96.806c25.301-3.219,48.421,14.682,51.64,39.983c1.119,8.795-0.319,17.323-3.728,24.847
				l13.268,22.903l-29.819-3.44c-5.736,3.812-12.41,6.402-19.704,7.33c-25.301,3.219-48.421-14.682-51.64-39.983
				C824.561,123.145,842.463,100.025,867.764,96.806z"/>
		</g>
		<g>
			<g>
				<path style="fill:#FFFFFF;" d="M881.358,132.872v24.859h8.692c4.096,0,7.418-3.322,7.418-7.418V140.3
					c0-4.096-3.322-7.428-7.418-7.428H881.358z"/>
			</g>
			<g>
				<path style="fill:#FFFFFF;" d="M849.892,157.174c2.982,3.379,28.19,0.557,28.19,0.557v-24.859c0,0-4.122-2.238-5.358-6.363
					c-1.218-4.096-3.046-9.347-6.208-8.507c-3.171,0.84-4.337,9.377-0.429,14.87c0,0-12.316-3.332-15.657,0.311
					C847.259,136.628,847.099,154.013,849.892,157.174z"/>
			</g>
		</g>
	</g>
	<path style="fill:#FF618E;" d="M164.54,495.116c3.717-1.084,6.619-4.927,7.439-9.847l0.447-2.685l0.447,2.685
		c0.819,4.92,3.722,8.763,7.439,9.847l2.028,0.592l-2.028,0.592c-3.717,1.084-6.619,4.927-7.439,9.847l-0.447,2.685l-0.447-2.685
		c-0.819-4.92-3.722-8.763-7.439-9.847l-2.028-0.592L164.54,495.116z"/>
	<path style="fill:#FF618E;" d="M1166.17,598.357c3.717-1.084,6.619-4.927,7.438-9.847l0.447-2.685l0.447,2.685
		c0.819,4.92,3.722,8.762,7.438,9.847l2.028,0.592l-2.028,0.592c-3.717,1.084-6.619,4.927-7.438,9.847l-0.447,2.685l-0.447-2.685
		c-0.819-4.92-3.722-8.763-7.438-9.847l-2.028-0.592L1166.17,598.357z"/>
	<path style="fill:#4DBCF0;" d="M1176.084,296.716c3.717-1.084,6.619-4.927,7.438-9.847l0.447-2.685l0.447,2.685
		c0.819,4.92,3.722,8.762,7.439,9.847l2.028,0.592l-2.028,0.592c-3.717,1.084-6.62,4.927-7.439,9.847l-0.447,2.685l-0.447-2.685
		c-0.819-4.92-3.722-8.763-7.438-9.847l-2.028-0.592L1176.084,296.716z"/>
	<path style="fill:#FCCA01;" d="M205.018,670.328c7.352-2.145,13.095-9.747,14.715-19.48l0.884-5.312l0.884,5.312
		c1.62,9.733,7.363,17.334,14.715,19.48l4.013,1.171l-4.013,1.171c-7.352,2.145-13.095,9.747-14.715,19.48l-0.884,5.312
		l-0.884-5.312c-1.62-9.733-7.363-17.334-14.715-19.48l-4.013-1.171L205.018,670.328z"/>
	<path style="fill:#FCCA01;" d="M740.04,123.601c7.352-2.145,13.095-9.747,14.715-19.479l0.884-5.312l0.884,5.312
		c1.62,9.733,7.363,17.334,14.715,19.479l4.013,1.171l-4.013,1.171c-7.352,2.145-13.095,9.747-14.715,19.48l-0.884,5.312
		l-0.884-5.312c-1.621-9.733-7.363-17.335-14.715-19.48l-4.013-1.171L740.04,123.601z"/>
	<g>
		<path style="fill:#272A38;" d="M1020.132,911.507h-92.813c-1.657,0-3-1.343-3-3c0-1.657,1.343-3,3-3h92.813c1.657,0,3,1.343,3,3
			C1023.132,910.164,1021.788,911.507,1020.132,911.507z"/>
	</g>
	<g>
		<path style="fill:#272A38;" d="M512.921,911.507h-38.232c-1.657,0-3-1.343-3-3c0-1.657,1.343-3,3-3h38.232c1.657,0,3,1.343,3,3
			C515.921,910.164,514.577,911.507,512.921,911.507z"/>
	</g>
</g>
</svg>
