<svg width="500" height="438" viewBox="0 0 500 438" fill="none" xmlns="http://www.w3.org/2000/svg">
<path d="M328.125 219H406.25V281.5C406.25 315.973 378.223 344 343.75 344H335.938C332.858 343.993 329.807 344.594 326.96 345.769C324.113 346.944 321.526 348.67 319.348 350.848C317.17 353.026 315.444 355.613 314.269 358.46C313.094 361.307 312.493 364.358 312.5 367.438V414.313C312.493 417.393 313.094 420.444 314.269 423.291C315.444 426.138 317.17 428.725 319.348 430.903C321.526 433.081 324.113 434.807 326.96 435.982C329.807 437.157 332.858 437.758 335.938 437.751H343.75C430.078 437.751 500 367.829 500 281.501V47.125C500 21.246 479.004 0.25 453.125 0.25H328.125C302.246 0.25 281.25 21.246 281.25 47.125V172.125C281.25 198.004 302.246 219 328.125 219ZM46.875 219H125V281.5C125 315.973 96.973 344 62.5 344H54.688C51.608 343.993 48.5569 344.594 45.7099 345.769C42.863 346.944 40.2763 348.67 38.0984 350.848C35.9205 353.026 34.1943 355.613 33.0191 358.46C31.8438 361.307 31.2426 364.358 31.25 367.438V414.313C31.2426 417.393 31.8438 420.444 33.0191 423.291C34.1943 426.138 35.9205 428.725 38.0984 430.903C40.2763 433.081 42.863 434.807 45.7099 435.982C48.5569 437.157 51.608 437.758 54.688 437.751H62.5C148.828 437.751 218.75 367.829 218.75 281.501V47.125C218.75 21.246 197.754 0.25 171.875 0.25H46.875C20.996 0.25 0 21.246 0 47.125V172.125C0 198.004 20.996 219 46.875 219Z" fill="#F21B00" fill-opacity="0.7"/>
</svg>
