<svg width="456" height="457" viewBox="0 0 456 457" fill="none" xmlns="http://www.w3.org/2000/svg">
<path d="M330.471 455.16H125.535C105.687 455.16 89.5352 439.008 89.5352 419.16V36C89.5352 16.152 105.687 0 125.535 0H330.471C350.319 0 366.471 16.152 366.471 36V419.16C366.471 439.008 350.319 455.16 330.471 455.16ZM125.527 24C118.911 24 113.527 29.384 113.527 36V419.16C113.527 425.776 118.911 431.16 125.527 431.16H330.463C337.079 431.16 342.463 425.776 342.463 419.16V36C342.463 29.384 337.079 24 330.463 24H125.527Z" fill="black"/>
<path d="M278.375 75.232H177.623C173.335 75.232 169.375 72.952 167.231 69.24L137.607 18.008C135.463 14.296 135.455 9.72 137.607 6C139.751 2.288 143.711 0 147.999 0H307.999C312.287 0 316.247 2.288 318.391 6C320.543 9.72 320.535 14.296 318.391 18.008L288.767 69.24C286.615 72.952 282.655 75.232 278.375 75.232ZM184.543 51.232H271.455L287.207 24H168.807L184.543 51.232Z" fill="black"/>
<path d="M60 456C58.28 456 56.56 455.632 54.96 454.888C27.936 442.368 10.744 425.072 0.864 400.464C0.296 399.04 0 397.528 0 395.992V227.992C0 221.368 5.368 215.992 12 215.992C18.632 215.992 24 221.368 24 227.992C24 245.416 38.832 263.16 65.776 277.952C69.608 280.064 72 284.096 72 288.464V443.984C72 448.08 69.912 451.888 66.464 454.096C64.504 455.352 62.256 455.984 60 455.984V456ZM24 393.6C29.28 405.8 36.976 415.416 48 423.336V295.424C38.672 289.832 30.664 283.848 24 277.552V393.6Z" fill="black"/>
<path d="M396 456C393.744 456 391.496 455.368 389.536 454.112C386.08 451.912 384 448.096 384 444V288.48C384 284.104 386.384 280.072 390.224 277.968C417.16 263.168 432 245.432 432 228.008C432 221.384 437.376 216.008 444 216.008C450.624 216.008 456 221.384 456 228.008V396.008C456 397.536 455.704 399.056 455.136 400.48C445.264 425.088 428.072 442.384 401.048 454.904C399.44 455.648 397.72 456.016 396 456.016V456ZM408 295.424V423.336C419.024 415.416 426.72 405.808 432 393.6V277.544C425.336 283.84 417.32 289.824 408 295.416V295.424Z" fill="black"/>
<path d="M12 240C5.368 240 0 234.624 0 228C0 191.2 35.664 158.576 97.832 138.496C104.144 136.472 110.896 139.928 112.936 146.232C114.976 152.536 111.512 159.304 105.208 161.344C55.12 177.512 24 203.064 24 228C24 234.624 18.632 240 12 240Z" fill="black"/>
<path d="M444 240C437.376 240 432 234.624 432 228C432 203.064 400.88 177.512 350.792 161.344C344.488 159.304 341.024 152.536 343.056 146.232C345.088 139.936 351.856 136.488 358.168 138.496C420.344 158.576 456 191.2 456 228C456 234.624 450.624 240 444 240Z" fill="black"/>
<path d="M60.0073 361.84C55.8073 361.84 51.7273 359.632 49.5273 355.704C46.2873 349.92 48.3513 342.608 54.1273 339.368C66.7593 332.288 81.4713 326.048 97.8633 320.808C104.183 318.792 110.927 322.28 112.943 328.584C114.959 334.896 111.479 341.656 105.167 343.672C90.3113 348.424 77.0873 354.024 65.8633 360.312C64.0073 361.352 61.9913 361.84 60.0073 361.84Z" fill="black"/>
<path d="M395.993 361.84C394.001 361.84 391.993 361.344 390.137 360.312C378.913 354.016 365.681 348.424 350.825 343.672C344.513 341.656 341.033 334.896 343.049 328.584C345.065 322.28 351.817 318.784 358.137 320.808C374.529 326.04 389.241 332.296 401.873 339.368C407.657 342.608 409.713 349.92 406.473 355.704C404.273 359.624 400.193 361.84 395.993 361.84Z" fill="black"/>
<path d="M228 328.576C226.24 328.576 224.48 328.192 222.84 327.408L159.856 297.448C155.68 295.456 153.016 291.248 153.016 286.616V215.152C153.016 211.032 155.128 207.208 158.608 205C162.088 202.816 166.456 202.536 170.176 204.312L233.16 234.272C237.336 236.264 240 240.472 240 245.104V316.568C240 320.688 237.888 324.512 234.408 326.72C232.456 327.944 230.232 328.576 228 328.576ZM177.016 279.04L216 297.576V252.696L177.016 234.16V279.04Z" fill="#F21B00"/>
<path d="M228 328.575C225.768 328.575 223.536 327.951 221.592 326.727C218.112 324.527 216 320.695 216 316.575V245.111C216 240.479 218.664 236.271 222.84 234.279L285.816 204.319C289.544 202.535 293.896 202.815 297.376 205.007C300.864 207.207 302.968 211.039 302.968 215.159V286.623C302.968 291.255 300.304 295.463 296.128 297.455L233.152 327.415C231.512 328.199 229.752 328.583 227.992 328.583L228 328.575ZM240 252.695V297.575L278.976 279.039V234.159L240 252.695Z" fill="#F21B00"/>
<path d="M228 257.12C226.24 257.12 224.48 256.728 222.84 255.952L159.856 225.992C155.688 224.008 153.024 219.808 153.016 215.184C153.008 210.56 155.648 206.352 159.808 204.344L222.792 173.984C226.08 172.408 229.928 172.408 233.216 173.984L296.192 204.344C300.36 206.352 303 210.568 302.984 215.184C302.968 219.8 300.312 224.008 296.144 225.992L233.168 255.952C231.536 256.728 229.768 257.12 228 257.12ZM192.808 215.088L228 231.832L263.192 215.088L228 198.12L192.808 215.088Z" fill="#F21B00"/>
<path d="M165.016 157.168C158.384 157.168 153.016 151.792 153.016 145.168V119.64C153.016 113.016 158.384 107.64 165.016 107.64C171.648 107.64 177.016 113.016 177.016 119.64V145.168C177.016 151.792 171.648 157.168 165.016 157.168Z" fill="#F21B00"/>
<path d="M207.008 157.168C200.376 157.168 195.008 151.792 195.008 145.168V119.64C195.008 113.016 200.376 107.64 207.008 107.64C213.64 107.64 219.008 113.016 219.008 119.64V145.168C219.008 151.792 213.64 157.168 207.008 157.168Z" fill="#F21B00"/>
<path d="M248.992 157.168C242.368 157.168 236.992 151.792 236.992 145.168V119.64C236.992 113.016 242.368 107.64 248.992 107.64C255.616 107.64 260.992 113.016 260.992 119.64V145.168C260.992 151.792 255.616 157.168 248.992 157.168Z" fill="#F21B00"/>
<path d="M290.977 157.168C284.353 157.168 278.977 151.792 278.977 145.168V119.64C278.977 113.016 284.353 107.64 290.977 107.64C297.601 107.64 302.977 113.016 302.977 119.64V145.168C302.977 151.792 297.601 157.168 290.977 157.168Z" fill="#F21B00"/>
<path d="M165.016 393.736C158.384 393.736 153.016 388.36 153.016 381.736V356.208C153.016 349.584 158.384 344.208 165.016 344.208C171.648 344.208 177.016 349.584 177.016 356.208V381.736C177.016 388.36 171.648 393.736 165.016 393.736Z" fill="#F21B00"/>
<path d="M207.008 393.736C200.376 393.736 195.008 388.36 195.008 381.736V356.208C195.008 349.584 200.376 344.208 207.008 344.208C213.64 344.208 219.008 349.584 219.008 356.208V381.736C219.008 388.36 213.64 393.736 207.008 393.736Z" fill="#F21B00"/>
<path d="M248.992 393.736C242.368 393.736 236.992 388.36 236.992 381.736V356.208C236.992 349.584 242.368 344.208 248.992 344.208C255.616 344.208 260.992 349.584 260.992 356.208V381.736C260.992 388.36 255.616 393.736 248.992 393.736Z" fill="#F21B00"/>
<path d="M290.977 393.736C284.353 393.736 278.977 388.36 278.977 381.736V356.208C278.977 349.584 284.353 344.208 290.977 344.208C297.601 344.208 302.977 349.584 302.977 356.208V381.736C302.977 388.36 297.601 393.736 290.977 393.736Z" fill="#F21B00"/>
<path d="M228 257.12C226.232 257.12 224.472 256.728 222.84 255.952L159.88 225.952C153.896 223.104 151.36 215.936 154.208 209.952C157.056 203.976 164.224 201.448 170.2 204.28L228 231.824L285.8 204.28C291.8 201.448 298.944 203.976 301.8 209.952C304.648 215.936 302.112 223.104 296.128 225.952L233.16 255.952C231.528 256.728 229.768 257.12 228 257.12Z" fill="#F21B00"/>
<path d="M228 328.56C221.368 328.56 216 323.184 216 316.56V245.112C216 238.488 221.368 233.112 228 233.112C234.632 233.112 240 238.488 240 245.112V316.56C240 323.184 234.632 328.56 228 328.56Z" fill="#F21B00"/>
</svg>
