<svg width="414" height="490" viewBox="0 0 414 490" fill="none" xmlns="http://www.w3.org/2000/svg">
<path d="M311.467 313.406C307.355 313.406 304.019 316.742 304.019 320.853V415.263H14.8945V63.7673H304.019V162.521C304.019 166.633 307.355 169.968 311.467 169.968C315.578 169.968 318.914 166.633 318.914 162.521V51.4327C318.914 51.2776 318.914 51.2 318.914 51.0449V44.063C318.914 26.2982 308.286 11.0158 293.081 4.03394C292.848 3.95636 292.693 3.87879 292.461 3.72364C291.762 3.41333 291.064 3.18061 290.366 2.8703C289.59 2.56 288.815 2.2497 287.961 2.01697C287.806 1.93939 287.573 1.93939 287.418 1.86182C284.858 1.08606 282.143 0.543031 279.35 0.232728C277.876 0.0775765 276.325 0 274.851 0H44.063C43.9079 0 43.7527 0 43.5976 0C42.2788 0 40.8824 0.0775765 39.5636 0.232728C36.6158 0.543031 33.823 1.08606 31.1854 1.93939C31.1079 1.93939 31.0303 1.93939 31.0303 2.01697C30.0994 2.32727 29.2461 2.63758 28.3927 2.94788C27.7721 3.18061 27.1515 3.41333 26.5309 3.72364C26.2206 3.80121 25.9879 3.95636 25.7551 4.03394C10.6279 11.0158 0 26.2982 0 43.9855V56.2424V56.32V422.478V422.555V445.673V445.983V453.12C0 469.644 19.6267 489.658 43.9855 489.658H274.773C276.635 489.658 278.497 489.503 280.281 489.27C302.08 486.555 318.836 468.402 318.836 453.12V320.776C318.914 316.742 315.578 313.406 311.467 313.406ZM274.851 14.8945C276.945 14.8945 279.04 15.1273 280.979 15.5152C281.367 15.5927 281.755 15.7479 282.143 15.903C294.865 19.2388 303.166 31.5733 303.942 48.8727H15.0497C15.8255 31.6509 23.9709 19.3939 36.6158 15.903C37.0812 15.7479 37.4691 15.5927 38.0121 15.5152C39.8739 15.1273 41.8909 14.8945 43.9855 14.8945H44.1406H274.851ZM44.063 474.919C28.0049 474.919 14.9721 461.886 14.8945 445.905V430.08H304.019V445.828C304.019 461.498 291.607 474.221 276.092 474.841C275.704 474.841 275.316 474.996 274.851 474.996H44.063V474.919Z" fill="black"/>
<path d="M145.688 37.5469H199.525C203.637 37.5469 206.972 34.2111 206.972 30.0996C206.972 25.9881 203.637 22.6523 199.525 22.6523H145.688C141.576 22.6523 138.24 25.9881 138.24 30.0996C138.24 34.2111 141.576 37.5469 145.688 37.5469Z" fill="black"/>
<path d="M119.467 37.5469H123.733C127.845 37.5469 131.181 34.2111 131.181 30.0996C131.181 25.9881 127.845 22.6523 123.733 22.6523H119.467C115.355 22.6523 112.02 25.9881 112.02 30.0996C112.02 34.2111 115.355 37.5469 119.467 37.5469Z" fill="black"/>
<path d="M178.269 444.044H140.645C136.533 444.044 133.197 447.38 133.197 451.491C133.197 455.603 136.533 458.939 140.645 458.939H178.269C182.38 458.939 185.716 455.603 185.716 451.491C185.716 447.38 182.38 444.044 178.269 444.044Z" fill="black"/>
<path d="M262.594 186.647C265.929 189.13 270.506 188.354 272.989 185.096L288.271 164.461C290.443 161.59 290.133 157.556 287.651 154.919L253.672 119.311C251.19 116.674 247.156 116.286 244.131 118.303L226.598 130.017C220.547 126.681 214.186 123.888 207.592 121.639L204.412 100.848C203.869 97.28 200.843 94.6424 197.197 94.5648L147.937 93.6339C144.523 93.4012 141.265 96.0388 140.489 99.6073L136.3 120.32C129.551 122.259 123.035 124.819 116.829 127.845L99.9172 115.433C97.0469 113.261 93.0129 113.571 90.3754 116.053L54.7681 150.109C52.2081 152.591 51.7426 156.548 53.682 159.573L65.2408 177.028C64.0772 179.2 62.9136 181.527 61.6723 184.01C59.8105 187.888 58.1814 192 56.7851 196.189L35.9172 199.447C32.3487 199.99 29.7111 203.016 29.6336 206.584L28.3923 255.845C28.3148 259.491 30.8748 262.594 34.3657 263.292L54.9233 267.326C56.7851 273.92 59.2675 280.359 62.3705 286.72L49.8808 303.709C47.7087 306.579 48.019 310.613 50.5014 313.251L84.4796 348.858C86.962 351.496 90.996 351.884 94.0214 349.867L111.554 338.075C117.682 341.488 124.043 344.359 130.637 346.531L133.74 367.244C134.283 370.812 137.309 373.527 140.955 373.605L190.215 374.613H190.371C193.861 374.613 196.964 372.131 197.663 368.64L201.852 347.927C208.523 345.988 215.04 343.505 221.401 340.325L234.977 350.332C235.132 350.487 235.52 350.72 235.907 350.875L238.235 352.659C241.105 354.832 245.139 354.521 247.777 352.039L283.384 317.983C285.944 315.501 286.409 311.544 284.47 308.519L270.274 287.185C268.024 283.772 263.369 282.841 259.956 285.091C256.543 287.341 255.612 291.995 257.861 295.408L268.567 311.622L241.881 337.144L226.366 325.741C224.038 324.034 220.935 323.801 218.453 325.198C210.54 329.542 202.162 332.722 193.706 334.817C190.914 335.515 188.741 337.765 188.198 340.558L184.32 359.719L147.549 358.943L144.756 339.782C144.291 336.911 142.274 334.584 139.481 333.731C131.103 331.326 123.035 327.758 115.355 323.025C112.872 321.551 109.769 321.551 107.364 323.181L91.1511 334.041L65.7839 307.51L77.3426 291.84C79.0493 289.513 79.282 286.487 77.8857 283.927C73.619 275.859 70.4384 267.559 68.4214 259.181C67.7233 256.31 65.4736 254.138 62.6033 253.595L43.5972 249.871L44.5281 213.101L63.7669 210.075C66.6372 209.61 68.9645 207.593 69.7402 204.8C71.2142 199.758 73.076 194.793 75.2481 190.216C76.9548 186.492 78.6614 183.389 80.4457 180.519C81.9972 178.036 81.9196 174.933 80.3681 172.528L69.6626 156.393L96.3487 130.948L111.941 142.429C114.269 144.136 117.372 144.368 119.932 142.972C127.069 139.016 134.826 135.913 143.592 133.585L144.756 133.43C147.471 132.655 149.488 130.482 150.031 127.767L153.91 108.684L190.681 109.382L193.629 128.543C194.094 131.413 196.111 133.741 198.904 134.516C207.437 136.999 215.583 140.645 223.107 145.222C225.59 146.696 228.693 146.618 231.098 145.067L247.234 134.206L272.523 160.737L260.964 176.33C258.56 179.588 259.258 184.242 262.594 186.647Z" fill="#F21B00"/>
<path d="M198.827 216.049C198.827 204.257 190.759 194.405 179.976 191.457V189.673C179.976 185.561 176.641 182.226 172.529 182.226C168.418 182.226 165.082 185.561 165.082 189.673V190.449H162.522V189.673C162.522 185.561 159.186 182.226 155.075 182.226C150.963 182.226 147.627 185.561 147.627 189.673V190.449H146.852C142.74 190.449 139.404 193.784 139.404 197.896C139.404 202.007 142.74 205.343 146.852 205.343H147.627V234.201V263.06H146.852C142.74 263.06 139.404 266.395 139.404 270.507C139.404 274.618 142.74 277.954 146.852 277.954H147.627V278.575C147.627 282.686 150.963 286.022 155.075 286.022C159.186 286.022 162.522 282.686 162.522 278.575V277.954H165.082V278.73C165.082 282.841 168.418 286.177 172.529 286.177C176.641 286.177 179.976 282.841 179.976 278.73V276.946C184.243 275.782 188.199 273.61 191.38 270.429C196.112 265.697 198.827 259.103 198.827 252.354C198.827 245.295 195.957 238.856 191.225 234.201C191.302 234.201 191.302 234.124 191.38 234.124C196.112 229.392 198.827 222.798 198.827 216.049ZM183.933 252.354C183.933 255.147 182.769 257.94 180.83 259.879C178.813 261.896 176.098 263.06 173.227 263.06H162.522V241.649H173.227C179.123 241.649 183.933 246.458 183.933 252.354ZM162.522 226.754V205.343H173.227C179.123 205.343 183.933 210.153 183.933 216.049C183.933 218.841 182.769 221.634 180.83 223.573C178.813 225.59 176.098 226.754 173.227 226.754H162.522Z" fill="#F21B00"/>
<path d="M387.725 193.629H406.11C410.222 193.629 413.557 190.293 413.557 186.182C413.557 182.07 410.222 178.734 406.11 178.734H387.725C383.613 178.734 380.277 182.07 380.277 186.182C380.355 190.293 383.691 193.629 387.725 193.629Z" fill="#F21B00"/>
<path d="M371.511 233.192H359.797C355.685 233.192 352.35 236.528 352.35 240.64C352.35 244.751 355.685 248.087 359.797 248.087H371.511C375.622 248.087 378.958 244.751 378.958 240.64C378.958 236.528 375.622 233.192 371.511 233.192Z" fill="#F21B00"/>
<path d="M406.187 274.773H389.508C385.396 274.773 382.061 278.109 382.061 282.221C382.061 286.332 385.396 289.668 389.508 289.668H406.187C410.298 289.668 413.634 286.332 413.634 282.221C413.634 278.109 410.298 274.773 406.187 274.773Z" fill="#F21B00"/>
<path d="M373.76 274.774H322.87L304.717 262.827C303.476 262.051 302.08 261.586 300.606 261.586H243.277C244.907 257.241 246.148 252.742 247.001 248.087H337.61C341.721 248.087 345.057 244.752 345.057 240.64C345.057 236.529 341.721 233.193 337.61 233.193H248.242C248.165 228.849 247.777 224.66 247.001 220.548H280.048C282.376 220.548 284.625 219.462 286.022 217.523L303.554 193.629H370.114C374.225 193.629 377.561 190.294 377.561 186.182C377.561 182.071 374.225 178.735 370.114 178.735H299.753C297.425 178.735 295.176 179.821 293.779 181.76L276.247 205.654H242.812C231.331 176.097 202.628 154.997 169.037 154.997C125.362 154.997 89.9102 190.526 89.9102 234.124C89.9102 277.721 125.44 313.251 169.037 313.251C197.74 313.251 222.875 297.814 236.761 274.851C238.002 275.704 239.399 276.325 241.028 276.325H298.356L316.509 288.272C317.75 289.047 319.147 289.513 320.62 289.513H373.682C377.794 289.513 381.13 286.177 381.13 282.066C381.13 277.954 377.871 274.774 373.76 274.774ZM169.115 298.512C133.663 298.512 104.805 269.654 104.805 234.201C104.805 198.749 133.663 169.891 169.115 169.891C204.567 169.891 233.425 198.749 233.425 234.201C233.425 269.654 204.567 298.512 169.115 298.512Z" fill="#F21B00"/>
</svg>
