<svg width="445" height="505" viewBox="0 0 445 505" fill="none" xmlns="http://www.w3.org/2000/svg">
<path d="M441.463 362.997C436.321 350.635 422.831 339.917 405.361 345.604L290.697 382.993L252.831 395.353C249.653 390.832 245.509 386.776 240.343 383.533L161.797 334.155C146.443 324.494 130.843 319.994 112.704 319.994H6.009C2.69 319.994 0 322.684 0 326.003V464.135C0 467.446 2.677 470.133 5.988 470.144L92.838 470.455C123.357 472.345 146.531 481.939 166.984 490.407C184.173 497.523 199.847 504.013 216.036 504.012C224.939 504.012 234 502.048 243.55 497.147L427.826 402.5C444.098 394.159 447.004 376.313 441.465 362.996L441.463 362.997ZM12.018 332.014H87.023V458.418L12.018 458.15V332.015V332.014ZM422.337 391.808L238.058 486.456C216.091 497.73 197.421 490 171.579 479.303C151.47 470.978 128.83 461.613 99.041 458.885V332.013H112.705C128.478 332.013 142.044 335.926 155.399 344.329L233.95 393.71C238.73 396.711 242.227 400.587 244.628 404.829C244.791 405.225 244.992 405.596 245.226 405.937C250.456 416.108 249.65 428.085 245.272 435.162C240.928 442.185 234.151 443.166 225.676 438L149.651 391.625C146.818 389.896 143.12 390.794 141.391 393.626C139.662 396.459 140.558 400.157 143.392 401.886L219.419 448.262C233.484 456.834 247.644 454.174 255.494 441.485C261.435 431.881 262.661 418.43 258.381 406.185L294.425 394.419L409.084 357.031C420.057 353.459 427.407 360.498 430.365 367.612C433.792 375.85 432.639 386.526 422.337 391.807V391.808Z" fill="black"/>
<path d="M173.503 222.475C185.784 241.617 194.688 255.516 200.616 278.006V317.169C200.616 324.296 206.414 330.095 213.542 330.095H214.25V343.475C214.25 350.524 219.985 356.259 227.034 356.259H264.962C272.011 356.259 277.746 350.524 277.746 343.475V330.095H278.454C285.581 330.095 291.38 324.297 291.38 317.169V278.006C297.308 255.517 306.212 241.618 318.492 222.476C320.555 219.26 322.709 215.904 324.95 212.35C334.329 197.501 339.286 180.316 339.286 162.653C339.286 111.214 297.437 69.365 245.998 69.365C194.559 69.365 152.71 111.214 152.71 162.653C152.71 180.316 157.667 197.501 167.043 212.346C169.286 215.904 171.44 219.259 173.503 222.475ZM265.728 343.475C265.728 343.897 265.384 344.241 264.962 344.241H227.034C226.612 344.241 226.268 343.897 226.268 343.475V330.095H265.727V343.475H265.728ZM278.455 318.077H213.542C213.059 318.077 212.635 317.653 212.635 317.17V283.211H279.363V317.17C279.363 317.653 278.939 318.077 278.456 318.077H278.455ZM224.824 198.342H215.612C210.532 198.342 206.399 194.209 206.399 189.129C206.399 184.049 210.532 179.916 215.612 179.916C220.692 179.916 224.824 184.049 224.824 189.129V198.342ZM255.155 271.193H236.843V210.361H255.155V271.193ZM245.999 81.384C290.811 81.384 327.269 117.842 327.269 162.654C327.269 178.042 322.954 193.008 314.787 205.937C312.561 209.467 310.426 212.796 308.378 215.988C296.632 234.297 287.201 248.996 280.788 271.193H267.175V210.361H276.387C288.094 210.361 297.618 200.837 297.618 189.13C297.618 177.423 288.094 167.899 276.387 167.899C264.68 167.899 255.156 177.423 255.156 189.13V198.343H236.844V189.13C236.844 177.423 227.32 167.899 215.613 167.899C203.906 167.899 194.382 177.423 194.382 189.13C194.382 200.837 203.906 210.361 215.613 210.361H224.825V271.193H211.212C204.799 248.996 195.367 234.296 183.62 215.986C181.573 212.795 179.437 209.466 177.209 205.933C169.045 193.007 164.73 178.041 164.73 162.654C164.73 117.842 201.188 81.384 246 81.384H245.999ZM267.174 198.342V189.129C267.174 184.049 271.307 179.916 276.386 179.916C281.465 179.916 285.599 184.049 285.599 189.129C285.599 194.209 281.466 198.342 276.386 198.342H267.174ZM347.265 224.051C348.925 221.178 352.6 220.194 355.474 221.853L382.12 237.245C384.994 238.905 385.978 242.58 384.318 245.454C383.205 247.381 381.185 248.458 379.109 248.458C378.088 248.458 377.055 248.198 376.109 247.651L349.463 232.259C346.589 230.599 345.605 226.924 347.265 224.05V224.051ZM348.963 104.172C347.305 101.297 348.292 97.622 351.167 95.964L377.813 80.6C380.689 78.94 384.363 79.93 386.021 82.804C387.679 85.679 386.692 89.354 383.817 91.012L357.171 106.376C356.225 106.921 355.193 107.18 354.175 107.18C352.096 107.18 350.076 106.101 348.963 104.172ZM370.185 158.345H400.941C404.26 158.345 406.95 161.035 406.95 164.354C406.95 167.673 404.26 170.363 400.941 170.363H370.185C366.866 170.363 364.176 167.673 364.176 164.354C364.176 161.035 366.866 158.345 370.185 158.345ZM303.523 51.482L318.887 24.836C320.545 21.961 324.22 20.974 327.095 22.632C329.97 24.29 330.957 27.965 329.299 30.84L313.935 57.486C312.822 59.415 310.801 60.494 308.724 60.494C307.705 60.494 306.673 60.235 305.727 59.69C302.852 58.032 301.865 54.357 303.523 51.482ZM85.0469 164.355C85.0469 161.036 87.7369 158.346 91.0559 158.346H121.812C125.131 158.346 127.821 161.036 127.821 164.355C127.821 167.674 125.131 170.364 121.812 170.364H91.0559C87.7369 170.364 85.0469 167.674 85.0469 164.355ZM144.733 224.052C146.393 226.926 145.409 230.601 142.535 232.261L115.889 247.653C114.943 248.2 113.909 248.46 112.889 248.46C110.812 248.46 108.793 247.383 107.68 245.456C106.02 242.582 107.004 238.907 109.878 237.247L136.524 221.855C139.396 220.194 143.073 221.178 144.733 224.053V224.052ZM105.977 82.805C107.634 79.93 111.309 78.943 114.185 80.601L140.831 95.965C143.706 97.623 144.693 101.298 143.035 104.173C141.923 106.102 139.901 107.181 137.823 107.181C136.805 107.181 135.773 106.922 134.827 106.377L108.181 91.013C105.306 89.355 104.319 85.68 105.977 82.805ZM162.698 30.841C161.04 27.966 162.027 24.291 164.902 22.633C167.777 20.977 171.452 21.961 173.11 24.837L188.474 51.483C190.132 54.358 189.145 58.033 186.27 59.691C185.324 60.236 184.292 60.495 183.273 60.495C181.195 60.495 179.174 59.416 178.062 57.487L162.698 30.841ZM239.99 36.768V6.009C239.99 2.69 242.68 0 245.999 0C249.318 0 252.008 2.69 252.008 6.009V36.765C252.008 40.084 249.318 42.774 245.999 42.774C242.68 42.774 239.99 40.084 239.99 36.765V36.768Z" fill="#F21B00"/>
</svg>
