<svg width="512" height="512" viewBox="0 0 512 512" fill="none" xmlns="http://www.w3.org/2000/svg">
<path d="M279.67 196.371C308.219 196.371 331.363 154.091 331.363 101.936C331.363 49.7803 308.219 7.5 279.67 7.5C251.12 7.5 227.977 49.7803 227.977 101.936C227.977 154.091 251.12 196.371 279.67 196.371Z" stroke="#F21B00" stroke-width="10" stroke-miterlimit="10" stroke-linecap="round" stroke-linejoin="round"/>
<path d="M186.246 101.936H373.092" stroke="#F21B00" stroke-width="10" stroke-miterlimit="10" stroke-linecap="round" stroke-linejoin="round"/>
<path d="M279.67 195.358V8.5127" stroke="#F21B00" stroke-width="10" stroke-miterlimit="10" stroke-linecap="round" stroke-linejoin="round"/>
<path d="M80.6641 177.563H83.7841C96.1352 177.563 106.893 185.987 109.857 197.977L160.601 403.255H374.759C387.209 403.255 398.051 394.755 401.02 382.664L428.285 271.664" stroke="black" stroke-width="15.0001" stroke-miterlimit="10" stroke-linecap="round" stroke-linejoin="round"/>
<path d="M158.215 393.599L167.452 430.966C170.491 443.259 181.521 451.895 194.184 451.895H401.125" stroke="black" stroke-width="15.0001" stroke-miterlimit="10" stroke-linecap="round" stroke-linejoin="round"/>
<path d="M185.484 272.574V399.363" stroke="black" stroke-width="15.0001" stroke-miterlimit="10" stroke-linecap="round" stroke-linejoin="round"/>
<path d="M232.422 272.574V399.363" stroke="black" stroke-width="15.0001" stroke-miterlimit="10" stroke-linecap="round" stroke-linejoin="round"/>
<path d="M279.361 272.574V399.363" stroke="black" stroke-width="15.0001" stroke-miterlimit="10" stroke-linecap="round" stroke-linejoin="round"/>
<path d="M326.299 272.574V399.363" stroke="black" stroke-width="15.0001" stroke-miterlimit="10" stroke-linecap="round" stroke-linejoin="round"/>
<path d="M373.236 272.574V399.363" stroke="black" stroke-width="15.0001" stroke-miterlimit="10" stroke-linecap="round" stroke-linejoin="round"/>
<path d="M146.248 335.97H409.231" stroke="black" stroke-width="15.0001" stroke-miterlimit="10" stroke-linecap="round" stroke-linejoin="round"/>
<path d="M70.693 158.756H16.58C11.565 158.756 7.5 162.821 7.5 167.835V187.291C7.5 192.306 11.565 196.37 16.58 196.37H70.693C75.707 196.37 79.772 192.305 79.772 187.291V167.835C79.772 162.821 75.707 158.756 70.693 158.756Z" stroke="black" stroke-width="15.0001" stroke-miterlimit="10" stroke-linecap="round" stroke-linejoin="round"/>
<path d="M227.838 504.498C242.096 504.498 253.653 492.94 253.653 478.683C253.653 464.426 242.096 452.868 227.838 452.868C213.581 452.868 202.023 464.426 202.023 478.683C202.023 492.94 213.581 504.498 227.838 504.498Z" stroke="black" stroke-width="15.0001" stroke-miterlimit="10" stroke-linecap="round" stroke-linejoin="round"/>
<path d="M355.797 504.498C370.055 504.498 381.612 492.94 381.612 478.683C381.612 464.426 370.055 452.868 355.797 452.868C341.54 452.868 329.982 464.426 329.982 478.683C329.982 492.94 341.54 504.498 355.797 504.498Z" stroke="black" stroke-width="15.0001" stroke-miterlimit="10" stroke-linecap="round" stroke-linejoin="round"/>
<path d="M261.861 234.635H118.92L127.814 270.615H445.991C452.708 270.615 458.152 265.171 458.152 258.455V246.795C458.152 240.079 452.708 234.635 445.991 234.635H296.861" stroke="black" stroke-width="15.0001" stroke-miterlimit="10" stroke-linecap="round" stroke-linejoin="round"/>
<path d="M349.307 38.1522C332.043 19.3141 307.237 7.5 279.67 7.5C227.515 7.5 185.234 49.7803 185.234 101.936C185.234 154.091 227.515 196.371 279.67 196.371C331.826 196.371 374.106 154.091 374.106 101.936C374.106 89.9306 371.861 78.4506 367.775 67.8865" stroke="#F21B00" stroke-width="10" stroke-miterlimit="10" stroke-linecap="round" stroke-linejoin="round"/>
</svg>
