<svg width="512" height="512" viewBox="0 0 512 512" fill="none" xmlns="http://www.w3.org/2000/svg">
<path d="M256 114C177.701 114 114 177.701 114 256C114 334.299 177.701 398 256 398C334.299 398 398 334.299 398 256C398 177.701 334.299 114 256 114ZM256 378C188.729 378 134 323.271 134 256C134 188.729 188.729 134 256 134C323.271 134 378 188.729 378 256C378 323.271 323.271 378 256 378Z" fill="#F21B00"/>
<path d="M506.691 1.168C503.424 -0.565999 499.466 -0.356999 496.401 1.713C447.309 34.884 418 90.06 418 149.309V279.061C418 292.978 423.42 306.062 433.26 315.903L452 334.643V482C452 498.542 465.458 512 482 512C498.542 512 512 498.542 512 482V10C512 6.301 509.958 2.904 506.691 1.168ZM492 482C492 487.514 487.514 492 482 492C476.486 492 472 487.514 472 482V330.5C472 327.848 470.946 325.305 469.071 323.429L447.402 301.76C441.339 295.697 438 287.636 438 279.061V149.309C438 103.329 457.881 60.115 492 30.297V482Z" fill="black"/>
<path d="M233.057 176.693C230.889 171.614 225.011 169.255 219.933 171.422C186 185.908 164.074 219.107 164.074 256C164.074 261.522 168.551 266 174.074 266C179.597 266 184.074 261.522 184.074 256C184.074 227.131 201.232 201.152 227.786 189.817C232.865 187.649 235.225 181.773 233.057 176.693Z" fill="#F21B00"/>
<path d="M256.001 164.075L255.496 164.076C249.973 164.113 245.526 168.62 245.563 174.143C245.6 179.643 250.07 184.076 255.562 184.076C255.584 184.076 255.608 184.076 255.63 184.076L256.001 184.075C261.524 184.075 266.001 179.598 266.001 174.075C266.001 168.552 261.524 164.075 256.001 164.075Z" fill="#F21B00"/>
<path d="M394.623 124.479C376.955 105.863 356.129 91.2151 332.724 80.9431C308.488 70.3071 282.674 64.9141 256 64.9141C225.52 64.9141 196.384 71.8801 169.402 85.6201C164.481 88.1261 162.522 94.1471 165.028 99.0691C167.535 103.989 173.556 105.947 178.478 103.442C202.622 91.1481 228.704 84.9141 256 84.9141C303.396 84.9141 347.475 103.854 380.116 138.247C382.082 140.319 384.724 141.363 387.371 141.363C389.843 141.363 392.319 140.452 394.253 138.616C398.259 134.814 398.424 128.485 394.623 124.479Z" fill="#F21B00"/>
<path d="M404.332 360.379C399.999 356.955 393.711 357.69 390.286 362.022C357.593 403.372 308.648 427.086 256.001 427.086C223.051 427.086 191.064 417.702 163.498 399.948C158.856 396.957 152.666 398.298 149.676 402.94C146.686 407.584 148.026 413.772 152.669 416.762C183.471 436.6 219.203 447.085 256.001 447.085C314.801 447.085 369.464 420.602 405.974 374.425C409.399 370.094 408.665 363.805 404.332 360.379Z" fill="#F21B00"/>
<path d="M135.958 377.924L135.811 377.755C135.758 377.69 135.705 377.624 135.65 377.56C132.093 373.334 125.785 372.794 121.56 376.35C117.335 379.908 116.793 386.215 120.351 390.441L120.448 390.556L120.453 390.552C120.559 390.686 120.669 390.82 120.783 390.952C122.761 393.256 125.559 394.438 128.375 394.438C130.681 394.438 132.998 393.645 134.884 392.026C139.074 388.428 139.555 382.115 135.958 377.924Z" fill="#F21B00"/>
<path d="M124 0C118.477 0 114 4.477 114 10V118H95.992C95.993 117.944 96 117.89 96 117.833V10C96 4.477 91.523 0 86 0C80.477 0 76 4.477 76 10V117.833C76 117.889 76.008 117.944 76.008 118H57.992C57.993 117.944 58 117.89 58 117.833V10C58 4.477 53.523 0 48 0C42.477 0 38 4.477 38 10V117.833C38 117.889 38.008 117.944 38.008 118H20V10C20 4.477 15.523 0 10 0C4.477 0 0 4.477 0 10V132C0 156.53 14.884 178.669 37 188.239V482C37 498.542 50.458 512 67 512C83.542 512 97 498.542 97 482V188.239C119.116 178.669 134 156.53 134 132V10C134 4.477 129.523 0 124 0ZM84.224 171.62C79.946 172.856 77 176.773 77 181.227V482C77 487.514 72.514 492 67 492C61.486 492 57 487.514 57 482V181.227C57 176.773 54.055 172.856 49.776 171.62C34.193 167.117 22.795 153.741 20.452 138H113.547C111.205 153.741 99.807 167.117 84.224 171.62Z" fill="black"/>
</svg>
