<svg width="512" height="512" viewBox="0 0 512 512" fill="none" xmlns="http://www.w3.org/2000/svg">
<path d="M302.079 185.331C315.804 185.331 326.931 174.204 326.931 160.479C326.931 146.754 315.804 135.627 302.079 135.627C288.353 135.627 277.227 146.754 277.227 160.479C277.227 174.204 288.353 185.331 302.079 185.331Z" stroke="#F21B00" stroke-width="15" stroke-miterlimit="10" stroke-linecap="round" stroke-linejoin="round"/>
<path d="M136.516 127.393C150.241 127.393 161.368 116.267 161.368 102.541C161.368 88.8161 150.241 77.6895 136.516 77.6895C122.791 77.6895 111.664 88.8161 111.664 102.541C111.664 116.267 122.791 127.393 136.516 127.393Z" stroke="#F21B00" stroke-width="15" stroke-miterlimit="10" stroke-linecap="round" stroke-linejoin="round"/>
<path d="M206.01 140.362V180.597" stroke="#F21B00" stroke-width="15" stroke-miterlimit="10" stroke-linecap="round" stroke-linejoin="round"/>
<path d="M226.129 160.479H185.893" stroke="#F21B00" stroke-width="15" stroke-miterlimit="10" stroke-linecap="round" stroke-linejoin="round"/>
<path d="M376.283 77.7695V85.6395" stroke="#F21B00" stroke-width="15" stroke-miterlimit="10" stroke-linecap="round" stroke-linejoin="round"/>
<path d="M401.054 102.541H393.184" stroke="#F21B00" stroke-width="15" stroke-miterlimit="10" stroke-linecap="round" stroke-linejoin="round"/>
<path d="M376.283 127.31V119.44" stroke="#F21B00" stroke-width="15" stroke-miterlimit="10" stroke-linecap="round" stroke-linejoin="round"/>
<path d="M351.512 102.541H359.382" stroke="#F21B00" stroke-width="15" stroke-miterlimit="10" stroke-linecap="round" stroke-linejoin="round"/>
<path d="M136.517 263.05L107.819 254.052C99.6946 251.505 93.6206 244.709 91.9976 236.35L85.0666 200.643C83.6376 193.28 78.7336 187.063 71.9056 183.959L47.8086 173.002" stroke="#F21B00" stroke-width="15" stroke-miterlimit="10" stroke-linecap="round" stroke-linejoin="round"/>
<path d="M464.19 173.002L440.093 183.959C433.265 187.064 428.362 193.28 426.932 200.643L420.001 236.35C418.379 244.708 412.304 251.504 404.18 254.052L375.482 263.05" stroke="#F21B00" stroke-width="15" stroke-miterlimit="10" stroke-linecap="round" stroke-linejoin="round"/>
<path d="M232.07 111.267H237.388" stroke="#F21B00" stroke-width="15" stroke-miterlimit="10" stroke-linecap="round" stroke-linejoin="round"/>
<path d="M274.613 111.267H279.931" stroke="#F21B00" stroke-width="15" stroke-miterlimit="10" stroke-linecap="round" stroke-linejoin="round"/>
<path d="M450.936 289.69C470.562 278.81 482.245 255.899 477.051 232.049L443.321 77.1784C442.841 74.9744 442.004 72.8724 440.863 70.9424" stroke="#F21B00" stroke-width="15" stroke-miterlimit="10" stroke-linecap="round" stroke-linejoin="round"/>
<path d="M249.244 203.403H307.024C327.73 203.403 346.888 214.368 357.375 232.223L379.646 270.139C384.336 278.123 390.937 284.588 398.676 289.09" stroke="#F21B00" stroke-width="15" stroke-miterlimit="10" stroke-linecap="round" stroke-linejoin="round"/>
<path d="M112.297 289.671C120.478 285.151 127.457 278.472 132.353 270.138L154.624 232.222C165.111 214.368 184.269 203.402 204.975 203.402H220.213" stroke="#F21B00" stroke-width="15" stroke-miterlimit="10" stroke-linecap="round" stroke-linejoin="round"/>
<path d="M422.523 48.009L419.388 44.155C415.385 39.233 409.377 36.375 403.033 36.375H336.428C330.649 36.375 325.124 38.747 321.144 42.937L299.517 65.702C295.537 69.892 290.011 72.264 284.233 72.264H227.769C221.99 72.264 216.465 69.892 212.485 65.702L190.858 42.937C186.878 38.747 181.352 36.375 175.574 36.375H108.969C102.624 36.375 96.6174 39.232 92.6134 44.155L72.9224 68.361C70.8364 70.926 69.3824 73.946 68.6784 77.177L34.9484 232.048C29.7544 255.898 41.4374 278.809 61.0624 289.689" stroke="#F21B00" stroke-width="15" stroke-miterlimit="10" stroke-linecap="round" stroke-linejoin="round"/>
<path d="M479.044 356.662H32.9564C28.4144 356.662 24.7324 352.98 24.7324 348.438V298.273C24.7324 293.731 28.4144 290.049 32.9564 290.049H479.044C483.586 290.049 487.268 293.731 487.268 298.273V348.438C487.268 352.98 483.586 356.662 479.044 356.662Z" stroke="black" stroke-width="15" stroke-miterlimit="10" stroke-linecap="round" stroke-linejoin="round"/>
<path d="M467.891 356.662H44.1074V394.433H467.891V356.662Z" stroke="black" stroke-width="15" stroke-miterlimit="10" stroke-linecap="round" stroke-linejoin="round"/>
<path d="M424.955 336.346H398.973C391.798 336.346 385.982 330.53 385.982 323.355C385.982 316.18 391.798 310.364 398.973 310.364H424.955C432.13 310.364 437.946 316.18 437.946 323.355C437.946 330.53 432.13 336.346 424.955 336.346Z" stroke="black" stroke-width="15" stroke-miterlimit="10" stroke-linecap="round" stroke-linejoin="round"/>
<path d="M55.4871 451.102C64.3639 451.102 71.5601 443.906 71.5601 435.029C71.5601 426.152 64.3639 418.956 55.4871 418.956C46.6102 418.956 39.4141 426.152 39.4141 435.029C39.4141 443.906 46.6102 451.102 55.4871 451.102Z" stroke="black" stroke-width="15" stroke-miterlimit="10" stroke-linecap="round" stroke-linejoin="round"/>
<path d="M167.783 450.057H116.921C108.622 450.057 101.893 443.329 101.893 435.029C101.893 426.73 108.621 420.002 116.921 420.002H167.783C176.082 420.002 182.811 426.73 182.811 435.029C182.811 443.329 176.082 450.057 167.783 450.057Z" stroke="black" stroke-width="15" stroke-miterlimit="10" stroke-linecap="round" stroke-linejoin="round"/>
<path d="M339.047 475.625H496.696C501.006 475.625 504.5 472.131 504.5 467.821V402.236C504.5 397.926 501.006 394.432 496.696 394.432H15.304C10.994 394.432 7.5 397.926 7.5 402.236V467.821C7.5 472.131 10.994 475.625 15.304 475.625H310.047" stroke="black" stroke-width="15" stroke-miterlimit="10" stroke-linecap="round" stroke-linejoin="round"/>
<path d="M87.8555 323.355H206.012" stroke="black" stroke-width="15" stroke-miterlimit="10" stroke-linecap="round" stroke-linejoin="round"/>
</svg>
