<svg width="512" height="512" viewBox="0 0 512 512" fill="none" xmlns="http://www.w3.org/2000/svg">
<mask id="mask0_253_37" style="mask-type:luminance" maskUnits="userSpaceOnUse" x="0" y="0" width="512" height="512">
<path d="M0 3.05176e-05H512V512H0V3.05176e-05Z" fill="white"/>
</mask>
<g mask="url(#mask0_253_37)">
<path d="M77 110.718V84C77 75.163 84.163 68 93 68H419C427.837 68 435 75.163 435 84V272C435 280.837 427.837 288 419 288H93C84.163 288 77 280.837 77 272V146.513" stroke="#F21B00" stroke-width="12" stroke-miterlimit="10" stroke-linecap="round" stroke-linejoin="round"/>
<path d="M339.121 32.118V68H309.121V39.983C309.121 38.888 308.233 38 307.138 38H204.864C203.769 38 202.881 38.888 202.881 39.983V68H172.881V32.118C172.881 18.522 183.903 7.5 197.499 7.5H314.503C328.099 7.5 339.121 18.522 339.121 32.118Z" stroke="#F21B00" stroke-width="12" stroke-miterlimit="10" stroke-linecap="round" stroke-linejoin="round"/>
<path d="M321 159.872V192.847C321 195.892 318.532 198.36 315.488 198.36H283.512C280.468 198.36 278 200.828 278 203.872V235.847C278 238.892 275.532 241.36 272.488 241.36H239.512C236.468 241.36 234 238.892 234 235.847V203.872C234 200.828 231.532 198.36 228.488 198.36H196.512C193.468 198.36 191 195.892 191 192.847V159.872C191 156.828 193.468 154.36 196.512 154.36H228.488C231.532 154.36 234 151.892 234 148.847V116.872C234 113.828 236.468 111.36 239.512 111.36H272.488C275.532 111.36 278 113.828 278 116.872V148.847C278 151.892 280.468 154.36 283.512 154.36H315.488C318.532 154.36 321 156.828 321 159.872Z" stroke="#F21B00" stroke-width="12" stroke-miterlimit="10" stroke-linecap="round" stroke-linejoin="round"/>
<path d="M70.2943 330.9L51.3303 321.006C36.6753 313.361 18.5823 319.048 10.9173 333.704C3.25128 348.361 8.91728 366.441 23.5703 374.086L128.753 428.96" stroke="black" stroke-width="20" stroke-miterlimit="10" stroke-linecap="round" stroke-linejoin="round"/>
<path d="M382.869 483.124L409.88 479.143H469.73V361.071H413.821" stroke="black" stroke-width="20" stroke-miterlimit="10" stroke-linecap="round" stroke-linejoin="round"/>
<path d="M434.151 431.902C427.91 391.486 392.862 368.08 346.731 371.644C295.76 375.582 221.902 425.768 221.902 425.768L104.225 333.437C91.2143 323.229 72.3833 325.488 62.1613 338.481C51.9403 351.475 54.2012 370.284 67.2112 380.492L217.114 498.108C222.424 502.275 228.95 504.5 235.62 504.5C237.075 504.5 238.537 504.395 239.994 504.18L347.869 488.282" stroke="black" stroke-width="20" stroke-miterlimit="10" stroke-linecap="round" stroke-linejoin="round"/>
<path d="M469.73 361.071H504.5V479.143H469.73V361.071Z" stroke="black" stroke-width="20" stroke-miterlimit="10" stroke-linecap="round" stroke-linejoin="round"/>
<path d="M269.623 396.278L203.683 366.691C190.014 360.557 183.918 344.525 190.068 330.881C196.227 317.219 212.328 311.136 226.004 317.305L284.246 343.578C290.597 346.442 297.918 345.94 303.916 342.394C321.115 332.227 380.755 305.954 412.201 361.07L416.105 368.41" stroke="black" stroke-width="20" stroke-miterlimit="10" stroke-linecap="round" stroke-linejoin="round"/>
</g>
</svg>
