<svg width="512" height="512" viewBox="0 0 512 512" fill="none" xmlns="http://www.w3.org/2000/svg">
<path d="M305.548 429.419C291.889 429.419 280.773 440.535 280.773 454.194C280.773 467.852 291.889 478.968 305.548 478.968C319.206 478.968 330.322 467.852 330.322 454.194C330.322 440.535 319.206 429.419 305.548 429.419ZM305.548 462.452C300.997 462.452 297.29 458.752 297.29 454.194C297.29 449.635 300.997 445.936 305.548 445.936C310.098 445.936 313.806 449.635 313.806 454.194C313.806 458.752 310.098 462.452 305.548 462.452Z" fill="#F21B00"/>
<path d="M107.354 429.419C93.6954 429.419 82.5801 440.535 82.5801 454.194C82.5801 467.852 93.6954 478.968 107.354 478.968C121.013 478.968 132.128 467.852 132.128 454.194C132.128 440.535 121.013 429.419 107.354 429.419ZM107.354 462.452C102.804 462.452 99.0962 458.752 99.0962 454.194C99.0962 449.635 102.804 445.936 107.354 445.936C111.904 445.936 115.612 449.635 115.612 454.194C115.612 458.752 111.904 462.452 107.354 462.452Z" fill="#F21B00"/>
<path d="M123.872 132.129C137.531 132.129 148.646 121.014 148.646 107.355C148.646 93.6959 137.531 82.5806 123.872 82.5806C110.213 82.5806 99.0977 93.6959 99.0977 107.355C99.0977 121.014 110.213 132.129 123.872 132.129ZM123.872 99.0967C128.422 99.0967 132.13 102.796 132.13 107.355C132.13 111.913 128.422 115.613 123.872 115.613C119.322 115.613 115.614 111.913 115.614 107.355C115.614 102.796 119.322 99.0967 123.872 99.0967Z" fill="#F21B00"/>
<path d="M454.194 297.291C440.535 297.291 429.42 308.406 429.42 322.065C429.42 335.724 440.535 346.839 454.194 346.839C467.853 346.839 478.968 335.724 478.968 322.065C478.968 308.406 467.853 297.291 454.194 297.291ZM454.194 330.323C449.644 330.323 445.936 326.623 445.936 322.065C445.936 317.506 449.644 313.807 454.194 313.807C458.744 313.807 462.452 317.506 462.452 322.065C462.452 326.623 458.744 330.323 454.194 330.323Z" fill="#F21B00"/>
<path d="M462.088 264.861C462.212 261.905 462.452 258.948 462.452 256C462.452 218.36 452.179 181.768 432.888 149.719C441.336 134.854 445.935 117.9 445.935 100.715V99.0968C445.935 44.4532 401.482 0 346.839 0C310.189 0 278.189 20.0506 261.046 49.7135C229.029 48.9786 196.525 55.808 167.507 69.5577C156.895 57.3275 141.287 49.5484 123.871 49.5484C91.9948 49.5484 66.0645 75.487 66.0645 107.355C66.0645 119.791 70.177 132.104 77.6258 142.03L81.0446 146.589C61.9603 177.053 51.2743 211.729 49.8539 247.742H33.0323C23.9236 247.742 16.5161 255.149 16.5161 264.258V429.419C7.40748 429.419 0 436.827 0 445.935V462.452C0 471.56 7.40748 478.968 16.5161 478.968H55.2052C64.5037 498.465 84.3561 512 107.355 512C130.354 512 150.206 498.465 159.505 478.968H253.399C262.697 498.465 282.55 512 305.548 512C328.547 512 348.399 498.465 357.698 478.968H379.871C388.98 478.968 396.387 471.56 396.387 462.452V439.709C396.387 437.694 396.139 435.679 395.652 433.697L390.367 412.556C402.671 401.994 413.646 390.086 423.135 376.989L454.194 418.411L500.439 356.748C507.896 346.814 512 334.493 512 322.065C512 292.881 490.232 268.734 462.088 264.861ZM346.839 16.5161C392.374 16.5161 429.419 53.5618 429.419 99.0968V100.707C429.419 119.123 423.151 137.249 411.772 151.725L346.839 234.38L281.906 151.725C270.526 137.249 264.258 119.131 264.258 100.707V99.0968C264.258 53.5618 301.304 16.5161 346.839 16.5161ZM123.871 66.0645C146.638 66.0645 165.161 84.5874 165.161 107.355C165.161 116.232 162.23 125.035 156.903 132.121L123.871 176.169L90.8387 132.121C85.5123 125.035 82.5806 116.232 82.5806 107.355C82.5806 84.5874 101.103 66.0645 123.871 66.0645ZM33.0323 264.258H99.0968V327.168L140.387 306.523L181.677 327.168V264.258H247.742V429.419H159.505C150.206 409.922 130.354 396.387 107.355 396.387C84.3561 396.387 64.5037 409.922 55.2052 429.419H33.0323V264.258ZM115.613 264.258H165.161V300.445L140.387 288.058L115.613 300.445V264.258ZM264.258 313.806H342.198C345.988 313.806 349.291 316.383 350.208 320.058L352.776 330.323H313.806C304.698 330.323 297.29 337.73 297.29 346.839V363.355C297.29 372.463 304.698 379.871 313.806 379.871H365.163L377.55 429.419H357.698C348.399 409.922 328.547 396.387 305.548 396.387C289.379 396.387 274.762 403.076 264.258 413.82V313.806ZM361.034 363.355H313.806V346.839H356.905L361.034 363.355ZM16.5161 462.452V445.935H50.209C49.8209 448.644 49.5484 451.386 49.5484 454.194C49.5484 457.001 49.8209 459.743 50.209 462.452H16.5161ZM107.355 495.484C84.5874 495.484 66.0645 476.961 66.0645 454.194C66.0645 431.426 84.5874 412.903 107.355 412.903C130.122 412.903 148.645 431.426 148.645 454.194C148.645 476.961 130.122 495.484 107.355 495.484ZM164.501 462.452C164.889 459.743 165.161 457.001 165.161 454.194C165.161 451.386 164.889 448.644 164.501 445.935H248.403C248.014 448.644 247.742 451.386 247.742 454.194C247.742 457.001 248.014 459.743 248.403 462.452H164.501ZM305.548 495.484C282.781 495.484 264.258 476.961 264.258 454.194C264.258 431.426 282.781 412.903 305.548 412.903C328.316 412.903 346.839 431.426 346.839 454.194C346.839 476.961 328.316 495.484 305.548 495.484ZM362.694 462.452C363.082 459.743 363.355 457.001 363.355 454.194C363.355 451.386 363.082 448.644 362.694 445.935H379.871V462.452H362.694ZM385.858 394.529L366.237 316.053C363.47 305.012 353.586 297.29 342.198 297.29H264.258V264.258C264.258 255.149 256.851 247.742 247.742 247.742H66.3618C67.6831 216.972 76.3045 187.276 91.6893 160.793L123.871 203.702L170.116 142.039C177.573 132.104 181.677 119.783 181.677 107.355C181.677 98.8573 179.786 90.8057 176.475 83.5303C200.671 72.3241 226.519 66.4774 253.49 66.1388C249.839 76.4697 247.742 87.5272 247.742 99.0968V100.707C247.742 122.814 255.265 144.566 268.916 161.932L346.839 261.103L422.565 164.724C437.867 192.603 445.935 223.901 445.935 256C445.935 258.981 445.704 261.979 445.572 264.977C417.784 269.163 396.387 293.128 396.387 322.065C396.387 334.501 400.5 346.814 407.948 356.74L412.713 363.099C404.893 374.52 395.949 385.074 385.858 394.529ZM487.226 346.83L454.194 390.879L421.161 346.83C415.835 339.745 412.903 330.942 412.903 322.065C412.903 299.297 431.426 280.774 454.194 280.774C476.961 280.774 495.484 299.297 495.484 322.065C495.484 330.942 492.552 339.745 487.226 346.83Z" fill="black"/>
<path d="M346.838 165.161C383.264 165.161 412.902 135.523 412.902 99.0967C412.902 62.6704 383.264 33.0322 346.838 33.0322C310.412 33.0322 280.773 62.6704 280.773 99.0967C280.773 135.523 310.412 165.161 346.838 165.161ZM346.838 49.5484C374.164 49.5484 396.386 71.7708 396.386 99.0967C396.386 126.423 374.164 148.645 346.838 148.645C319.512 148.645 297.29 126.423 297.29 99.0967C297.29 71.7708 319.512 49.5484 346.838 49.5484Z" fill="#F21B00"/>
<path d="M198.193 214.709H214.709V231.226H198.193V214.709Z" fill="#F21B00"/>
<path d="M231.227 214.709H247.743V231.226H231.227V214.709Z" fill="#F21B00"/>
<path d="M264.258 214.709H280.774V231.226H264.258V214.709Z" fill="#F21B00"/>
</svg>
