<svg width="479" height="513" viewBox="0 0 479 513" fill="none" xmlns="http://www.w3.org/2000/svg">
<path d="M193.26 351.811V242.521H285.9V368.36" stroke="#F21B00" stroke-width="15" stroke-miterlimit="10" stroke-linecap="round" stroke-linejoin="round"/>
<path d="M85.1836 368.06V164.236" stroke="#F21B00" stroke-width="15" stroke-miterlimit="10" stroke-linecap="round" stroke-linejoin="round"/>
<path d="M393.977 226.279V164.256" stroke="#F21B00" stroke-width="15" stroke-miterlimit="10" stroke-linecap="round" stroke-linejoin="round"/>
<path d="M393.977 360.655V258.768" stroke="#F21B00" stroke-width="15" stroke-miterlimit="10" stroke-linecap="round" stroke-linejoin="round"/>
<path d="M215.395 427.302H311.357C323.834 427.302 336.113 418.134 339.667 406.083" stroke="black" stroke-width="15" stroke-miterlimit="10" stroke-linecap="round" stroke-linejoin="round"/>
<path d="M54.4082 483.923H93.7022L149.552 500.714C158.996 503.557 168.818 504.999 178.68 504.999H300.509C312.687 504.999 324.457 500.575 333.613 492.553L461.417 380.625C472.772 370.689 474.615 352.014 464.767 340.016C454.438 327.411 435.808 325.661 423.312 336.119L339.667 406.085C340.517 403.257 340.936 400.246 340.874 397.128C340.554 381.049 327.026 368.357 310.944 368.357H235.573C223.087 368.357 210.829 364.49 200.888 356.935C187.686 346.904 171.223 340.94 153.359 340.94C133.434 340.94 115.243 348.358 101.385 360.578C95.7282 365.566 88.4702 368.358 80.9282 368.358H54.4082" stroke="black" stroke-width="15" stroke-miterlimit="10" stroke-linecap="round" stroke-linejoin="round"/>
<path d="M8 443.554V505.001H54.406V350.604H8V411.057" stroke="black" stroke-width="15" stroke-miterlimit="10" stroke-linecap="round" stroke-linejoin="round"/>
<path d="M339.906 82.3703V41.8003H390.059V121.658" stroke="#F21B00" stroke-width="15" stroke-miterlimit="10" stroke-linecap="round" stroke-linejoin="round"/>
<path d="M364.982 242.522H316.779V304.281H364.982V242.522Z" stroke="#F21B00" stroke-width="15" stroke-miterlimit="10" stroke-linecap="round" stroke-linejoin="round"/>
<path d="M164.266 242.522H116.062V304.281H164.266V242.522Z" stroke="#F21B00" stroke-width="15" stroke-miterlimit="10" stroke-linecap="round" stroke-linejoin="round"/>
<path d="M402.602 10.9253H327.361V41.8053H402.602V10.9253Z" stroke="#F21B00" stroke-width="15" stroke-miterlimit="10" stroke-linecap="round" stroke-linejoin="round"/>
<path d="M285.901 119.003H193.262V194.341H285.901V119.003Z" stroke="#F21B00" stroke-width="15" stroke-miterlimit="10" stroke-linecap="round" stroke-linejoin="round"/>
<path d="M239.58 119.003V194.341" stroke="#F21B00" stroke-width="15" stroke-miterlimit="10" stroke-linecap="round" stroke-linejoin="round"/>
<path d="M285.901 156.672H193.262" stroke="#F21B00" stroke-width="15" stroke-miterlimit="10" stroke-linecap="round" stroke-linejoin="round"/>
<path d="M147.754 75.7095L229.988 11.3105C235.625 6.8965 243.538 6.8965 249.175 11.3105L449.888 168.51C456.658 173.809 457.841 183.592 452.552 190.352C449.48 194.279 440.294 199.428 430.701 193.016L239.581 43.3215L48.432 193.017C41.672 198.316 31.89 197.123 26.591 190.353C21.292 183.593 22.485 173.811 29.245 168.512L122.165 95.7415" stroke="#F21B00" stroke-width="15" stroke-miterlimit="10" stroke-linecap="round" stroke-linejoin="round"/>
</svg>
