<svg width="493" height="493" viewBox="0 0 493 493" fill="none" xmlns="http://www.w3.org/2000/svg">
<path d="M140.982 135.551C127.018 151.066 106.073 161.151 83.576 161.151C61.079 161.151 40.1336 151.066 26.1699 135.551C37.0305 115.382 58.7517 101.418 83.576 101.418C108.4 101.418 130.121 115.382 140.982 135.551Z" stroke="#010101" stroke-width="11.6364" stroke-miterlimit="10" stroke-linecap="round" stroke-linejoin="round"/>
<path d="M83.575 83.5757C98.1419 83.5757 109.951 71.7669 109.951 57.2C109.951 42.6331 98.1419 30.8242 83.575 30.8242C69.008 30.8242 57.1992 42.6331 57.1992 57.2C57.1992 71.7669 69.008 83.5757 83.575 83.5757Z" stroke="#010101" stroke-width="11.6364" stroke-miterlimit="10" stroke-linecap="round" stroke-linejoin="round"/>
<path d="M161.152 83.5758C161.152 103.745 153.394 121.588 140.982 135.552C127.018 151.067 106.073 161.152 83.5758 161.152C61.0788 161.152 40.1333 151.067 26.1697 135.552C13.7576 121.588 6 103.745 6 83.5758C6 40.9091 40.9091 6 83.5758 6C126.242 6 161.152 40.9091 161.152 83.5758Z" stroke="#010101" stroke-width="11.6364" stroke-miterlimit="10" stroke-linecap="round" stroke-linejoin="round"/>
<path d="M466.8 135.551C452.837 151.066 431.891 161.151 409.394 161.151C386.897 161.151 365.952 151.066 351.988 135.551C362.849 115.382 384.57 101.418 409.394 101.418C434.219 101.418 455.94 115.382 466.8 135.551Z" stroke="#010101" stroke-width="11.6364" stroke-miterlimit="10" stroke-linecap="round" stroke-linejoin="round"/>
<path d="M409.393 83.5757C423.96 83.5757 435.769 71.7669 435.769 57.2C435.769 42.6331 423.96 30.8242 409.393 30.8242C394.826 30.8242 383.018 42.6331 383.018 57.2C383.018 71.7669 394.826 83.5757 409.393 83.5757Z" stroke="#010101" stroke-width="11.6364" stroke-miterlimit="10" stroke-linecap="round" stroke-linejoin="round"/>
<path d="M486.97 83.5758C486.97 103.745 479.212 121.588 466.8 135.552C452.837 151.067 431.891 161.152 409.394 161.152C386.897 161.152 365.952 151.067 351.988 135.552C339.576 121.588 331.818 103.745 331.818 83.5758C331.818 40.9091 366.727 6 409.394 6C452.061 6 486.97 40.9091 486.97 83.5758Z" stroke="#010101" stroke-width="11.6364" stroke-miterlimit="10" stroke-linecap="round" stroke-linejoin="round"/>
<path d="M140.982 461.37C127.018 476.885 106.073 486.97 83.576 486.97C61.079 486.97 40.1336 476.885 26.1699 461.37C37.0305 441.2 58.7517 427.236 83.576 427.236C108.4 427.236 130.121 441.2 140.982 461.37Z" stroke="#010101" stroke-width="11.6364" stroke-miterlimit="10" stroke-linecap="round" stroke-linejoin="round"/>
<path d="M83.575 409.394C98.1419 409.394 109.951 397.585 109.951 383.018C109.951 368.451 98.1419 356.643 83.575 356.643C69.008 356.643 57.1992 368.451 57.1992 383.018C57.1992 397.585 69.008 409.394 83.575 409.394Z" stroke="#010101" stroke-width="11.6364" stroke-miterlimit="10" stroke-linecap="round" stroke-linejoin="round"/>
<path d="M161.152 409.394C161.152 429.564 153.394 447.406 140.982 461.37C127.018 476.885 106.073 486.97 83.5758 486.97C61.0788 486.97 40.1333 476.885 26.1697 461.37C13.7576 447.406 6 429.564 6 409.394C6 366.727 40.9091 331.818 83.5758 331.818C126.242 331.818 161.152 366.727 161.152 409.394Z" stroke="#010101" stroke-width="11.6364" stroke-miterlimit="10" stroke-linecap="round" stroke-linejoin="round"/>
<path d="M466.8 461.37C452.837 476.885 431.891 486.97 409.394 486.97C386.897 486.97 365.952 476.885 351.988 461.37C362.849 441.2 384.57 427.236 409.394 427.236C434.219 427.236 455.94 441.2 466.8 461.37Z" stroke="#010101" stroke-width="11.6364" stroke-miterlimit="10" stroke-linecap="round" stroke-linejoin="round"/>
<path d="M409.393 409.394C423.96 409.394 435.769 397.585 435.769 383.018C435.769 368.451 423.96 356.643 409.393 356.643C394.826 356.643 383.018 368.451 383.018 383.018C383.018 397.585 394.826 409.394 409.393 409.394Z" stroke="#010101" stroke-width="11.6364" stroke-miterlimit="10" stroke-linecap="round" stroke-linejoin="round"/>
<path d="M486.97 409.394C486.97 429.564 479.212 447.406 466.8 461.37C452.837 476.885 431.891 486.97 409.394 486.97C386.897 486.97 365.952 476.885 351.988 461.37C339.576 447.406 331.818 429.564 331.818 409.394C331.818 366.727 366.727 331.818 409.394 331.818C452.061 331.818 486.97 366.727 486.97 409.394Z" stroke="#010101" stroke-width="11.6364" stroke-miterlimit="10" stroke-linecap="round" stroke-linejoin="round"/>
<path d="M354.315 354.315L320.182 320.182" stroke="#F21B00" stroke-width="11.6364" stroke-miterlimit="10" stroke-linecap="round" stroke-linejoin="round"/>
<path d="M172.788 172.788L138.654 138.654" stroke="#F21B00" stroke-width="11.6364" stroke-miterlimit="10" stroke-linecap="round" stroke-linejoin="round"/>
<path d="M172.788 320.182L138.654 354.315" stroke="#F21B00" stroke-width="11.6364" stroke-miterlimit="10" stroke-linecap="round" stroke-linejoin="round"/>
<path d="M354.315 138.654L320.182 172.788" stroke="#F21B00" stroke-width="11.6364" stroke-miterlimit="10" stroke-linecap="round" stroke-linejoin="round"/>
<path d="M246.485 325.612C288.043 325.612 321.733 291.922 321.733 250.364C321.733 208.805 288.043 175.115 246.485 175.115C204.926 175.115 171.236 208.805 171.236 250.364C171.236 291.922 204.926 325.612 246.485 325.612Z" stroke="#F21B00" stroke-width="11.6364" stroke-miterlimit="10" stroke-linecap="round" stroke-linejoin="round"/>
<path d="M246.484 325.612C267.049 325.612 283.721 291.922 283.721 250.364C283.721 208.805 267.049 175.115 246.484 175.115C225.919 175.115 209.248 208.805 209.248 250.364C209.248 291.922 225.919 325.612 246.484 325.612Z" stroke="#F21B00" stroke-width="11.6364" stroke-miterlimit="10" stroke-linecap="round" stroke-linejoin="round"/>
<path d="M246.484 175.115V325.612" stroke="#F21B00" stroke-width="11.6364" stroke-miterlimit="10" stroke-linecap="round" stroke-linejoin="round"/>
<path d="M321.733 250.364H171.236" stroke="#F21B00" stroke-width="11.6364" stroke-miterlimit="10" stroke-linecap="round" stroke-linejoin="round"/>
</svg>
