<svg width="503" height="504" viewBox="0 0 503 504" fill="none" xmlns="http://www.w3.org/2000/svg">
<path d="M156.107 238.333H145.658C145.658 247.39 146.413 256.81 147.903 266.331L158.225 264.719C156.819 255.726 156.107 246.852 156.107 238.333Z" fill="#F21B00"/>
<path d="M208.937 382.842C185.667 347.76 169.878 314.206 162.009 283.112L151.881 285.673C160.039 317.915 176.304 352.55 200.228 388.617L208.937 382.842Z" fill="#F21B00"/>
<path d="M427.068 99.9644L427.419 99.6953C425.253 96.8663 423.022 94.0858 420.728 91.3612L417.443 94.126C414.207 92.3121 410.913 90.5927 407.547 88.995L413.651 83.3458C411.23 80.7309 408.748 78.1699 406.207 75.6721L398.881 83.1211C400.031 84.2533 401.127 85.4398 402.253 86.597C382.209 77.9374 360.135 73.1157 336.949 73.1157C245.847 73.1157 171.732 147.23 171.732 238.332C171.732 320.013 240.73 406.689 288.681 457.081L289.403 460.896C290.219 460.741 291.017 460.54 291.83 460.377C314.261 483.663 331.455 498.494 333.559 500.289L337.01 503.235L340.411 500.228C347.016 494.388 502.166 355.847 502.166 238.332C502.167 180.464 472.237 129.483 427.068 99.9644ZM336.892 489.303C330.523 483.611 315.934 470.193 298.158 451.534L297.433 448.497C296.841 448.638 296.237 448.743 295.644 448.88C248.871 399.305 182.182 315.163 182.182 238.333C182.182 152.994 251.611 83.5657 336.95 83.5657C422.289 83.5657 491.718 152.995 491.718 238.333C491.718 341.803 359.927 468.037 336.892 489.303Z" fill="black"/>
<path d="M373.709 413.933L381.597 420.785C383.872 418.165 386.153 415.499 388.439 412.787L380.449 406.052C378.199 408.724 375.949 411.354 373.709 413.933Z" fill="black"/>
<path d="M399.947 381.821L408.248 388.168C410.376 385.387 412.488 382.579 414.583 379.744L406.18 373.535C404.121 376.323 402.039 379.086 399.947 381.821Z" fill="black"/>
<path d="M387.08 398.073L395.172 404.686C397.379 401.984 399.582 399.249 401.774 396.482L393.585 389.992C391.425 392.719 389.256 395.413 387.08 398.073Z" fill="black"/>
<path d="M412.254 365.152L420.775 371.203C422.813 368.333 424.82 365.445 426.8 362.54L418.162 356.657C416.223 359.507 414.251 362.339 412.254 365.152Z" fill="black"/>
<path d="M281.814 354.686C285.134 356.071 288.549 357.347 291.97 358.479L295.256 348.561C292.085 347.51 288.913 346.327 285.835 345.043L281.814 354.686Z" fill="black"/>
<path d="M229.293 317.25C231.66 319.92 234.183 322.558 236.791 325.086L244.061 317.581C241.645 315.239 239.306 312.796 237.115 310.321L229.293 317.25Z" fill="black"/>
<path d="M244.857 332.326C247.615 334.622 250.506 336.849 253.444 338.941L259.506 330.431C256.779 328.489 254.1 326.425 251.542 324.295L244.857 332.326Z" fill="black"/>
<path d="M262.502 344.895C265.589 346.762 268.778 348.533 271.977 350.155L276.701 340.833C273.734 339.331 270.775 337.687 267.91 335.956L262.502 344.895Z" fill="black"/>
<path d="M454.651 222.007C454.651 110.497 310.663 60.3852 242.661 151.599L242.653 151.608C242.208 152.493 219.25 179.478 219.25 222.006C219.25 284.682 269.595 339.685 336.928 339.685C401.584 339.685 454.651 287.126 454.651 222.007ZM370.701 323.829C380.977 313.288 389.423 298.01 395.152 279.544C404.166 282.544 412.412 286.194 419.425 290.504C407.039 305.469 390.428 317.342 370.701 323.829ZM254.476 290.504C261.49 286.193 269.736 282.543 278.748 279.541C284.479 298.014 292.928 313.296 303.209 323.837C284.767 317.772 267.858 306.666 254.476 290.504ZM302.995 120.348C292.809 130.884 284.437 146.09 278.745 164.439C269.74 161.445 261.496 157.804 254.48 153.504C267.131 138.342 283.74 126.821 302.995 120.348ZM419.421 153.504C412.406 157.803 404.162 161.444 395.155 164.437C389.465 146.094 381.097 130.893 370.916 120.359C390.212 126.839 407.023 138.545 419.421 153.504ZM403.308 216.583C402.944 201.621 401.07 187.474 397.947 174.579C408.238 171.185 417.525 166.887 425.597 161.813C436.717 178.112 443.01 196.849 443.988 216.583H403.308ZM342.174 115.261C360.076 118.611 375.78 138.953 384.818 167.477C371.622 170.874 357.127 172.849 342.174 173.233V115.261ZM331.725 115.261V173.234C316.775 172.853 302.28 170.878 289.082 167.48C298.119 138.955 313.824 118.611 331.725 115.261ZM331.725 183.673V216.583H281.115C281.494 202.821 283.281 189.669 286.233 177.632C300.262 181.26 315.676 183.297 331.725 183.673ZM331.725 227.032V260.297C315.673 260.674 300.259 262.712 286.234 266.344C283.256 254.202 281.463 240.925 281.105 227.032H331.725ZM331.725 270.737V328.709C313.825 325.36 298.121 305.019 289.083 276.496C302.277 273.095 316.77 271.118 331.725 270.737ZM342.174 328.709V270.737C357.132 271.121 371.625 273.099 384.817 276.499C375.779 305.021 360.075 325.36 342.174 328.709ZM342.174 260.298V227.032H392.796C392.439 240.926 390.645 254.203 387.667 266.347C373.643 262.717 358.229 260.677 342.174 260.298ZM342.174 216.583V183.672C358.225 183.294 373.64 181.256 387.668 177.63C390.62 189.667 392.407 202.82 392.786 216.583H342.174ZM275.954 174.581C272.831 187.476 270.957 201.621 270.593 216.583H229.914C230.891 196.853 237.183 178.119 248.304 161.814C256.378 166.889 265.665 171.187 275.954 174.581ZM270.588 227.032C270.931 242.127 272.808 256.4 275.956 269.399C265.661 272.8 256.371 277.106 248.3 282.195C237.108 265.79 230.81 246.912 229.898 227.033L270.588 227.032ZM397.945 269.401C401.094 256.402 402.97 242.128 403.313 227.032H444.003C443.092 246.91 436.794 265.787 425.6 282.194C417.53 277.108 408.242 272.801 397.945 269.401Z" fill="black"/>
<path d="M45.9927 146.39L75.4035 192.448L89.4548 184.27L79.5413 138.326L119.24 104.26L157.393 164L176.367 152.99L158.515 70.4671C174.454 57.7883 186.113 43.0672 192.431 21.2017C194.11 15.403 192.503 9.14828 188.237 4.87517C184.077 0.699233 178.023 -0.95902 172.298 0.546155C151.186 6.1024 135.496 17.31 122.011 34.0022L39.6816 16.0018L28.6281 34.951L88.2657 73.2162L54.1074 112.877L8.21185 102.841L0 116.877L45.9927 146.39ZM57.9594 124.415L104.036 70.92L42.6992 31.5634L44.8752 27.8337L125.39 45.4355C134.74 36.5403 145.215 18.4782 174.957 10.6524C177.115 10.0887 179.28 10.6879 180.842 12.2542C182.444 13.8587 183.026 16.1188 182.27 18.7875C173.469 49.1835 152.907 60.5735 148.867 65.0989L147.094 67.0837L164.545 147.77L160.811 149.938L121.566 88.4942L68.015 134.448L76.8162 175.249L53.5636 138.834L17.2089 115.507L57.9594 124.415Z" fill="#F21B00"/>
<path d="M22.8418 199.249L33.1429 201.004C33.7171 197.637 34.3649 194.3 35.0917 190.989L24.8825 188.754C24.1249 192.224 23.4416 195.724 22.8418 199.249Z" fill="black"/>
<path d="M99.4063 410.566L106.192 402.616C103.603 400.407 101.065 398.137 98.5824 395.811L91.4395 403.438C94.0392 405.872 96.6948 408.25 99.4063 410.566Z" fill="black"/>
<path d="M122.321 415.125C119.536 413.166 116.796 411.143 114.107 409.059L107.709 417.319C110.526 419.5 113.393 421.62 116.311 423.671L122.321 415.125Z" fill="black"/>
<path d="M27.4238 178.364L37.5155 181.084C38.4005 177.79 39.3649 174.527 40.4004 171.3L30.4514 168.106C29.3652 171.492 28.3548 174.912 27.4238 178.364Z" fill="black"/>
<path d="M34.6299 282.142C33.9361 278.829 33.3212 275.487 32.7831 272.117L22.4668 273.764C23.0305 277.298 23.6757 280.803 24.4004 284.28L34.6299 282.142Z" fill="black"/>
<path d="M20.25 220.476L30.6682 221.251C30.9231 217.845 31.2575 214.461 31.6681 211.101L21.2954 209.83C20.8649 213.354 20.5154 216.902 20.25 220.476Z" fill="black"/>
<path d="M20.0879 252.52C20.3172 256.094 20.6312 259.645 21.0267 263.17L31.4094 262.007C31.0342 258.644 30.7359 255.257 30.5165 251.852L20.0879 252.52Z" fill="black"/>
<path d="M268.229 463.885C271.796 463.553 275.337 463.137 278.852 462.643L277.393 452.295C274.041 452.77 270.663 453.165 267.26 453.482L268.229 463.885Z" fill="black"/>
<path d="M19.6094 237.65C19.6094 239.053 19.6219 240.453 19.6475 241.846L30.0965 241.652C30.0709 240.32 30.0584 238.986 30.0584 237.65C30.0584 235.573 30.0892 233.504 30.1451 231.443L19.7013 231.152C19.6397 233.311 19.6094 235.476 19.6094 237.65Z" fill="black"/>
<path d="M193.911 458.681L196.339 448.518C193.02 447.727 189.732 446.859 186.479 445.918L183.576 455.954C186.987 456.941 190.434 457.849 193.911 458.681Z" fill="black"/>
<path d="M246.881 464.877C250.462 464.877 254.026 464.792 257.567 464.629L257.082 454.19C253.702 454.349 250.299 454.428 246.881 454.428V464.877Z" fill="black"/>
<path d="M236.198 464.635L236.678 454.196C233.265 454.04 229.872 453.803 226.504 453.489L225.535 463.892C229.066 464.221 232.622 464.469 236.198 464.635Z" fill="black"/>
<path d="M130.809 420.795L125.207 429.617C128.215 431.528 131.273 433.37 134.375 435.14L139.554 426.063C136.595 424.375 133.679 422.619 130.809 420.795Z" fill="black"/>
<path d="M157.75 435.336C154.643 433.935 151.572 432.461 148.544 430.915L143.799 440.226C146.975 441.844 150.194 443.39 153.454 444.861L157.75 435.336Z" fill="black"/>
<path d="M216.372 452.306C212.992 451.829 209.634 451.278 206.308 450.647L204.369 460.918C207.859 461.573 211.374 462.155 214.917 462.652L216.372 452.306Z" fill="black"/>
<path d="M176.756 442.852C173.522 441.747 170.323 440.568 167.159 439.321L163.322 449.04C166.639 450.349 169.991 451.584 173.378 452.739L176.756 442.852Z" fill="black"/>
<path d="M46.3283 155.097L36.6704 151.117C35.7315 153.39 34.8287 155.686 33.9609 157.997L43.7464 161.665C44.5734 159.457 45.4355 157.267 46.3283 155.097Z" fill="black"/>
<path d="M46.6734 321.027C45.3699 317.903 44.1401 314.742 42.9797 311.545L33.1582 315.112C34.375 318.461 35.666 321.775 37.0306 325.048L46.6734 321.027Z" fill="black"/>
<path d="M91.3117 388.662C88.9418 386.224 86.6305 383.732 84.3803 381.183L76.5488 388.101C78.9108 390.772 81.3345 393.387 83.8166 395.943L91.3117 388.662Z" fill="black"/>
<path d="M71.6046 365.298L63.166 371.461C65.2678 374.339 67.4339 377.165 69.6637 379.936L77.8066 373.39C75.6787 370.742 73.6098 368.043 71.6046 365.298Z" fill="black"/>
<path d="M39.7304 301.885C38.7278 298.648 37.7994 295.377 36.9473 292.079L26.8301 294.691C27.7229 298.153 28.6973 301.581 29.7511 304.977L39.7304 301.885Z" fill="black"/>
<path d="M65.7953 356.925C63.9254 354.094 62.122 351.216 60.3822 348.293L51.4023 353.634C53.2236 356.696 55.1138 359.711 57.0709 362.68L65.7953 356.925Z" fill="black"/>
<path d="M50.809 330.326L41.3652 334.8C42.8908 338.019 44.4879 341.198 46.1613 344.333L55.3805 339.42C53.7885 336.428 52.263 333.397 50.809 330.326Z" fill="black"/>
<path d="M358.669 51.8971L364.072 42.9533C361.024 41.1117 357.924 39.3411 354.784 37.6421L349.814 46.8361C352.812 48.4536 355.764 50.1422 358.669 51.8971Z" fill="black"/>
<path d="M375.621 63.2469L381.84 54.849C378.977 52.7289 376.059 50.6757 373.092 48.6909L367.281 57.3745C370.11 59.2674 372.891 61.2239 375.621 63.2469Z" fill="black"/>
<path d="M340.72 42.1907L345.256 32.7772C342.05 31.2339 338.797 29.7622 335.506 28.3667L331.43 37.9892C334.567 39.3183 337.667 40.719 340.72 42.1907Z" fill="black"/>
<path d="M391.442 76.1347L398.412 68.3491C395.756 65.9741 393.047 63.6581 390.284 61.4053L383.682 69.5074C386.322 71.6578 388.909 73.8667 391.442 76.1347Z" fill="black"/>
<path d="M262.27 21.4051L262.999 10.9817C259.466 10.7341 255.905 10.5659 252.323 10.4844L252.078 20.9281C255.497 21.0096 258.895 21.1679 262.27 21.4051Z" fill="black"/>
<path d="M231.681 21.3871C235.056 21.1525 238.452 20.9968 241.87 20.9226L241.641 10.4736C238.059 10.5525 234.495 10.7187 230.957 10.9637L231.681 21.3871Z" fill="black"/>
<path d="M282.529 23.7881L284.233 13.4817C280.733 12.9002 277.203 12.4029 273.649 11.9844L272.43 22.3618C275.82 22.7599 279.188 23.2369 282.529 23.7881Z" fill="black"/>
<path d="M321.94 34.2263L325.563 24.4251C322.223 23.1932 318.851 22.0349 315.437 20.9556L312.287 30.9197C315.539 31.9484 318.759 33.0503 321.94 34.2263Z" fill="black"/>
<path d="M302.49 28.0737L305.158 17.9716C301.722 17.0636 298.252 16.2292 294.752 15.479L292.559 25.6934C295.895 26.4128 299.207 27.2064 302.49 28.0737Z" fill="black"/>
<path d="M221.516 22.331L220.312 11.9536C216.758 12.3643 213.227 12.8616 209.725 13.4358L211.413 23.7469C214.758 23.1983 218.126 22.7265 221.516 22.331Z" fill="black"/>
<path d="M468.855 23.3442H479.304V33.7932H468.855V23.3442Z" fill="black"/>
<path d="M447.957 23.3442H458.406V33.7932H447.957V23.3442Z" fill="black"/>
<path d="M427.061 23.3442H437.51V33.7932H427.061V23.3442Z" fill="black"/>
<path d="M39.2617 445.891H49.7107V456.34H39.2617V445.891Z" fill="#F21B00"/>
<path d="M60.1602 445.891H70.6091V456.34H60.1602V445.891Z" fill="#F21B00"/>
<path d="M18.3633 445.891H28.8123V456.34H18.3633V445.891Z" fill="#F21B00"/>
<path d="M156.273 480.529H166.722V490.978H156.273V480.529Z" fill="#F21B00"/>
<path d="M114.479 480.529H124.927V490.978H114.479V480.529Z" fill="#F21B00"/>
<path d="M135.377 480.529H145.826V490.978H135.377V480.529Z" fill="#F21B00"/>
<path d="M439.447 454.433H449.896V464.882H439.447V454.433Z" fill="black"/>
<path d="M481.242 454.433H491.691V464.882H481.242V454.433Z" fill="black"/>
<path d="M460.346 454.433H470.795V464.882H460.346V454.433Z" fill="black"/>
</svg>
